%TF.GenerationSoftware,KiCad,Pcbnew,9.0.0*%
%TF.CreationDate,2025-04-05T00:09:13-04:00*%
%TF.ProjectId,KXR_pi_hat_v0.2,4b58525f-7069-45f6-9861-745f76302e32,rev?*%
%TF.SameCoordinates,Original*%
%TF.FileFunction,Soldermask,Bot*%
%TF.FilePolarity,Negative*%
%FSLAX46Y46*%
G04 Gerber Fmt 4.6, Leading zero omitted, Abs format (unit mm)*
G04 Created by KiCad (PCBNEW 9.0.0) date 2025-04-05 00:09:13*
%MOMM*%
%LPD*%
G01*
G04 APERTURE LIST*
G04 Aperture macros list*
%AMRoundRect*
0 Rectangle with rounded corners*
0 $1 Rounding radius*
0 $2 $3 $4 $5 $6 $7 $8 $9 X,Y pos of 4 corners*
0 Add a 4 corners polygon primitive as box body*
4,1,4,$2,$3,$4,$5,$6,$7,$8,$9,$2,$3,0*
0 Add four circle primitives for the rounded corners*
1,1,$1+$1,$2,$3*
1,1,$1+$1,$4,$5*
1,1,$1+$1,$6,$7*
1,1,$1+$1,$8,$9*
0 Add four rect primitives between the rounded corners*
20,1,$1+$1,$2,$3,$4,$5,0*
20,1,$1+$1,$4,$5,$6,$7,0*
20,1,$1+$1,$6,$7,$8,$9,0*
20,1,$1+$1,$8,$9,$2,$3,0*%
%AMFreePoly0*
4,1,23,0.550000,-0.750000,0.000000,-0.750000,0.000000,-0.745722,-0.065263,-0.745722,-0.191342,-0.711940,-0.304381,-0.646677,-0.396677,-0.554381,-0.461940,-0.441342,-0.495722,-0.315263,-0.495722,-0.250000,-0.500000,-0.250000,-0.500000,0.250000,-0.495722,0.250000,-0.495722,0.315263,-0.461940,0.441342,-0.396677,0.554381,-0.304381,0.646677,-0.191342,0.711940,-0.065263,0.745722,0.000000,0.745722,
0.000000,0.750000,0.550000,0.750000,0.550000,-0.750000,0.550000,-0.750000,$1*%
%AMFreePoly1*
4,1,23,0.000000,0.745722,0.065263,0.745722,0.191342,0.711940,0.304381,0.646677,0.396677,0.554381,0.461940,0.441342,0.495722,0.315263,0.495722,0.250000,0.500000,0.250000,0.500000,-0.250000,0.495722,-0.250000,0.495722,-0.315263,0.461940,-0.441342,0.396677,-0.554381,0.304381,-0.646677,0.191342,-0.711940,0.065263,-0.745722,0.000000,-0.745722,0.000000,-0.750000,-0.550000,-0.750000,
-0.550000,0.750000,0.000000,0.750000,0.000000,0.745722,0.000000,0.745722,$1*%
G04 Aperture macros list end*
%ADD10C,5.400000*%
%ADD11R,1.700000X1.700000*%
%ADD12O,1.700000X1.700000*%
%ADD13RoundRect,0.250000X-0.600000X-0.725000X0.600000X-0.725000X0.600000X0.725000X-0.600000X0.725000X0*%
%ADD14O,1.700000X1.950000*%
%ADD15FreePoly0,0.000000*%
%ADD16R,1.000000X1.500000*%
%ADD17FreePoly1,0.000000*%
G04 APERTURE END LIST*
%TO.C,PDWN*%
G36*
X70300000Y-97250000D02*
G01*
X71800000Y-97250000D01*
X71800000Y-95750000D01*
X70300000Y-95750000D01*
X70300000Y-97250000D01*
G37*
%TO.C,DRDY*%
G36*
X70300000Y-88500000D02*
G01*
X71800000Y-88500000D01*
X71800000Y-87000000D01*
X70300000Y-87000000D01*
X70300000Y-88500000D01*
G37*
%TO.C,CS*%
G36*
X70300000Y-106000000D02*
G01*
X71800000Y-106000000D01*
X71800000Y-104500000D01*
X70300000Y-104500000D01*
X70300000Y-106000000D01*
G37*
%TD*%
D10*
%TO.C,REF\u002A\u002A*%
X121500000Y-73500000D03*
%TD*%
D11*
%TO.C,ADS1256 Breakout*%
X63925000Y-86365000D03*
D12*
X63925000Y-88905000D03*
X63925000Y-91445000D03*
X63925000Y-93985000D03*
X63925000Y-96525000D03*
X63925000Y-99065000D03*
X63925000Y-101605000D03*
X63925000Y-104145000D03*
X118535000Y-86380000D03*
X121075000Y-86380000D03*
X118535000Y-88920000D03*
X121075000Y-88920000D03*
X118535000Y-91460000D03*
X121075000Y-91460000D03*
X118535000Y-94000000D03*
X121075000Y-94000000D03*
X118535000Y-96540000D03*
X121075000Y-96540000D03*
X118535000Y-99080000D03*
X121075000Y-99080000D03*
X118535000Y-101620000D03*
X121075000Y-101620000D03*
X118535000Y-104160000D03*
X121075000Y-104160000D03*
%TD*%
D13*
%TO.C,J1*%
X69025000Y-116250000D03*
D14*
X71525000Y-116250000D03*
X74025000Y-116250000D03*
X76525000Y-116250000D03*
%TD*%
D10*
%TO.C,REF\u002A\u002A*%
X63500000Y-73500000D03*
%TD*%
D13*
%TO.C,J4*%
X108475000Y-116250000D03*
D14*
X110975000Y-116250000D03*
X113475000Y-116250000D03*
X115975000Y-116250000D03*
%TD*%
D10*
%TO.C,REF\u002A\u002A*%
X63500000Y-122500000D03*
%TD*%
%TO.C,REF\u002A\u002A*%
X121500000Y-122500000D03*
%TD*%
D13*
%TO.C,J2*%
X82175000Y-116250000D03*
D14*
X84675000Y-116250000D03*
X87175000Y-116250000D03*
X89675000Y-116250000D03*
%TD*%
D13*
%TO.C,J3*%
X95325000Y-116250000D03*
D14*
X97825000Y-116250000D03*
X100325000Y-116250000D03*
X102825000Y-116250000D03*
%TD*%
D15*
%TO.C,PDWN*%
X69750000Y-96500000D03*
D16*
X71050000Y-96500000D03*
D17*
X72350000Y-96500000D03*
%TD*%
D15*
%TO.C,DRDY*%
X69750000Y-87750000D03*
D16*
X71050000Y-87750000D03*
D17*
X72350000Y-87750000D03*
%TD*%
D15*
%TO.C,CS*%
X69750000Y-105250000D03*
D16*
X71050000Y-105250000D03*
D17*
X72350000Y-105250000D03*
%TD*%
D11*
%TO.C,U1*%
X68365000Y-74770000D03*
D12*
X68365000Y-72230000D03*
X70905000Y-74770000D03*
X70905000Y-72230000D03*
X73445000Y-74770000D03*
X73445000Y-72230000D03*
X75985000Y-74770000D03*
X75985000Y-72230000D03*
X78525000Y-74770000D03*
X78525000Y-72230000D03*
X81065000Y-74770000D03*
X81065000Y-72230000D03*
X83605000Y-74770000D03*
X83605000Y-72230000D03*
X86145000Y-74770000D03*
X86145000Y-72230000D03*
X88685000Y-74770000D03*
X88685000Y-72230000D03*
X91225000Y-74770000D03*
X91225000Y-72230000D03*
X93765000Y-74770000D03*
X93765000Y-72230000D03*
X96305000Y-74770000D03*
X96305000Y-72230000D03*
X98845000Y-74770000D03*
X98845000Y-72230000D03*
X101385000Y-74770000D03*
X101385000Y-72230000D03*
X103925000Y-74770000D03*
X103925000Y-72230000D03*
X106465000Y-74770000D03*
X106465000Y-72230000D03*
X109005000Y-74770000D03*
X109005000Y-72230000D03*
X111545000Y-74770000D03*
X111545000Y-72230000D03*
X114085000Y-74770000D03*
X114085000Y-72230000D03*
X116625000Y-74770000D03*
X116625000Y-72230000D03*
%TD*%
M02*
