%TF.GenerationSoftware,KiCad,Pcbnew,9.0.0*%
%TF.CreationDate,2025-04-05T00:09:13-04:00*%
%TF.ProjectId,KXR_pi_hat_v0.2,4b58525f-7069-45f6-9861-745f76302e32,rev?*%
%TF.SameCoordinates,Original*%
%TF.FileFunction,Legend,Top*%
%TF.FilePolarity,Positive*%
%FSLAX46Y46*%
G04 Gerber Fmt 4.6, Leading zero omitted, Abs format (unit mm)*
G04 Created by KiCad (PCBNEW 9.0.0) date 2025-04-05 00:09:13*
%MOMM*%
%LPD*%
G01*
G04 APERTURE LIST*
G04 Aperture macros list*
%AMRoundRect*
0 Rectangle with rounded corners*
0 $1 Rounding radius*
0 $2 $3 $4 $5 $6 $7 $8 $9 X,Y pos of 4 corners*
0 Add a 4 corners polygon primitive as box body*
4,1,4,$2,$3,$4,$5,$6,$7,$8,$9,$2,$3,0*
0 Add four circle primitives for the rounded corners*
1,1,$1+$1,$2,$3*
1,1,$1+$1,$4,$5*
1,1,$1+$1,$6,$7*
1,1,$1+$1,$8,$9*
0 Add four rect primitives between the rounded corners*
20,1,$1+$1,$2,$3,$4,$5,0*
20,1,$1+$1,$4,$5,$6,$7,0*
20,1,$1+$1,$6,$7,$8,$9,0*
20,1,$1+$1,$8,$9,$2,$3,0*%
G04 Aperture macros list end*
%ADD10C,0.100000*%
%ADD11C,0.150000*%
%ADD12C,0.120000*%
%ADD13C,5.400000*%
%ADD14R,1.700000X1.700000*%
%ADD15O,1.700000X1.700000*%
%ADD16RoundRect,0.250000X-0.600000X-0.725000X0.600000X-0.725000X0.600000X0.725000X-0.600000X0.725000X0*%
%ADD17O,1.700000X1.950000*%
G04 APERTURE END LIST*
D10*
X85714285Y-95426704D02*
X86190475Y-95426704D01*
X85619047Y-95712419D02*
X85952380Y-94712419D01*
X85952380Y-94712419D02*
X86285713Y-95712419D01*
X86619047Y-95712419D02*
X86619047Y-94712419D01*
X86619047Y-94712419D02*
X86857142Y-94712419D01*
X86857142Y-94712419D02*
X86999999Y-94760038D01*
X86999999Y-94760038D02*
X87095237Y-94855276D01*
X87095237Y-94855276D02*
X87142856Y-94950514D01*
X87142856Y-94950514D02*
X87190475Y-95140990D01*
X87190475Y-95140990D02*
X87190475Y-95283847D01*
X87190475Y-95283847D02*
X87142856Y-95474323D01*
X87142856Y-95474323D02*
X87095237Y-95569561D01*
X87095237Y-95569561D02*
X86999999Y-95664800D01*
X86999999Y-95664800D02*
X86857142Y-95712419D01*
X86857142Y-95712419D02*
X86619047Y-95712419D01*
X87571428Y-95664800D02*
X87714285Y-95712419D01*
X87714285Y-95712419D02*
X87952380Y-95712419D01*
X87952380Y-95712419D02*
X88047618Y-95664800D01*
X88047618Y-95664800D02*
X88095237Y-95617180D01*
X88095237Y-95617180D02*
X88142856Y-95521942D01*
X88142856Y-95521942D02*
X88142856Y-95426704D01*
X88142856Y-95426704D02*
X88095237Y-95331466D01*
X88095237Y-95331466D02*
X88047618Y-95283847D01*
X88047618Y-95283847D02*
X87952380Y-95236228D01*
X87952380Y-95236228D02*
X87761904Y-95188609D01*
X87761904Y-95188609D02*
X87666666Y-95140990D01*
X87666666Y-95140990D02*
X87619047Y-95093371D01*
X87619047Y-95093371D02*
X87571428Y-94998133D01*
X87571428Y-94998133D02*
X87571428Y-94902895D01*
X87571428Y-94902895D02*
X87619047Y-94807657D01*
X87619047Y-94807657D02*
X87666666Y-94760038D01*
X87666666Y-94760038D02*
X87761904Y-94712419D01*
X87761904Y-94712419D02*
X87999999Y-94712419D01*
X87999999Y-94712419D02*
X88142856Y-94760038D01*
X89095237Y-95712419D02*
X88523809Y-95712419D01*
X88809523Y-95712419D02*
X88809523Y-94712419D01*
X88809523Y-94712419D02*
X88714285Y-94855276D01*
X88714285Y-94855276D02*
X88619047Y-94950514D01*
X88619047Y-94950514D02*
X88523809Y-94998133D01*
X89476190Y-94807657D02*
X89523809Y-94760038D01*
X89523809Y-94760038D02*
X89619047Y-94712419D01*
X89619047Y-94712419D02*
X89857142Y-94712419D01*
X89857142Y-94712419D02*
X89952380Y-94760038D01*
X89952380Y-94760038D02*
X89999999Y-94807657D01*
X89999999Y-94807657D02*
X90047618Y-94902895D01*
X90047618Y-94902895D02*
X90047618Y-94998133D01*
X90047618Y-94998133D02*
X89999999Y-95140990D01*
X89999999Y-95140990D02*
X89428571Y-95712419D01*
X89428571Y-95712419D02*
X90047618Y-95712419D01*
X90952380Y-94712419D02*
X90476190Y-94712419D01*
X90476190Y-94712419D02*
X90428571Y-95188609D01*
X90428571Y-95188609D02*
X90476190Y-95140990D01*
X90476190Y-95140990D02*
X90571428Y-95093371D01*
X90571428Y-95093371D02*
X90809523Y-95093371D01*
X90809523Y-95093371D02*
X90904761Y-95140990D01*
X90904761Y-95140990D02*
X90952380Y-95188609D01*
X90952380Y-95188609D02*
X90999999Y-95283847D01*
X90999999Y-95283847D02*
X90999999Y-95521942D01*
X90999999Y-95521942D02*
X90952380Y-95617180D01*
X90952380Y-95617180D02*
X90904761Y-95664800D01*
X90904761Y-95664800D02*
X90809523Y-95712419D01*
X90809523Y-95712419D02*
X90571428Y-95712419D01*
X90571428Y-95712419D02*
X90476190Y-95664800D01*
X90476190Y-95664800D02*
X90428571Y-95617180D01*
X91857142Y-94712419D02*
X91666666Y-94712419D01*
X91666666Y-94712419D02*
X91571428Y-94760038D01*
X91571428Y-94760038D02*
X91523809Y-94807657D01*
X91523809Y-94807657D02*
X91428571Y-94950514D01*
X91428571Y-94950514D02*
X91380952Y-95140990D01*
X91380952Y-95140990D02*
X91380952Y-95521942D01*
X91380952Y-95521942D02*
X91428571Y-95617180D01*
X91428571Y-95617180D02*
X91476190Y-95664800D01*
X91476190Y-95664800D02*
X91571428Y-95712419D01*
X91571428Y-95712419D02*
X91761904Y-95712419D01*
X91761904Y-95712419D02*
X91857142Y-95664800D01*
X91857142Y-95664800D02*
X91904761Y-95617180D01*
X91904761Y-95617180D02*
X91952380Y-95521942D01*
X91952380Y-95521942D02*
X91952380Y-95283847D01*
X91952380Y-95283847D02*
X91904761Y-95188609D01*
X91904761Y-95188609D02*
X91857142Y-95140990D01*
X91857142Y-95140990D02*
X91761904Y-95093371D01*
X91761904Y-95093371D02*
X91571428Y-95093371D01*
X91571428Y-95093371D02*
X91476190Y-95140990D01*
X91476190Y-95140990D02*
X91428571Y-95188609D01*
X91428571Y-95188609D02*
X91380952Y-95283847D01*
X93476190Y-95188609D02*
X93619047Y-95236228D01*
X93619047Y-95236228D02*
X93666666Y-95283847D01*
X93666666Y-95283847D02*
X93714285Y-95379085D01*
X93714285Y-95379085D02*
X93714285Y-95521942D01*
X93714285Y-95521942D02*
X93666666Y-95617180D01*
X93666666Y-95617180D02*
X93619047Y-95664800D01*
X93619047Y-95664800D02*
X93523809Y-95712419D01*
X93523809Y-95712419D02*
X93142857Y-95712419D01*
X93142857Y-95712419D02*
X93142857Y-94712419D01*
X93142857Y-94712419D02*
X93476190Y-94712419D01*
X93476190Y-94712419D02*
X93571428Y-94760038D01*
X93571428Y-94760038D02*
X93619047Y-94807657D01*
X93619047Y-94807657D02*
X93666666Y-94902895D01*
X93666666Y-94902895D02*
X93666666Y-94998133D01*
X93666666Y-94998133D02*
X93619047Y-95093371D01*
X93619047Y-95093371D02*
X93571428Y-95140990D01*
X93571428Y-95140990D02*
X93476190Y-95188609D01*
X93476190Y-95188609D02*
X93142857Y-95188609D01*
X94142857Y-95712419D02*
X94142857Y-95045752D01*
X94142857Y-95236228D02*
X94190476Y-95140990D01*
X94190476Y-95140990D02*
X94238095Y-95093371D01*
X94238095Y-95093371D02*
X94333333Y-95045752D01*
X94333333Y-95045752D02*
X94428571Y-95045752D01*
X95142857Y-95664800D02*
X95047619Y-95712419D01*
X95047619Y-95712419D02*
X94857143Y-95712419D01*
X94857143Y-95712419D02*
X94761905Y-95664800D01*
X94761905Y-95664800D02*
X94714286Y-95569561D01*
X94714286Y-95569561D02*
X94714286Y-95188609D01*
X94714286Y-95188609D02*
X94761905Y-95093371D01*
X94761905Y-95093371D02*
X94857143Y-95045752D01*
X94857143Y-95045752D02*
X95047619Y-95045752D01*
X95047619Y-95045752D02*
X95142857Y-95093371D01*
X95142857Y-95093371D02*
X95190476Y-95188609D01*
X95190476Y-95188609D02*
X95190476Y-95283847D01*
X95190476Y-95283847D02*
X94714286Y-95379085D01*
X96047619Y-95712419D02*
X96047619Y-95188609D01*
X96047619Y-95188609D02*
X96000000Y-95093371D01*
X96000000Y-95093371D02*
X95904762Y-95045752D01*
X95904762Y-95045752D02*
X95714286Y-95045752D01*
X95714286Y-95045752D02*
X95619048Y-95093371D01*
X96047619Y-95664800D02*
X95952381Y-95712419D01*
X95952381Y-95712419D02*
X95714286Y-95712419D01*
X95714286Y-95712419D02*
X95619048Y-95664800D01*
X95619048Y-95664800D02*
X95571429Y-95569561D01*
X95571429Y-95569561D02*
X95571429Y-95474323D01*
X95571429Y-95474323D02*
X95619048Y-95379085D01*
X95619048Y-95379085D02*
X95714286Y-95331466D01*
X95714286Y-95331466D02*
X95952381Y-95331466D01*
X95952381Y-95331466D02*
X96047619Y-95283847D01*
X96523810Y-95712419D02*
X96523810Y-94712419D01*
X96619048Y-95331466D02*
X96904762Y-95712419D01*
X96904762Y-95045752D02*
X96523810Y-95426704D01*
X97476191Y-95712419D02*
X97380953Y-95664800D01*
X97380953Y-95664800D02*
X97333334Y-95617180D01*
X97333334Y-95617180D02*
X97285715Y-95521942D01*
X97285715Y-95521942D02*
X97285715Y-95236228D01*
X97285715Y-95236228D02*
X97333334Y-95140990D01*
X97333334Y-95140990D02*
X97380953Y-95093371D01*
X97380953Y-95093371D02*
X97476191Y-95045752D01*
X97476191Y-95045752D02*
X97619048Y-95045752D01*
X97619048Y-95045752D02*
X97714286Y-95093371D01*
X97714286Y-95093371D02*
X97761905Y-95140990D01*
X97761905Y-95140990D02*
X97809524Y-95236228D01*
X97809524Y-95236228D02*
X97809524Y-95521942D01*
X97809524Y-95521942D02*
X97761905Y-95617180D01*
X97761905Y-95617180D02*
X97714286Y-95664800D01*
X97714286Y-95664800D02*
X97619048Y-95712419D01*
X97619048Y-95712419D02*
X97476191Y-95712419D01*
X98666667Y-95045752D02*
X98666667Y-95712419D01*
X98238096Y-95045752D02*
X98238096Y-95569561D01*
X98238096Y-95569561D02*
X98285715Y-95664800D01*
X98285715Y-95664800D02*
X98380953Y-95712419D01*
X98380953Y-95712419D02*
X98523810Y-95712419D01*
X98523810Y-95712419D02*
X98619048Y-95664800D01*
X98619048Y-95664800D02*
X98666667Y-95617180D01*
X99000001Y-95045752D02*
X99380953Y-95045752D01*
X99142858Y-94712419D02*
X99142858Y-95569561D01*
X99142858Y-95569561D02*
X99190477Y-95664800D01*
X99190477Y-95664800D02*
X99285715Y-95712419D01*
X99285715Y-95712419D02*
X99380953Y-95712419D01*
X113711265Y-104351704D02*
X114187455Y-104351704D01*
X113616027Y-104637419D02*
X113949360Y-103637419D01*
X113949360Y-103637419D02*
X114282693Y-104637419D01*
X114616027Y-104637419D02*
X114616027Y-103637419D01*
X115092217Y-104637419D02*
X115092217Y-103637419D01*
X115092217Y-103637419D02*
X115663645Y-104637419D01*
X115663645Y-104637419D02*
X115663645Y-103637419D01*
X116044598Y-103637419D02*
X116711264Y-103637419D01*
X116711264Y-103637419D02*
X116282693Y-104637419D01*
X66610074Y-85872419D02*
X66133884Y-85872419D01*
X66133884Y-85872419D02*
X66086265Y-86348609D01*
X66086265Y-86348609D02*
X66133884Y-86300990D01*
X66133884Y-86300990D02*
X66229122Y-86253371D01*
X66229122Y-86253371D02*
X66467217Y-86253371D01*
X66467217Y-86253371D02*
X66562455Y-86300990D01*
X66562455Y-86300990D02*
X66610074Y-86348609D01*
X66610074Y-86348609D02*
X66657693Y-86443847D01*
X66657693Y-86443847D02*
X66657693Y-86681942D01*
X66657693Y-86681942D02*
X66610074Y-86777180D01*
X66610074Y-86777180D02*
X66562455Y-86824800D01*
X66562455Y-86824800D02*
X66467217Y-86872419D01*
X66467217Y-86872419D02*
X66229122Y-86872419D01*
X66229122Y-86872419D02*
X66133884Y-86824800D01*
X66133884Y-86824800D02*
X66086265Y-86777180D01*
X66943408Y-85872419D02*
X67276741Y-86872419D01*
X67276741Y-86872419D02*
X67610074Y-85872419D01*
X113711265Y-91651704D02*
X114187455Y-91651704D01*
X113616027Y-91937419D02*
X113949360Y-90937419D01*
X113949360Y-90937419D02*
X114282693Y-91937419D01*
X114616027Y-91937419D02*
X114616027Y-90937419D01*
X115092217Y-91937419D02*
X115092217Y-90937419D01*
X115092217Y-90937419D02*
X115663645Y-91937419D01*
X115663645Y-91937419D02*
X115663645Y-90937419D01*
X116092217Y-91032657D02*
X116139836Y-90985038D01*
X116139836Y-90985038D02*
X116235074Y-90937419D01*
X116235074Y-90937419D02*
X116473169Y-90937419D01*
X116473169Y-90937419D02*
X116568407Y-90985038D01*
X116568407Y-90985038D02*
X116616026Y-91032657D01*
X116616026Y-91032657D02*
X116663645Y-91127895D01*
X116663645Y-91127895D02*
X116663645Y-91223133D01*
X116663645Y-91223133D02*
X116616026Y-91365990D01*
X116616026Y-91365990D02*
X116044598Y-91937419D01*
X116044598Y-91937419D02*
X116663645Y-91937419D01*
X66133884Y-99572419D02*
X66133884Y-98572419D01*
X66133884Y-98572419D02*
X66371979Y-98572419D01*
X66371979Y-98572419D02*
X66514836Y-98620038D01*
X66514836Y-98620038D02*
X66610074Y-98715276D01*
X66610074Y-98715276D02*
X66657693Y-98810514D01*
X66657693Y-98810514D02*
X66705312Y-99000990D01*
X66705312Y-99000990D02*
X66705312Y-99143847D01*
X66705312Y-99143847D02*
X66657693Y-99334323D01*
X66657693Y-99334323D02*
X66610074Y-99429561D01*
X66610074Y-99429561D02*
X66514836Y-99524800D01*
X66514836Y-99524800D02*
X66371979Y-99572419D01*
X66371979Y-99572419D02*
X66133884Y-99572419D01*
X67705312Y-99572419D02*
X67371979Y-99096228D01*
X67133884Y-99572419D02*
X67133884Y-98572419D01*
X67133884Y-98572419D02*
X67514836Y-98572419D01*
X67514836Y-98572419D02*
X67610074Y-98620038D01*
X67610074Y-98620038D02*
X67657693Y-98667657D01*
X67657693Y-98667657D02*
X67705312Y-98762895D01*
X67705312Y-98762895D02*
X67705312Y-98905752D01*
X67705312Y-98905752D02*
X67657693Y-99000990D01*
X67657693Y-99000990D02*
X67610074Y-99048609D01*
X67610074Y-99048609D02*
X67514836Y-99096228D01*
X67514836Y-99096228D02*
X67133884Y-99096228D01*
X68133884Y-99572419D02*
X68133884Y-98572419D01*
X68133884Y-98572419D02*
X68371979Y-98572419D01*
X68371979Y-98572419D02*
X68514836Y-98620038D01*
X68514836Y-98620038D02*
X68610074Y-98715276D01*
X68610074Y-98715276D02*
X68657693Y-98810514D01*
X68657693Y-98810514D02*
X68705312Y-99000990D01*
X68705312Y-99000990D02*
X68705312Y-99143847D01*
X68705312Y-99143847D02*
X68657693Y-99334323D01*
X68657693Y-99334323D02*
X68610074Y-99429561D01*
X68610074Y-99429561D02*
X68514836Y-99524800D01*
X68514836Y-99524800D02*
X68371979Y-99572419D01*
X68371979Y-99572419D02*
X68133884Y-99572419D01*
X69324360Y-99096228D02*
X69324360Y-99572419D01*
X68991027Y-98572419D02*
X69324360Y-99096228D01*
X69324360Y-99096228D02*
X69657693Y-98572419D01*
X113711265Y-94191704D02*
X114187455Y-94191704D01*
X113616027Y-94477419D02*
X113949360Y-93477419D01*
X113949360Y-93477419D02*
X114282693Y-94477419D01*
X114616027Y-94477419D02*
X114616027Y-93477419D01*
X115092217Y-94477419D02*
X115092217Y-93477419D01*
X115092217Y-93477419D02*
X115663645Y-94477419D01*
X115663645Y-94477419D02*
X115663645Y-93477419D01*
X116044598Y-93477419D02*
X116663645Y-93477419D01*
X116663645Y-93477419D02*
X116330312Y-93858371D01*
X116330312Y-93858371D02*
X116473169Y-93858371D01*
X116473169Y-93858371D02*
X116568407Y-93905990D01*
X116568407Y-93905990D02*
X116616026Y-93953609D01*
X116616026Y-93953609D02*
X116663645Y-94048847D01*
X116663645Y-94048847D02*
X116663645Y-94286942D01*
X116663645Y-94286942D02*
X116616026Y-94382180D01*
X116616026Y-94382180D02*
X116568407Y-94429800D01*
X116568407Y-94429800D02*
X116473169Y-94477419D01*
X116473169Y-94477419D02*
X116187455Y-94477419D01*
X116187455Y-94477419D02*
X116092217Y-94429800D01*
X116092217Y-94429800D02*
X116044598Y-94382180D01*
X113711265Y-96731704D02*
X114187455Y-96731704D01*
X113616027Y-97017419D02*
X113949360Y-96017419D01*
X113949360Y-96017419D02*
X114282693Y-97017419D01*
X114616027Y-97017419D02*
X114616027Y-96017419D01*
X115092217Y-97017419D02*
X115092217Y-96017419D01*
X115092217Y-96017419D02*
X115663645Y-97017419D01*
X115663645Y-97017419D02*
X115663645Y-96017419D01*
X116568407Y-96350752D02*
X116568407Y-97017419D01*
X116330312Y-95969800D02*
X116092217Y-96684085D01*
X116092217Y-96684085D02*
X116711264Y-96684085D01*
X110412693Y-85920038D02*
X110317455Y-85872419D01*
X110317455Y-85872419D02*
X110174598Y-85872419D01*
X110174598Y-85872419D02*
X110031741Y-85920038D01*
X110031741Y-85920038D02*
X109936503Y-86015276D01*
X109936503Y-86015276D02*
X109888884Y-86110514D01*
X109888884Y-86110514D02*
X109841265Y-86300990D01*
X109841265Y-86300990D02*
X109841265Y-86443847D01*
X109841265Y-86443847D02*
X109888884Y-86634323D01*
X109888884Y-86634323D02*
X109936503Y-86729561D01*
X109936503Y-86729561D02*
X110031741Y-86824800D01*
X110031741Y-86824800D02*
X110174598Y-86872419D01*
X110174598Y-86872419D02*
X110269836Y-86872419D01*
X110269836Y-86872419D02*
X110412693Y-86824800D01*
X110412693Y-86824800D02*
X110460312Y-86777180D01*
X110460312Y-86777180D02*
X110460312Y-86443847D01*
X110460312Y-86443847D02*
X110269836Y-86443847D01*
X110888884Y-86872419D02*
X110888884Y-85872419D01*
X110888884Y-85872419D02*
X111460312Y-86872419D01*
X111460312Y-86872419D02*
X111460312Y-85872419D01*
X111936503Y-86872419D02*
X111936503Y-85872419D01*
X111936503Y-85872419D02*
X112174598Y-85872419D01*
X112174598Y-85872419D02*
X112317455Y-85920038D01*
X112317455Y-85920038D02*
X112412693Y-86015276D01*
X112412693Y-86015276D02*
X112460312Y-86110514D01*
X112460312Y-86110514D02*
X112507931Y-86300990D01*
X112507931Y-86300990D02*
X112507931Y-86443847D01*
X112507931Y-86443847D02*
X112460312Y-86634323D01*
X112460312Y-86634323D02*
X112412693Y-86729561D01*
X112412693Y-86729561D02*
X112317455Y-86824800D01*
X112317455Y-86824800D02*
X112174598Y-86872419D01*
X112174598Y-86872419D02*
X111936503Y-86872419D01*
X113711265Y-101811704D02*
X114187455Y-101811704D01*
X113616027Y-102097419D02*
X113949360Y-101097419D01*
X113949360Y-101097419D02*
X114282693Y-102097419D01*
X114616027Y-102097419D02*
X114616027Y-101097419D01*
X115092217Y-102097419D02*
X115092217Y-101097419D01*
X115092217Y-101097419D02*
X115663645Y-102097419D01*
X115663645Y-102097419D02*
X115663645Y-101097419D01*
X116568407Y-101097419D02*
X116377931Y-101097419D01*
X116377931Y-101097419D02*
X116282693Y-101145038D01*
X116282693Y-101145038D02*
X116235074Y-101192657D01*
X116235074Y-101192657D02*
X116139836Y-101335514D01*
X116139836Y-101335514D02*
X116092217Y-101525990D01*
X116092217Y-101525990D02*
X116092217Y-101906942D01*
X116092217Y-101906942D02*
X116139836Y-102002180D01*
X116139836Y-102002180D02*
X116187455Y-102049800D01*
X116187455Y-102049800D02*
X116282693Y-102097419D01*
X116282693Y-102097419D02*
X116473169Y-102097419D01*
X116473169Y-102097419D02*
X116568407Y-102049800D01*
X116568407Y-102049800D02*
X116616026Y-102002180D01*
X116616026Y-102002180D02*
X116663645Y-101906942D01*
X116663645Y-101906942D02*
X116663645Y-101668847D01*
X116663645Y-101668847D02*
X116616026Y-101573609D01*
X116616026Y-101573609D02*
X116568407Y-101525990D01*
X116568407Y-101525990D02*
X116473169Y-101478371D01*
X116473169Y-101478371D02*
X116282693Y-101478371D01*
X116282693Y-101478371D02*
X116187455Y-101525990D01*
X116187455Y-101525990D02*
X116139836Y-101573609D01*
X116139836Y-101573609D02*
X116092217Y-101668847D01*
X66086265Y-91904800D02*
X66229122Y-91952419D01*
X66229122Y-91952419D02*
X66467217Y-91952419D01*
X66467217Y-91952419D02*
X66562455Y-91904800D01*
X66562455Y-91904800D02*
X66610074Y-91857180D01*
X66610074Y-91857180D02*
X66657693Y-91761942D01*
X66657693Y-91761942D02*
X66657693Y-91666704D01*
X66657693Y-91666704D02*
X66610074Y-91571466D01*
X66610074Y-91571466D02*
X66562455Y-91523847D01*
X66562455Y-91523847D02*
X66467217Y-91476228D01*
X66467217Y-91476228D02*
X66276741Y-91428609D01*
X66276741Y-91428609D02*
X66181503Y-91380990D01*
X66181503Y-91380990D02*
X66133884Y-91333371D01*
X66133884Y-91333371D02*
X66086265Y-91238133D01*
X66086265Y-91238133D02*
X66086265Y-91142895D01*
X66086265Y-91142895D02*
X66133884Y-91047657D01*
X66133884Y-91047657D02*
X66181503Y-91000038D01*
X66181503Y-91000038D02*
X66276741Y-90952419D01*
X66276741Y-90952419D02*
X66514836Y-90952419D01*
X66514836Y-90952419D02*
X66657693Y-91000038D01*
X67657693Y-91857180D02*
X67610074Y-91904800D01*
X67610074Y-91904800D02*
X67467217Y-91952419D01*
X67467217Y-91952419D02*
X67371979Y-91952419D01*
X67371979Y-91952419D02*
X67229122Y-91904800D01*
X67229122Y-91904800D02*
X67133884Y-91809561D01*
X67133884Y-91809561D02*
X67086265Y-91714323D01*
X67086265Y-91714323D02*
X67038646Y-91523847D01*
X67038646Y-91523847D02*
X67038646Y-91380990D01*
X67038646Y-91380990D02*
X67086265Y-91190514D01*
X67086265Y-91190514D02*
X67133884Y-91095276D01*
X67133884Y-91095276D02*
X67229122Y-91000038D01*
X67229122Y-91000038D02*
X67371979Y-90952419D01*
X67371979Y-90952419D02*
X67467217Y-90952419D01*
X67467217Y-90952419D02*
X67610074Y-91000038D01*
X67610074Y-91000038D02*
X67657693Y-91047657D01*
X68562455Y-91952419D02*
X68086265Y-91952419D01*
X68086265Y-91952419D02*
X68086265Y-90952419D01*
X68895789Y-91952419D02*
X68895789Y-90952419D01*
X69467217Y-91952419D02*
X69038646Y-91380990D01*
X69467217Y-90952419D02*
X68895789Y-91523847D01*
X110412693Y-101160038D02*
X110317455Y-101112419D01*
X110317455Y-101112419D02*
X110174598Y-101112419D01*
X110174598Y-101112419D02*
X110031741Y-101160038D01*
X110031741Y-101160038D02*
X109936503Y-101255276D01*
X109936503Y-101255276D02*
X109888884Y-101350514D01*
X109888884Y-101350514D02*
X109841265Y-101540990D01*
X109841265Y-101540990D02*
X109841265Y-101683847D01*
X109841265Y-101683847D02*
X109888884Y-101874323D01*
X109888884Y-101874323D02*
X109936503Y-101969561D01*
X109936503Y-101969561D02*
X110031741Y-102064800D01*
X110031741Y-102064800D02*
X110174598Y-102112419D01*
X110174598Y-102112419D02*
X110269836Y-102112419D01*
X110269836Y-102112419D02*
X110412693Y-102064800D01*
X110412693Y-102064800D02*
X110460312Y-102017180D01*
X110460312Y-102017180D02*
X110460312Y-101683847D01*
X110460312Y-101683847D02*
X110269836Y-101683847D01*
X110888884Y-102112419D02*
X110888884Y-101112419D01*
X110888884Y-101112419D02*
X111460312Y-102112419D01*
X111460312Y-102112419D02*
X111460312Y-101112419D01*
X111936503Y-102112419D02*
X111936503Y-101112419D01*
X111936503Y-101112419D02*
X112174598Y-101112419D01*
X112174598Y-101112419D02*
X112317455Y-101160038D01*
X112317455Y-101160038D02*
X112412693Y-101255276D01*
X112412693Y-101255276D02*
X112460312Y-101350514D01*
X112460312Y-101350514D02*
X112507931Y-101540990D01*
X112507931Y-101540990D02*
X112507931Y-101683847D01*
X112507931Y-101683847D02*
X112460312Y-101874323D01*
X112460312Y-101874323D02*
X112412693Y-101969561D01*
X112412693Y-101969561D02*
X112317455Y-102064800D01*
X112317455Y-102064800D02*
X112174598Y-102112419D01*
X112174598Y-102112419D02*
X111936503Y-102112419D01*
X66657693Y-88460038D02*
X66562455Y-88412419D01*
X66562455Y-88412419D02*
X66419598Y-88412419D01*
X66419598Y-88412419D02*
X66276741Y-88460038D01*
X66276741Y-88460038D02*
X66181503Y-88555276D01*
X66181503Y-88555276D02*
X66133884Y-88650514D01*
X66133884Y-88650514D02*
X66086265Y-88840990D01*
X66086265Y-88840990D02*
X66086265Y-88983847D01*
X66086265Y-88983847D02*
X66133884Y-89174323D01*
X66133884Y-89174323D02*
X66181503Y-89269561D01*
X66181503Y-89269561D02*
X66276741Y-89364800D01*
X66276741Y-89364800D02*
X66419598Y-89412419D01*
X66419598Y-89412419D02*
X66514836Y-89412419D01*
X66514836Y-89412419D02*
X66657693Y-89364800D01*
X66657693Y-89364800D02*
X66705312Y-89317180D01*
X66705312Y-89317180D02*
X66705312Y-88983847D01*
X66705312Y-88983847D02*
X66514836Y-88983847D01*
X67133884Y-89412419D02*
X67133884Y-88412419D01*
X67133884Y-88412419D02*
X67705312Y-89412419D01*
X67705312Y-89412419D02*
X67705312Y-88412419D01*
X68181503Y-89412419D02*
X68181503Y-88412419D01*
X68181503Y-88412419D02*
X68419598Y-88412419D01*
X68419598Y-88412419D02*
X68562455Y-88460038D01*
X68562455Y-88460038D02*
X68657693Y-88555276D01*
X68657693Y-88555276D02*
X68705312Y-88650514D01*
X68705312Y-88650514D02*
X68752931Y-88840990D01*
X68752931Y-88840990D02*
X68752931Y-88983847D01*
X68752931Y-88983847D02*
X68705312Y-89174323D01*
X68705312Y-89174323D02*
X68657693Y-89269561D01*
X68657693Y-89269561D02*
X68562455Y-89364800D01*
X68562455Y-89364800D02*
X68419598Y-89412419D01*
X68419598Y-89412419D02*
X68181503Y-89412419D01*
X110412693Y-91000038D02*
X110317455Y-90952419D01*
X110317455Y-90952419D02*
X110174598Y-90952419D01*
X110174598Y-90952419D02*
X110031741Y-91000038D01*
X110031741Y-91000038D02*
X109936503Y-91095276D01*
X109936503Y-91095276D02*
X109888884Y-91190514D01*
X109888884Y-91190514D02*
X109841265Y-91380990D01*
X109841265Y-91380990D02*
X109841265Y-91523847D01*
X109841265Y-91523847D02*
X109888884Y-91714323D01*
X109888884Y-91714323D02*
X109936503Y-91809561D01*
X109936503Y-91809561D02*
X110031741Y-91904800D01*
X110031741Y-91904800D02*
X110174598Y-91952419D01*
X110174598Y-91952419D02*
X110269836Y-91952419D01*
X110269836Y-91952419D02*
X110412693Y-91904800D01*
X110412693Y-91904800D02*
X110460312Y-91857180D01*
X110460312Y-91857180D02*
X110460312Y-91523847D01*
X110460312Y-91523847D02*
X110269836Y-91523847D01*
X110888884Y-91952419D02*
X110888884Y-90952419D01*
X110888884Y-90952419D02*
X111460312Y-91952419D01*
X111460312Y-91952419D02*
X111460312Y-90952419D01*
X111936503Y-91952419D02*
X111936503Y-90952419D01*
X111936503Y-90952419D02*
X112174598Y-90952419D01*
X112174598Y-90952419D02*
X112317455Y-91000038D01*
X112317455Y-91000038D02*
X112412693Y-91095276D01*
X112412693Y-91095276D02*
X112460312Y-91190514D01*
X112460312Y-91190514D02*
X112507931Y-91380990D01*
X112507931Y-91380990D02*
X112507931Y-91523847D01*
X112507931Y-91523847D02*
X112460312Y-91714323D01*
X112460312Y-91714323D02*
X112412693Y-91809561D01*
X112412693Y-91809561D02*
X112317455Y-91904800D01*
X112317455Y-91904800D02*
X112174598Y-91952419D01*
X112174598Y-91952419D02*
X111936503Y-91952419D01*
X110412693Y-88460038D02*
X110317455Y-88412419D01*
X110317455Y-88412419D02*
X110174598Y-88412419D01*
X110174598Y-88412419D02*
X110031741Y-88460038D01*
X110031741Y-88460038D02*
X109936503Y-88555276D01*
X109936503Y-88555276D02*
X109888884Y-88650514D01*
X109888884Y-88650514D02*
X109841265Y-88840990D01*
X109841265Y-88840990D02*
X109841265Y-88983847D01*
X109841265Y-88983847D02*
X109888884Y-89174323D01*
X109888884Y-89174323D02*
X109936503Y-89269561D01*
X109936503Y-89269561D02*
X110031741Y-89364800D01*
X110031741Y-89364800D02*
X110174598Y-89412419D01*
X110174598Y-89412419D02*
X110269836Y-89412419D01*
X110269836Y-89412419D02*
X110412693Y-89364800D01*
X110412693Y-89364800D02*
X110460312Y-89317180D01*
X110460312Y-89317180D02*
X110460312Y-88983847D01*
X110460312Y-88983847D02*
X110269836Y-88983847D01*
X110888884Y-89412419D02*
X110888884Y-88412419D01*
X110888884Y-88412419D02*
X111460312Y-89412419D01*
X111460312Y-89412419D02*
X111460312Y-88412419D01*
X111936503Y-89412419D02*
X111936503Y-88412419D01*
X111936503Y-88412419D02*
X112174598Y-88412419D01*
X112174598Y-88412419D02*
X112317455Y-88460038D01*
X112317455Y-88460038D02*
X112412693Y-88555276D01*
X112412693Y-88555276D02*
X112460312Y-88650514D01*
X112460312Y-88650514D02*
X112507931Y-88840990D01*
X112507931Y-88840990D02*
X112507931Y-88983847D01*
X112507931Y-88983847D02*
X112460312Y-89174323D01*
X112460312Y-89174323D02*
X112412693Y-89269561D01*
X112412693Y-89269561D02*
X112317455Y-89364800D01*
X112317455Y-89364800D02*
X112174598Y-89412419D01*
X112174598Y-89412419D02*
X111936503Y-89412419D01*
X110412693Y-96080038D02*
X110317455Y-96032419D01*
X110317455Y-96032419D02*
X110174598Y-96032419D01*
X110174598Y-96032419D02*
X110031741Y-96080038D01*
X110031741Y-96080038D02*
X109936503Y-96175276D01*
X109936503Y-96175276D02*
X109888884Y-96270514D01*
X109888884Y-96270514D02*
X109841265Y-96460990D01*
X109841265Y-96460990D02*
X109841265Y-96603847D01*
X109841265Y-96603847D02*
X109888884Y-96794323D01*
X109888884Y-96794323D02*
X109936503Y-96889561D01*
X109936503Y-96889561D02*
X110031741Y-96984800D01*
X110031741Y-96984800D02*
X110174598Y-97032419D01*
X110174598Y-97032419D02*
X110269836Y-97032419D01*
X110269836Y-97032419D02*
X110412693Y-96984800D01*
X110412693Y-96984800D02*
X110460312Y-96937180D01*
X110460312Y-96937180D02*
X110460312Y-96603847D01*
X110460312Y-96603847D02*
X110269836Y-96603847D01*
X110888884Y-97032419D02*
X110888884Y-96032419D01*
X110888884Y-96032419D02*
X111460312Y-97032419D01*
X111460312Y-97032419D02*
X111460312Y-96032419D01*
X111936503Y-97032419D02*
X111936503Y-96032419D01*
X111936503Y-96032419D02*
X112174598Y-96032419D01*
X112174598Y-96032419D02*
X112317455Y-96080038D01*
X112317455Y-96080038D02*
X112412693Y-96175276D01*
X112412693Y-96175276D02*
X112460312Y-96270514D01*
X112460312Y-96270514D02*
X112507931Y-96460990D01*
X112507931Y-96460990D02*
X112507931Y-96603847D01*
X112507931Y-96603847D02*
X112460312Y-96794323D01*
X112460312Y-96794323D02*
X112412693Y-96889561D01*
X112412693Y-96889561D02*
X112317455Y-96984800D01*
X112317455Y-96984800D02*
X112174598Y-97032419D01*
X112174598Y-97032419D02*
X111936503Y-97032419D01*
X110412693Y-93540038D02*
X110317455Y-93492419D01*
X110317455Y-93492419D02*
X110174598Y-93492419D01*
X110174598Y-93492419D02*
X110031741Y-93540038D01*
X110031741Y-93540038D02*
X109936503Y-93635276D01*
X109936503Y-93635276D02*
X109888884Y-93730514D01*
X109888884Y-93730514D02*
X109841265Y-93920990D01*
X109841265Y-93920990D02*
X109841265Y-94063847D01*
X109841265Y-94063847D02*
X109888884Y-94254323D01*
X109888884Y-94254323D02*
X109936503Y-94349561D01*
X109936503Y-94349561D02*
X110031741Y-94444800D01*
X110031741Y-94444800D02*
X110174598Y-94492419D01*
X110174598Y-94492419D02*
X110269836Y-94492419D01*
X110269836Y-94492419D02*
X110412693Y-94444800D01*
X110412693Y-94444800D02*
X110460312Y-94397180D01*
X110460312Y-94397180D02*
X110460312Y-94063847D01*
X110460312Y-94063847D02*
X110269836Y-94063847D01*
X110888884Y-94492419D02*
X110888884Y-93492419D01*
X110888884Y-93492419D02*
X111460312Y-94492419D01*
X111460312Y-94492419D02*
X111460312Y-93492419D01*
X111936503Y-94492419D02*
X111936503Y-93492419D01*
X111936503Y-93492419D02*
X112174598Y-93492419D01*
X112174598Y-93492419D02*
X112317455Y-93540038D01*
X112317455Y-93540038D02*
X112412693Y-93635276D01*
X112412693Y-93635276D02*
X112460312Y-93730514D01*
X112460312Y-93730514D02*
X112507931Y-93920990D01*
X112507931Y-93920990D02*
X112507931Y-94063847D01*
X112507931Y-94063847D02*
X112460312Y-94254323D01*
X112460312Y-94254323D02*
X112412693Y-94349561D01*
X112412693Y-94349561D02*
X112317455Y-94444800D01*
X112317455Y-94444800D02*
X112174598Y-94492419D01*
X112174598Y-94492419D02*
X111936503Y-94492419D01*
X110412693Y-98620038D02*
X110317455Y-98572419D01*
X110317455Y-98572419D02*
X110174598Y-98572419D01*
X110174598Y-98572419D02*
X110031741Y-98620038D01*
X110031741Y-98620038D02*
X109936503Y-98715276D01*
X109936503Y-98715276D02*
X109888884Y-98810514D01*
X109888884Y-98810514D02*
X109841265Y-99000990D01*
X109841265Y-99000990D02*
X109841265Y-99143847D01*
X109841265Y-99143847D02*
X109888884Y-99334323D01*
X109888884Y-99334323D02*
X109936503Y-99429561D01*
X109936503Y-99429561D02*
X110031741Y-99524800D01*
X110031741Y-99524800D02*
X110174598Y-99572419D01*
X110174598Y-99572419D02*
X110269836Y-99572419D01*
X110269836Y-99572419D02*
X110412693Y-99524800D01*
X110412693Y-99524800D02*
X110460312Y-99477180D01*
X110460312Y-99477180D02*
X110460312Y-99143847D01*
X110460312Y-99143847D02*
X110269836Y-99143847D01*
X110888884Y-99572419D02*
X110888884Y-98572419D01*
X110888884Y-98572419D02*
X111460312Y-99572419D01*
X111460312Y-99572419D02*
X111460312Y-98572419D01*
X111936503Y-99572419D02*
X111936503Y-98572419D01*
X111936503Y-98572419D02*
X112174598Y-98572419D01*
X112174598Y-98572419D02*
X112317455Y-98620038D01*
X112317455Y-98620038D02*
X112412693Y-98715276D01*
X112412693Y-98715276D02*
X112460312Y-98810514D01*
X112460312Y-98810514D02*
X112507931Y-99000990D01*
X112507931Y-99000990D02*
X112507931Y-99143847D01*
X112507931Y-99143847D02*
X112460312Y-99334323D01*
X112460312Y-99334323D02*
X112412693Y-99429561D01*
X112412693Y-99429561D02*
X112317455Y-99524800D01*
X112317455Y-99524800D02*
X112174598Y-99572419D01*
X112174598Y-99572419D02*
X111936503Y-99572419D01*
X110412693Y-103700038D02*
X110317455Y-103652419D01*
X110317455Y-103652419D02*
X110174598Y-103652419D01*
X110174598Y-103652419D02*
X110031741Y-103700038D01*
X110031741Y-103700038D02*
X109936503Y-103795276D01*
X109936503Y-103795276D02*
X109888884Y-103890514D01*
X109888884Y-103890514D02*
X109841265Y-104080990D01*
X109841265Y-104080990D02*
X109841265Y-104223847D01*
X109841265Y-104223847D02*
X109888884Y-104414323D01*
X109888884Y-104414323D02*
X109936503Y-104509561D01*
X109936503Y-104509561D02*
X110031741Y-104604800D01*
X110031741Y-104604800D02*
X110174598Y-104652419D01*
X110174598Y-104652419D02*
X110269836Y-104652419D01*
X110269836Y-104652419D02*
X110412693Y-104604800D01*
X110412693Y-104604800D02*
X110460312Y-104557180D01*
X110460312Y-104557180D02*
X110460312Y-104223847D01*
X110460312Y-104223847D02*
X110269836Y-104223847D01*
X110888884Y-104652419D02*
X110888884Y-103652419D01*
X110888884Y-103652419D02*
X111460312Y-104652419D01*
X111460312Y-104652419D02*
X111460312Y-103652419D01*
X111936503Y-104652419D02*
X111936503Y-103652419D01*
X111936503Y-103652419D02*
X112174598Y-103652419D01*
X112174598Y-103652419D02*
X112317455Y-103700038D01*
X112317455Y-103700038D02*
X112412693Y-103795276D01*
X112412693Y-103795276D02*
X112460312Y-103890514D01*
X112460312Y-103890514D02*
X112507931Y-104080990D01*
X112507931Y-104080990D02*
X112507931Y-104223847D01*
X112507931Y-104223847D02*
X112460312Y-104414323D01*
X112460312Y-104414323D02*
X112412693Y-104509561D01*
X112412693Y-104509561D02*
X112317455Y-104604800D01*
X112317455Y-104604800D02*
X112174598Y-104652419D01*
X112174598Y-104652419D02*
X111936503Y-104652419D01*
X113711265Y-99271704D02*
X114187455Y-99271704D01*
X113616027Y-99557419D02*
X113949360Y-98557419D01*
X113949360Y-98557419D02*
X114282693Y-99557419D01*
X114616027Y-99557419D02*
X114616027Y-98557419D01*
X115092217Y-99557419D02*
X115092217Y-98557419D01*
X115092217Y-98557419D02*
X115663645Y-99557419D01*
X115663645Y-99557419D02*
X115663645Y-98557419D01*
X116616026Y-98557419D02*
X116139836Y-98557419D01*
X116139836Y-98557419D02*
X116092217Y-99033609D01*
X116092217Y-99033609D02*
X116139836Y-98985990D01*
X116139836Y-98985990D02*
X116235074Y-98938371D01*
X116235074Y-98938371D02*
X116473169Y-98938371D01*
X116473169Y-98938371D02*
X116568407Y-98985990D01*
X116568407Y-98985990D02*
X116616026Y-99033609D01*
X116616026Y-99033609D02*
X116663645Y-99128847D01*
X116663645Y-99128847D02*
X116663645Y-99366942D01*
X116663645Y-99366942D02*
X116616026Y-99462180D01*
X116616026Y-99462180D02*
X116568407Y-99509800D01*
X116568407Y-99509800D02*
X116473169Y-99557419D01*
X116473169Y-99557419D02*
X116235074Y-99557419D01*
X116235074Y-99557419D02*
X116139836Y-99509800D01*
X116139836Y-99509800D02*
X116092217Y-99462180D01*
X113711265Y-86571704D02*
X114187455Y-86571704D01*
X113616027Y-86857419D02*
X113949360Y-85857419D01*
X113949360Y-85857419D02*
X114282693Y-86857419D01*
X114616027Y-86857419D02*
X114616027Y-85857419D01*
X115092217Y-86857419D02*
X115092217Y-85857419D01*
X115092217Y-85857419D02*
X115663645Y-86857419D01*
X115663645Y-86857419D02*
X115663645Y-85857419D01*
X116330312Y-85857419D02*
X116425550Y-85857419D01*
X116425550Y-85857419D02*
X116520788Y-85905038D01*
X116520788Y-85905038D02*
X116568407Y-85952657D01*
X116568407Y-85952657D02*
X116616026Y-86047895D01*
X116616026Y-86047895D02*
X116663645Y-86238371D01*
X116663645Y-86238371D02*
X116663645Y-86476466D01*
X116663645Y-86476466D02*
X116616026Y-86666942D01*
X116616026Y-86666942D02*
X116568407Y-86762180D01*
X116568407Y-86762180D02*
X116520788Y-86809800D01*
X116520788Y-86809800D02*
X116425550Y-86857419D01*
X116425550Y-86857419D02*
X116330312Y-86857419D01*
X116330312Y-86857419D02*
X116235074Y-86809800D01*
X116235074Y-86809800D02*
X116187455Y-86762180D01*
X116187455Y-86762180D02*
X116139836Y-86666942D01*
X116139836Y-86666942D02*
X116092217Y-86476466D01*
X116092217Y-86476466D02*
X116092217Y-86238371D01*
X116092217Y-86238371D02*
X116139836Y-86047895D01*
X116139836Y-86047895D02*
X116187455Y-85952657D01*
X116187455Y-85952657D02*
X116235074Y-85905038D01*
X116235074Y-85905038D02*
X116330312Y-85857419D01*
X113711265Y-89111704D02*
X114187455Y-89111704D01*
X113616027Y-89397419D02*
X113949360Y-88397419D01*
X113949360Y-88397419D02*
X114282693Y-89397419D01*
X114616027Y-89397419D02*
X114616027Y-88397419D01*
X115092217Y-89397419D02*
X115092217Y-88397419D01*
X115092217Y-88397419D02*
X115663645Y-89397419D01*
X115663645Y-89397419D02*
X115663645Y-88397419D01*
X116663645Y-89397419D02*
X116092217Y-89397419D01*
X116377931Y-89397419D02*
X116377931Y-88397419D01*
X116377931Y-88397419D02*
X116282693Y-88540276D01*
X116282693Y-88540276D02*
X116187455Y-88635514D01*
X116187455Y-88635514D02*
X116092217Y-88683133D01*
X66705312Y-102017180D02*
X66657693Y-102064800D01*
X66657693Y-102064800D02*
X66514836Y-102112419D01*
X66514836Y-102112419D02*
X66419598Y-102112419D01*
X66419598Y-102112419D02*
X66276741Y-102064800D01*
X66276741Y-102064800D02*
X66181503Y-101969561D01*
X66181503Y-101969561D02*
X66133884Y-101874323D01*
X66133884Y-101874323D02*
X66086265Y-101683847D01*
X66086265Y-101683847D02*
X66086265Y-101540990D01*
X66086265Y-101540990D02*
X66133884Y-101350514D01*
X66133884Y-101350514D02*
X66181503Y-101255276D01*
X66181503Y-101255276D02*
X66276741Y-101160038D01*
X66276741Y-101160038D02*
X66419598Y-101112419D01*
X66419598Y-101112419D02*
X66514836Y-101112419D01*
X66514836Y-101112419D02*
X66657693Y-101160038D01*
X66657693Y-101160038D02*
X66705312Y-101207657D01*
X67086265Y-102064800D02*
X67229122Y-102112419D01*
X67229122Y-102112419D02*
X67467217Y-102112419D01*
X67467217Y-102112419D02*
X67562455Y-102064800D01*
X67562455Y-102064800D02*
X67610074Y-102017180D01*
X67610074Y-102017180D02*
X67657693Y-101921942D01*
X67657693Y-101921942D02*
X67657693Y-101826704D01*
X67657693Y-101826704D02*
X67610074Y-101731466D01*
X67610074Y-101731466D02*
X67562455Y-101683847D01*
X67562455Y-101683847D02*
X67467217Y-101636228D01*
X67467217Y-101636228D02*
X67276741Y-101588609D01*
X67276741Y-101588609D02*
X67181503Y-101540990D01*
X67181503Y-101540990D02*
X67133884Y-101493371D01*
X67133884Y-101493371D02*
X67086265Y-101398133D01*
X67086265Y-101398133D02*
X67086265Y-101302895D01*
X67086265Y-101302895D02*
X67133884Y-101207657D01*
X67133884Y-101207657D02*
X67181503Y-101160038D01*
X67181503Y-101160038D02*
X67276741Y-101112419D01*
X67276741Y-101112419D02*
X67514836Y-101112419D01*
X67514836Y-101112419D02*
X67657693Y-101160038D01*
X66133884Y-104652419D02*
X66133884Y-103652419D01*
X66133884Y-103652419D02*
X66514836Y-103652419D01*
X66514836Y-103652419D02*
X66610074Y-103700038D01*
X66610074Y-103700038D02*
X66657693Y-103747657D01*
X66657693Y-103747657D02*
X66705312Y-103842895D01*
X66705312Y-103842895D02*
X66705312Y-103985752D01*
X66705312Y-103985752D02*
X66657693Y-104080990D01*
X66657693Y-104080990D02*
X66610074Y-104128609D01*
X66610074Y-104128609D02*
X66514836Y-104176228D01*
X66514836Y-104176228D02*
X66133884Y-104176228D01*
X67133884Y-104652419D02*
X67133884Y-103652419D01*
X67133884Y-103652419D02*
X67371979Y-103652419D01*
X67371979Y-103652419D02*
X67514836Y-103700038D01*
X67514836Y-103700038D02*
X67610074Y-103795276D01*
X67610074Y-103795276D02*
X67657693Y-103890514D01*
X67657693Y-103890514D02*
X67705312Y-104080990D01*
X67705312Y-104080990D02*
X67705312Y-104223847D01*
X67705312Y-104223847D02*
X67657693Y-104414323D01*
X67657693Y-104414323D02*
X67610074Y-104509561D01*
X67610074Y-104509561D02*
X67514836Y-104604800D01*
X67514836Y-104604800D02*
X67371979Y-104652419D01*
X67371979Y-104652419D02*
X67133884Y-104652419D01*
X68038646Y-103652419D02*
X68276741Y-104652419D01*
X68276741Y-104652419D02*
X68467217Y-103938133D01*
X68467217Y-103938133D02*
X68657693Y-104652419D01*
X68657693Y-104652419D02*
X68895789Y-103652419D01*
X69276741Y-104652419D02*
X69276741Y-103652419D01*
X69276741Y-103652419D02*
X69848169Y-104652419D01*
X69848169Y-104652419D02*
X69848169Y-103652419D01*
X66133884Y-94492419D02*
X66133884Y-93492419D01*
X66133884Y-93492419D02*
X66371979Y-93492419D01*
X66371979Y-93492419D02*
X66514836Y-93540038D01*
X66514836Y-93540038D02*
X66610074Y-93635276D01*
X66610074Y-93635276D02*
X66657693Y-93730514D01*
X66657693Y-93730514D02*
X66705312Y-93920990D01*
X66705312Y-93920990D02*
X66705312Y-94063847D01*
X66705312Y-94063847D02*
X66657693Y-94254323D01*
X66657693Y-94254323D02*
X66610074Y-94349561D01*
X66610074Y-94349561D02*
X66514836Y-94444800D01*
X66514836Y-94444800D02*
X66371979Y-94492419D01*
X66371979Y-94492419D02*
X66133884Y-94492419D01*
X67133884Y-94492419D02*
X67133884Y-93492419D01*
X67610074Y-94492419D02*
X67610074Y-93492419D01*
X67610074Y-93492419D02*
X68181502Y-94492419D01*
X68181502Y-94492419D02*
X68181502Y-93492419D01*
X66133884Y-97032419D02*
X66133884Y-96032419D01*
X66133884Y-96032419D02*
X66371979Y-96032419D01*
X66371979Y-96032419D02*
X66514836Y-96080038D01*
X66514836Y-96080038D02*
X66610074Y-96175276D01*
X66610074Y-96175276D02*
X66657693Y-96270514D01*
X66657693Y-96270514D02*
X66705312Y-96460990D01*
X66705312Y-96460990D02*
X66705312Y-96603847D01*
X66705312Y-96603847D02*
X66657693Y-96794323D01*
X66657693Y-96794323D02*
X66610074Y-96889561D01*
X66610074Y-96889561D02*
X66514836Y-96984800D01*
X66514836Y-96984800D02*
X66371979Y-97032419D01*
X66371979Y-97032419D02*
X66133884Y-97032419D01*
X67324360Y-96032419D02*
X67514836Y-96032419D01*
X67514836Y-96032419D02*
X67610074Y-96080038D01*
X67610074Y-96080038D02*
X67705312Y-96175276D01*
X67705312Y-96175276D02*
X67752931Y-96365752D01*
X67752931Y-96365752D02*
X67752931Y-96699085D01*
X67752931Y-96699085D02*
X67705312Y-96889561D01*
X67705312Y-96889561D02*
X67610074Y-96984800D01*
X67610074Y-96984800D02*
X67514836Y-97032419D01*
X67514836Y-97032419D02*
X67324360Y-97032419D01*
X67324360Y-97032419D02*
X67229122Y-96984800D01*
X67229122Y-96984800D02*
X67133884Y-96889561D01*
X67133884Y-96889561D02*
X67086265Y-96699085D01*
X67086265Y-96699085D02*
X67086265Y-96365752D01*
X67086265Y-96365752D02*
X67133884Y-96175276D01*
X67133884Y-96175276D02*
X67229122Y-96080038D01*
X67229122Y-96080038D02*
X67324360Y-96032419D01*
X68181503Y-96032419D02*
X68181503Y-96841942D01*
X68181503Y-96841942D02*
X68229122Y-96937180D01*
X68229122Y-96937180D02*
X68276741Y-96984800D01*
X68276741Y-96984800D02*
X68371979Y-97032419D01*
X68371979Y-97032419D02*
X68562455Y-97032419D01*
X68562455Y-97032419D02*
X68657693Y-96984800D01*
X68657693Y-96984800D02*
X68705312Y-96937180D01*
X68705312Y-96937180D02*
X68752931Y-96841942D01*
X68752931Y-96841942D02*
X68752931Y-96032419D01*
X69086265Y-96032419D02*
X69657693Y-96032419D01*
X69371979Y-97032419D02*
X69371979Y-96032419D01*
D11*
X72216666Y-113454819D02*
X72216666Y-114169104D01*
X72216666Y-114169104D02*
X72169047Y-114311961D01*
X72169047Y-114311961D02*
X72073809Y-114407200D01*
X72073809Y-114407200D02*
X71930952Y-114454819D01*
X71930952Y-114454819D02*
X71835714Y-114454819D01*
X73216666Y-114454819D02*
X72645238Y-114454819D01*
X72930952Y-114454819D02*
X72930952Y-113454819D01*
X72930952Y-113454819D02*
X72835714Y-113597676D01*
X72835714Y-113597676D02*
X72740476Y-113692914D01*
X72740476Y-113692914D02*
X72645238Y-113740533D01*
X111666666Y-113454819D02*
X111666666Y-114169104D01*
X111666666Y-114169104D02*
X111619047Y-114311961D01*
X111619047Y-114311961D02*
X111523809Y-114407200D01*
X111523809Y-114407200D02*
X111380952Y-114454819D01*
X111380952Y-114454819D02*
X111285714Y-114454819D01*
X112571428Y-113788152D02*
X112571428Y-114454819D01*
X112333333Y-113407200D02*
X112095238Y-114121485D01*
X112095238Y-114121485D02*
X112714285Y-114121485D01*
X85366666Y-113454819D02*
X85366666Y-114169104D01*
X85366666Y-114169104D02*
X85319047Y-114311961D01*
X85319047Y-114311961D02*
X85223809Y-114407200D01*
X85223809Y-114407200D02*
X85080952Y-114454819D01*
X85080952Y-114454819D02*
X84985714Y-114454819D01*
X85795238Y-113550057D02*
X85842857Y-113502438D01*
X85842857Y-113502438D02*
X85938095Y-113454819D01*
X85938095Y-113454819D02*
X86176190Y-113454819D01*
X86176190Y-113454819D02*
X86271428Y-113502438D01*
X86271428Y-113502438D02*
X86319047Y-113550057D01*
X86319047Y-113550057D02*
X86366666Y-113645295D01*
X86366666Y-113645295D02*
X86366666Y-113740533D01*
X86366666Y-113740533D02*
X86319047Y-113883390D01*
X86319047Y-113883390D02*
X85747619Y-114454819D01*
X85747619Y-114454819D02*
X86366666Y-114454819D01*
X98516666Y-113454819D02*
X98516666Y-114169104D01*
X98516666Y-114169104D02*
X98469047Y-114311961D01*
X98469047Y-114311961D02*
X98373809Y-114407200D01*
X98373809Y-114407200D02*
X98230952Y-114454819D01*
X98230952Y-114454819D02*
X98135714Y-114454819D01*
X98897619Y-113454819D02*
X99516666Y-113454819D01*
X99516666Y-113454819D02*
X99183333Y-113835771D01*
X99183333Y-113835771D02*
X99326190Y-113835771D01*
X99326190Y-113835771D02*
X99421428Y-113883390D01*
X99421428Y-113883390D02*
X99469047Y-113931009D01*
X99469047Y-113931009D02*
X99516666Y-114026247D01*
X99516666Y-114026247D02*
X99516666Y-114264342D01*
X99516666Y-114264342D02*
X99469047Y-114359580D01*
X99469047Y-114359580D02*
X99421428Y-114407200D01*
X99421428Y-114407200D02*
X99326190Y-114454819D01*
X99326190Y-114454819D02*
X99040476Y-114454819D01*
X99040476Y-114454819D02*
X98945238Y-114407200D01*
X98945238Y-114407200D02*
X98897619Y-114359580D01*
%TO.C,ADS1256 Breakout*%
D10*
X62020000Y-77475000D02*
X122980000Y-77475000D01*
X122980000Y-113035000D01*
X62020000Y-113035000D01*
X62020000Y-77475000D01*
D12*
%TO.C,J1*%
X66465000Y-113840000D02*
X67885000Y-113840000D01*
X66465000Y-125560000D02*
X66465000Y-113840000D01*
X67885000Y-113840000D02*
X67885000Y-118340000D01*
X67885000Y-118340000D02*
X72775000Y-118340000D01*
X68725000Y-114150000D02*
X69325000Y-114150000D01*
X68775000Y-119450000D02*
X68775000Y-124950000D01*
X68775000Y-124950000D02*
X69275000Y-124950000D01*
X69025000Y-114750000D02*
X68725000Y-114150000D01*
X69275000Y-119450000D02*
X68775000Y-119450000D01*
X69275000Y-124950000D02*
X69275000Y-119450000D01*
X69325000Y-114150000D02*
X69025000Y-114750000D01*
X71275000Y-119450000D02*
X71275000Y-124950000D01*
X71275000Y-124950000D02*
X71775000Y-124950000D01*
X71775000Y-119450000D02*
X71275000Y-119450000D01*
X71775000Y-124950000D02*
X71775000Y-119450000D01*
X72775000Y-125560000D02*
X66465000Y-125560000D01*
X72775000Y-125560000D02*
X79085000Y-125560000D01*
X73775000Y-119450000D02*
X73775000Y-124950000D01*
X73775000Y-124950000D02*
X74275000Y-124950000D01*
X74275000Y-119450000D02*
X73775000Y-119450000D01*
X74275000Y-124950000D02*
X74275000Y-119450000D01*
X76275000Y-119450000D02*
X76275000Y-124950000D01*
X76275000Y-124950000D02*
X76775000Y-124950000D01*
X76775000Y-119450000D02*
X76275000Y-119450000D01*
X76775000Y-124950000D02*
X76775000Y-119450000D01*
X77665000Y-113840000D02*
X77665000Y-118340000D01*
X77665000Y-118340000D02*
X72775000Y-118340000D01*
X79085000Y-113840000D02*
X77665000Y-113840000D01*
X79085000Y-125560000D02*
X79085000Y-113840000D01*
%TO.C,J4*%
X105915000Y-113840000D02*
X107335000Y-113840000D01*
X105915000Y-125560000D02*
X105915000Y-113840000D01*
X107335000Y-113840000D02*
X107335000Y-118340000D01*
X107335000Y-118340000D02*
X112225000Y-118340000D01*
X108175000Y-114150000D02*
X108775000Y-114150000D01*
X108225000Y-119450000D02*
X108225000Y-124950000D01*
X108225000Y-124950000D02*
X108725000Y-124950000D01*
X108475000Y-114750000D02*
X108175000Y-114150000D01*
X108725000Y-119450000D02*
X108225000Y-119450000D01*
X108725000Y-124950000D02*
X108725000Y-119450000D01*
X108775000Y-114150000D02*
X108475000Y-114750000D01*
X110725000Y-119450000D02*
X110725000Y-124950000D01*
X110725000Y-124950000D02*
X111225000Y-124950000D01*
X111225000Y-119450000D02*
X110725000Y-119450000D01*
X111225000Y-124950000D02*
X111225000Y-119450000D01*
X112225000Y-125560000D02*
X105915000Y-125560000D01*
X112225000Y-125560000D02*
X118535000Y-125560000D01*
X113225000Y-119450000D02*
X113225000Y-124950000D01*
X113225000Y-124950000D02*
X113725000Y-124950000D01*
X113725000Y-119450000D02*
X113225000Y-119450000D01*
X113725000Y-124950000D02*
X113725000Y-119450000D01*
X115725000Y-119450000D02*
X115725000Y-124950000D01*
X115725000Y-124950000D02*
X116225000Y-124950000D01*
X116225000Y-119450000D02*
X115725000Y-119450000D01*
X116225000Y-124950000D02*
X116225000Y-119450000D01*
X117115000Y-113840000D02*
X117115000Y-118340000D01*
X117115000Y-118340000D02*
X112225000Y-118340000D01*
X118535000Y-113840000D02*
X117115000Y-113840000D01*
X118535000Y-125560000D02*
X118535000Y-113840000D01*
%TO.C,J2*%
X79615000Y-113840000D02*
X81035000Y-113840000D01*
X79615000Y-125560000D02*
X79615000Y-113840000D01*
X81035000Y-113840000D02*
X81035000Y-118340000D01*
X81035000Y-118340000D02*
X85925000Y-118340000D01*
X81875000Y-114150000D02*
X82475000Y-114150000D01*
X81925000Y-119450000D02*
X81925000Y-124950000D01*
X81925000Y-124950000D02*
X82425000Y-124950000D01*
X82175000Y-114750000D02*
X81875000Y-114150000D01*
X82425000Y-119450000D02*
X81925000Y-119450000D01*
X82425000Y-124950000D02*
X82425000Y-119450000D01*
X82475000Y-114150000D02*
X82175000Y-114750000D01*
X84425000Y-119450000D02*
X84425000Y-124950000D01*
X84425000Y-124950000D02*
X84925000Y-124950000D01*
X84925000Y-119450000D02*
X84425000Y-119450000D01*
X84925000Y-124950000D02*
X84925000Y-119450000D01*
X85925000Y-125560000D02*
X79615000Y-125560000D01*
X85925000Y-125560000D02*
X92235000Y-125560000D01*
X86925000Y-119450000D02*
X86925000Y-124950000D01*
X86925000Y-124950000D02*
X87425000Y-124950000D01*
X87425000Y-119450000D02*
X86925000Y-119450000D01*
X87425000Y-124950000D02*
X87425000Y-119450000D01*
X89425000Y-119450000D02*
X89425000Y-124950000D01*
X89425000Y-124950000D02*
X89925000Y-124950000D01*
X89925000Y-119450000D02*
X89425000Y-119450000D01*
X89925000Y-124950000D02*
X89925000Y-119450000D01*
X90815000Y-113840000D02*
X90815000Y-118340000D01*
X90815000Y-118340000D02*
X85925000Y-118340000D01*
X92235000Y-113840000D02*
X90815000Y-113840000D01*
X92235000Y-125560000D02*
X92235000Y-113840000D01*
%TO.C,J3*%
X92765000Y-113840000D02*
X94185000Y-113840000D01*
X92765000Y-125560000D02*
X92765000Y-113840000D01*
X94185000Y-113840000D02*
X94185000Y-118340000D01*
X94185000Y-118340000D02*
X99075000Y-118340000D01*
X95025000Y-114150000D02*
X95625000Y-114150000D01*
X95075000Y-119450000D02*
X95075000Y-124950000D01*
X95075000Y-124950000D02*
X95575000Y-124950000D01*
X95325000Y-114750000D02*
X95025000Y-114150000D01*
X95575000Y-119450000D02*
X95075000Y-119450000D01*
X95575000Y-124950000D02*
X95575000Y-119450000D01*
X95625000Y-114150000D02*
X95325000Y-114750000D01*
X97575000Y-119450000D02*
X97575000Y-124950000D01*
X97575000Y-124950000D02*
X98075000Y-124950000D01*
X98075000Y-119450000D02*
X97575000Y-119450000D01*
X98075000Y-124950000D02*
X98075000Y-119450000D01*
X99075000Y-125560000D02*
X92765000Y-125560000D01*
X99075000Y-125560000D02*
X105385000Y-125560000D01*
X100075000Y-119450000D02*
X100075000Y-124950000D01*
X100075000Y-124950000D02*
X100575000Y-124950000D01*
X100575000Y-119450000D02*
X100075000Y-119450000D01*
X100575000Y-124950000D02*
X100575000Y-119450000D01*
X102575000Y-119450000D02*
X102575000Y-124950000D01*
X102575000Y-124950000D02*
X103075000Y-124950000D01*
X103075000Y-119450000D02*
X102575000Y-119450000D01*
X103075000Y-124950000D02*
X103075000Y-119450000D01*
X103965000Y-113840000D02*
X103965000Y-118340000D01*
X103965000Y-118340000D02*
X99075000Y-118340000D01*
X105385000Y-113840000D02*
X103965000Y-113840000D01*
X105385000Y-125560000D02*
X105385000Y-113840000D01*
%TD*%
%LPC*%
D13*
%TO.C,REF\u002A\u002A*%
X121500000Y-73500000D03*
%TD*%
D14*
%TO.C,ADS1256 Breakout*%
X63925000Y-86365000D03*
D15*
X63925000Y-88905000D03*
X63925000Y-91445000D03*
X63925000Y-93985000D03*
X63925000Y-96525000D03*
X63925000Y-99065000D03*
X63925000Y-101605000D03*
X63925000Y-104145000D03*
X118535000Y-86380000D03*
X121075000Y-86380000D03*
X118535000Y-88920000D03*
X121075000Y-88920000D03*
X118535000Y-91460000D03*
X121075000Y-91460000D03*
X118535000Y-94000000D03*
X121075000Y-94000000D03*
X118535000Y-96540000D03*
X121075000Y-96540000D03*
X118535000Y-99080000D03*
X121075000Y-99080000D03*
X118535000Y-101620000D03*
X121075000Y-101620000D03*
X118535000Y-104160000D03*
X121075000Y-104160000D03*
%TD*%
D16*
%TO.C,J1*%
X69025000Y-116250000D03*
D17*
X71525000Y-116250000D03*
X74025000Y-116250000D03*
X76525000Y-116250000D03*
%TD*%
D13*
%TO.C,REF\u002A\u002A*%
X63500000Y-73500000D03*
%TD*%
D16*
%TO.C,J4*%
X108475000Y-116250000D03*
D17*
X110975000Y-116250000D03*
X113475000Y-116250000D03*
X115975000Y-116250000D03*
%TD*%
D13*
%TO.C,REF\u002A\u002A*%
X63500000Y-122500000D03*
%TD*%
%TO.C,REF\u002A\u002A*%
X121500000Y-122500000D03*
%TD*%
D16*
%TO.C,J2*%
X82175000Y-116250000D03*
D17*
X84675000Y-116250000D03*
X87175000Y-116250000D03*
X89675000Y-116250000D03*
%TD*%
D16*
%TO.C,J3*%
X95325000Y-116250000D03*
D17*
X97825000Y-116250000D03*
X100325000Y-116250000D03*
X102825000Y-116250000D03*
%TD*%
D14*
%TO.C,U1*%
X68365000Y-74770000D03*
D15*
X68365000Y-72230000D03*
X70905000Y-74770000D03*
X70905000Y-72230000D03*
X73445000Y-74770000D03*
X73445000Y-72230000D03*
X75985000Y-74770000D03*
X75985000Y-72230000D03*
X78525000Y-74770000D03*
X78525000Y-72230000D03*
X81065000Y-74770000D03*
X81065000Y-72230000D03*
X83605000Y-74770000D03*
X83605000Y-72230000D03*
X86145000Y-74770000D03*
X86145000Y-72230000D03*
X88685000Y-74770000D03*
X88685000Y-72230000D03*
X91225000Y-74770000D03*
X91225000Y-72230000D03*
X93765000Y-74770000D03*
X93765000Y-72230000D03*
X96305000Y-74770000D03*
X96305000Y-72230000D03*
X98845000Y-74770000D03*
X98845000Y-72230000D03*
X101385000Y-74770000D03*
X101385000Y-72230000D03*
X103925000Y-74770000D03*
X103925000Y-72230000D03*
X106465000Y-74770000D03*
X106465000Y-72230000D03*
X109005000Y-74770000D03*
X109005000Y-72230000D03*
X111545000Y-74770000D03*
X111545000Y-72230000D03*
X114085000Y-74770000D03*
X114085000Y-72230000D03*
X116625000Y-74770000D03*
X116625000Y-72230000D03*
%TD*%
%LPD*%
M02*
