%TF.GenerationSoftware,KiCad,Pcbnew,9.0.0*%
%TF.CreationDate,2025-04-05T00:09:13-04:00*%
%TF.ProjectId,KXR_pi_hat_v0.2,4b58525f-7069-45f6-9861-745f76302e32,rev?*%
%TF.SameCoordinates,Original*%
%TF.FileFunction,Copper,L1,Top*%
%TF.FilePolarity,Positive*%
%FSLAX46Y46*%
G04 Gerber Fmt 4.6, Leading zero omitted, Abs format (unit mm)*
G04 Created by KiCad (PCBNEW 9.0.0) date 2025-04-05 00:09:13*
%MOMM*%
%LPD*%
G01*
G04 APERTURE LIST*
G04 Aperture macros list*
%AMRoundRect*
0 Rectangle with rounded corners*
0 $1 Rounding radius*
0 $2 $3 $4 $5 $6 $7 $8 $9 X,Y pos of 4 corners*
0 Add a 4 corners polygon primitive as box body*
4,1,4,$2,$3,$4,$5,$6,$7,$8,$9,$2,$3,0*
0 Add four circle primitives for the rounded corners*
1,1,$1+$1,$2,$3*
1,1,$1+$1,$4,$5*
1,1,$1+$1,$6,$7*
1,1,$1+$1,$8,$9*
0 Add four rect primitives between the rounded corners*
20,1,$1+$1,$2,$3,$4,$5,0*
20,1,$1+$1,$4,$5,$6,$7,0*
20,1,$1+$1,$6,$7,$8,$9,0*
20,1,$1+$1,$8,$9,$2,$3,0*%
G04 Aperture macros list end*
%TA.AperFunction,ComponentPad*%
%ADD10C,5.400000*%
%TD*%
%TA.AperFunction,ComponentPad*%
%ADD11R,1.700000X1.700000*%
%TD*%
%TA.AperFunction,ComponentPad*%
%ADD12O,1.700000X1.700000*%
%TD*%
%TA.AperFunction,ComponentPad*%
%ADD13RoundRect,0.250000X-0.600000X-0.725000X0.600000X-0.725000X0.600000X0.725000X-0.600000X0.725000X0*%
%TD*%
%TA.AperFunction,ComponentPad*%
%ADD14O,1.700000X1.950000*%
%TD*%
%TA.AperFunction,ViaPad*%
%ADD15C,0.600000*%
%TD*%
%TA.AperFunction,Conductor*%
%ADD16C,0.300000*%
%TD*%
%TA.AperFunction,Conductor*%
%ADD17C,0.400000*%
%TD*%
G04 APERTURE END LIST*
D10*
%TO.P,REF\u002A\u002A,1*%
%TO.N,N/C*%
X121500000Y-73500000D03*
%TD*%
D11*
%TO.P,ADS1256 Breakout,1,5V*%
%TO.N,+5V*%
X63925000Y-86365000D03*
D12*
%TO.P,ADS1256 Breakout,2,GND*%
%TO.N,GND*%
X63925000Y-88905000D03*
%TO.P,ADS1256 Breakout,3,SCLK*%
%TO.N,/SCLK*%
X63925000Y-91445000D03*
%TO.P,ADS1256 Breakout,4,DIN*%
%TO.N,/MOSI*%
X63925000Y-93985000D03*
%TO.P,ADS1256 Breakout,5,DOUT*%
%TO.N,/MISO*%
X63925000Y-96525000D03*
%TO.P,ADS1256 Breakout,6,DRDY*%
%TO.N,Net-(JP1-C)*%
X63925000Y-99065000D03*
%TO.P,ADS1256 Breakout,7,CS*%
%TO.N,Net-(JP2-C)*%
X63925000Y-101605000D03*
%TO.P,ADS1256 Breakout,8,PDWN*%
%TO.N,Net-(JP3-C)*%
X63925000Y-104145000D03*
%TO.P,ADS1256 Breakout,9,GND*%
%TO.N,GND*%
X118535000Y-86380000D03*
%TO.P,ADS1256 Breakout,10,AIN0*%
%TO.N,/LC1_S-*%
X121075000Y-86380000D03*
%TO.P,ADS1256 Breakout,11,GND*%
%TO.N,GND*%
X118535000Y-88920000D03*
%TO.P,ADS1256 Breakout,12,AIN1*%
%TO.N,/LC1_S+*%
X121075000Y-88920000D03*
%TO.P,ADS1256 Breakout,13,GND*%
%TO.N,GND*%
X118535000Y-91460000D03*
%TO.P,ADS1256 Breakout,14,AIN2*%
%TO.N,/LC2_S-*%
X121075000Y-91460000D03*
%TO.P,ADS1256 Breakout,15,GND*%
%TO.N,GND*%
X118535000Y-94000000D03*
%TO.P,ADS1256 Breakout,16,AIN3*%
%TO.N,/LC2_S+*%
X121075000Y-94000000D03*
%TO.P,ADS1256 Breakout,17,GND*%
%TO.N,GND*%
X118535000Y-96540000D03*
%TO.P,ADS1256 Breakout,18,AIN4*%
%TO.N,/LC3_S-*%
X121075000Y-96540000D03*
%TO.P,ADS1256 Breakout,19,GND*%
%TO.N,GND*%
X118535000Y-99080000D03*
%TO.P,ADS1256 Breakout,20,AIN5*%
%TO.N,/LC3_S+*%
X121075000Y-99080000D03*
%TO.P,ADS1256 Breakout,21,GND*%
%TO.N,GND*%
X118535000Y-101620000D03*
%TO.P,ADS1256 Breakout,22,AIN6*%
%TO.N,/LC4_S-*%
X121075000Y-101620000D03*
%TO.P,ADS1256 Breakout,23,GND*%
%TO.N,GND*%
X118535000Y-104160000D03*
%TO.P,ADS1256 Breakout,24,AIN7*%
%TO.N,/LC4_S+*%
X121075000Y-104160000D03*
%TD*%
D13*
%TO.P,J1,1,Pin_1*%
%TO.N,GND*%
X69025000Y-116250000D03*
D14*
%TO.P,J1,2,Pin_2*%
%TO.N,/LC1_S-*%
X71525000Y-116250000D03*
%TO.P,J1,3,Pin_3*%
%TO.N,/LC1_S+*%
X74025000Y-116250000D03*
%TO.P,J1,4,Pin_4*%
%TO.N,+5V*%
X76525000Y-116250000D03*
%TD*%
D10*
%TO.P,REF\u002A\u002A,1*%
%TO.N,N/C*%
X63500000Y-73500000D03*
%TD*%
D13*
%TO.P,J4,1,Pin_1*%
%TO.N,GND*%
X108475000Y-116250000D03*
D14*
%TO.P,J4,2,Pin_2*%
%TO.N,/LC4_S-*%
X110975000Y-116250000D03*
%TO.P,J4,3,Pin_3*%
%TO.N,/LC4_S+*%
X113475000Y-116250000D03*
%TO.P,J4,4,Pin_4*%
%TO.N,+5V*%
X115975000Y-116250000D03*
%TD*%
D10*
%TO.P,REF\u002A\u002A,1*%
%TO.N,N/C*%
X63500000Y-122500000D03*
%TD*%
%TO.P,REF\u002A\u002A,1*%
%TO.N,N/C*%
X121500000Y-122500000D03*
%TD*%
D13*
%TO.P,J2,1,Pin_1*%
%TO.N,GND*%
X82175000Y-116250000D03*
D14*
%TO.P,J2,2,Pin_2*%
%TO.N,/LC2_S-*%
X84675000Y-116250000D03*
%TO.P,J2,3,Pin_3*%
%TO.N,/LC2_S+*%
X87175000Y-116250000D03*
%TO.P,J2,4,Pin_4*%
%TO.N,+5V*%
X89675000Y-116250000D03*
%TD*%
D13*
%TO.P,J3,1,Pin_1*%
%TO.N,GND*%
X95325000Y-116250000D03*
D14*
%TO.P,J3,2,Pin_2*%
%TO.N,/LC3_S-*%
X97825000Y-116250000D03*
%TO.P,J3,3,Pin_3*%
%TO.N,/LC3_S+*%
X100325000Y-116250000D03*
%TO.P,J3,4,Pin_4*%
%TO.N,+5V*%
X102825000Y-116250000D03*
%TD*%
D11*
%TO.P,U1,1,3V3*%
%TO.N,unconnected-(U1-3V3-Pad1)_1*%
X68365000Y-74770000D03*
D12*
%TO.P,U1,2,5V*%
%TO.N,+5V*%
X68365000Y-72230000D03*
%TO.P,U1,3,SDA/GPIO2*%
%TO.N,unconnected-(U1-SDA{slash}GPIO2-Pad3)*%
X70905000Y-74770000D03*
%TO.P,U1,4,5V*%
%TO.N,+5V*%
X70905000Y-72230000D03*
%TO.P,U1,5,SCL/GPIO3*%
%TO.N,unconnected-(U1-SCL{slash}GPIO3-Pad5)*%
X73445000Y-74770000D03*
%TO.P,U1,6,GND*%
%TO.N,GND*%
X73445000Y-72230000D03*
%TO.P,U1,7,GCLK0/GPIO4*%
%TO.N,unconnected-(U1-GCLK0{slash}GPIO4-Pad7)*%
X75985000Y-74770000D03*
%TO.P,U1,8,GPIO14/TXD*%
%TO.N,unconnected-(U1-GPIO14{slash}TXD-Pad8)*%
X75985000Y-72230000D03*
%TO.P,U1,9,GND*%
%TO.N,GND*%
X78525000Y-74770000D03*
%TO.P,U1,10,GPIO15/RXD*%
%TO.N,unconnected-(U1-GPIO15{slash}RXD-Pad10)*%
X78525000Y-72230000D03*
%TO.P,U1,11,GPIO17*%
%TO.N,unconnected-(U1-GPIO17-Pad11)*%
X81065000Y-74770000D03*
%TO.P,U1,12,GPIO18/PWM0*%
%TO.N,unconnected-(U1-GPIO18{slash}PWM0-Pad12)*%
X81065000Y-72230000D03*
%TO.P,U1,13,GPIO27*%
%TO.N,unconnected-(U1-GPIO27-Pad13)*%
X83605000Y-74770000D03*
%TO.P,U1,14,GND*%
%TO.N,GND*%
X83605000Y-72230000D03*
%TO.P,U1,15,GPIO22*%
%TO.N,/DRDY_1*%
X86145000Y-74770000D03*
%TO.P,U1,16,GPIO23*%
%TO.N,/DRDY_2*%
X86145000Y-72230000D03*
%TO.P,U1,17,3V3*%
%TO.N,unconnected-(U1-3V3-Pad1)*%
X88685000Y-74770000D03*
%TO.P,U1,18,GPIO24*%
%TO.N,/PDWN_1*%
X88685000Y-72230000D03*
%TO.P,U1,19,MOSI0/GPIO10*%
%TO.N,/MOSI*%
X91225000Y-74770000D03*
%TO.P,U1,20,GND*%
%TO.N,GND*%
X91225000Y-72230000D03*
%TO.P,U1,21,MISO0/GPIO9*%
%TO.N,/MISO*%
X93765000Y-74770000D03*
%TO.P,U1,22,GPIO25*%
%TO.N,/PDWN_2*%
X93765000Y-72230000D03*
%TO.P,U1,23,SCLK0/GPIO11*%
%TO.N,/SCLK*%
X96305000Y-74770000D03*
%TO.P,U1,24,~{CE0}/GPIO8*%
%TO.N,/CS_1*%
X96305000Y-72230000D03*
%TO.P,U1,25,GND*%
%TO.N,GND*%
X98845000Y-74770000D03*
%TO.P,U1,26,~{CE1}/GPIO7*%
%TO.N,/CS_2*%
X98845000Y-72230000D03*
%TO.P,U1,27,ID_SD/GPIO0*%
%TO.N,unconnected-(U1-ID_SD{slash}GPIO0-Pad27)*%
X101385000Y-74770000D03*
%TO.P,U1,28,ID_SC/GPIO1*%
%TO.N,unconnected-(U1-ID_SC{slash}GPIO1-Pad28)*%
X101385000Y-72230000D03*
%TO.P,U1,29,GCLK1/GPIO5*%
%TO.N,/R1*%
X103925000Y-74770000D03*
%TO.P,U1,30,GND*%
%TO.N,GND*%
X103925000Y-72230000D03*
%TO.P,U1,31,GCLK2/GPIO6*%
%TO.N,/R2*%
X106465000Y-74770000D03*
%TO.P,U1,32,PWM0/GPIO12*%
%TO.N,/LED*%
X106465000Y-72230000D03*
%TO.P,U1,33,PWM1/GPIO13*%
%TO.N,/R3*%
X109005000Y-74770000D03*
%TO.P,U1,34,GND*%
%TO.N,GND*%
X109005000Y-72230000D03*
%TO.P,U1,35,GPIO19/MISO1*%
%TO.N,/R5*%
X111545000Y-74770000D03*
%TO.P,U1,36,GPIO16*%
%TO.N,/R4*%
X111545000Y-72230000D03*
%TO.P,U1,37,GPIO26*%
%TO.N,/R8*%
X114085000Y-74770000D03*
%TO.P,U1,38,GPIO20/MOSI1*%
%TO.N,/R6*%
X114085000Y-72230000D03*
%TO.P,U1,39,GND*%
%TO.N,GND*%
X116625000Y-74770000D03*
%TO.P,U1,40,GPIO21/SCLK1*%
%TO.N,/R7*%
X116625000Y-72230000D03*
%TD*%
D15*
%TO.N,GND*%
X82000000Y-102000000D03*
X74250000Y-109250000D03*
X87500000Y-109250000D03*
X112750000Y-97000000D03*
X85250000Y-87750000D03*
X65000000Y-109250000D03*
X67000000Y-97500000D03*
X91500000Y-81250000D03*
X96500000Y-87750000D03*
X103000000Y-81250000D03*
X106900000Y-103700000D03*
X102750000Y-94750000D03*
X112750000Y-92500000D03*
X88700000Y-96000000D03*
X95000000Y-102000000D03*
X109750000Y-87750000D03*
X77000000Y-81250000D03*
X75500000Y-101000000D03*
X73000000Y-84250000D03*
X121500000Y-116500000D03*
X82250000Y-122250000D03*
X65000000Y-81250000D03*
X100250000Y-109250000D03*
X102750000Y-122250000D03*
X116500000Y-81250000D03*
X69250000Y-81250000D03*
X113500000Y-109250000D03*
X78250000Y-94750000D03*
X63500000Y-117000000D03*
%TO.N,/CS_1*%
X69750000Y-103750000D03*
X91750000Y-78000000D03*
%TO.N,Net-(JP1-C)*%
X71000000Y-89250000D03*
%TO.N,/SCLK*%
X78272541Y-91522541D03*
%TO.N,/DRDY_1*%
X70500000Y-86000000D03*
%TO.N,/DRDY_2*%
X74000000Y-86650000D03*
X84949000Y-77199000D03*
%TO.N,/PDWN_2*%
X73250000Y-94750000D03*
%TO.N,/CS_2*%
X91000000Y-78758949D03*
X72500000Y-103750000D03*
%TO.N,/PDWN_1*%
X71250000Y-93335000D03*
%TD*%
D16*
%TO.N,/LC1_S+*%
X119745000Y-90250000D02*
X100095710Y-90250000D01*
X100095710Y-90250000D02*
X74095710Y-116250000D01*
X74095710Y-116250000D02*
X74025000Y-116250000D01*
X121075000Y-88920000D02*
X119745000Y-90250000D01*
%TO.N,/LC1_S-*%
X71525000Y-116250000D02*
X71525000Y-115975000D01*
X71525000Y-115975000D02*
X73000000Y-114500000D01*
X99888190Y-89749000D02*
X116001000Y-89749000D01*
X119736000Y-87719000D02*
X121075000Y-86380000D01*
X75137190Y-114500000D02*
X99888190Y-89749000D01*
X118031000Y-87719000D02*
X119736000Y-87719000D01*
X116001000Y-89749000D02*
X118031000Y-87719000D01*
X73000000Y-114500000D02*
X75137190Y-114500000D01*
%TO.N,/MOSI*%
X63290000Y-93985000D02*
X63305000Y-94000000D01*
X72015000Y-93985000D02*
X91230000Y-74770000D01*
X63290000Y-93985000D02*
X72015000Y-93985000D01*
%TO.N,/LC2_S+*%
X121075000Y-94000000D02*
X119825000Y-95250000D01*
X108250000Y-95250000D02*
X87250000Y-116250000D01*
X87250000Y-116250000D02*
X87175000Y-116250000D01*
X119825000Y-95250000D02*
X108250000Y-95250000D01*
%TO.N,/LC2_S-*%
X108038190Y-94749000D02*
X88287190Y-114500000D01*
X118000000Y-92750000D02*
X116001000Y-94749000D01*
X119785000Y-92750000D02*
X118000000Y-92750000D01*
X116001000Y-94749000D02*
X108038190Y-94749000D01*
X88287190Y-114500000D02*
X86425000Y-114500000D01*
X121075000Y-91460000D02*
X119785000Y-92750000D01*
X86425000Y-114500000D02*
X84675000Y-116250000D01*
%TO.N,/LC3_S-*%
X119865000Y-97750000D02*
X118041479Y-97750000D01*
X97825000Y-116174999D02*
X97825000Y-116250000D01*
X101291480Y-114500000D02*
X99499999Y-114500000D01*
X115718000Y-100073479D02*
X101291480Y-114500000D01*
X99499999Y-114500000D02*
X97825000Y-116174999D01*
X118041479Y-97750000D02*
X115718000Y-100073479D01*
X121075000Y-96540000D02*
X119865000Y-97750000D01*
D17*
%TO.N,+5V*%
X105475000Y-118900000D02*
X113325000Y-118900000D01*
X87025000Y-118900000D02*
X89675000Y-116250000D01*
X89675000Y-116250000D02*
X92325000Y-118900000D01*
X66700000Y-118900000D02*
X73875000Y-118900000D01*
X102825000Y-116250000D02*
X105475000Y-118900000D01*
X113325000Y-118900000D02*
X115975000Y-116250000D01*
X73875000Y-118900000D02*
X76525000Y-116250000D01*
X68370000Y-72230000D02*
X66800000Y-73800000D01*
X66800000Y-83490000D02*
X61000000Y-89290000D01*
X79175000Y-118900000D02*
X87025000Y-118900000D01*
X66800000Y-73800000D02*
X66800000Y-83490000D01*
X76525000Y-116250000D02*
X79175000Y-118900000D01*
X92325000Y-118900000D02*
X100175000Y-118900000D01*
X68370000Y-72230000D02*
X70910000Y-72230000D01*
X61000000Y-89290000D02*
X61000000Y-113200000D01*
X61000000Y-113200000D02*
X66700000Y-118900000D01*
X100175000Y-118900000D02*
X102825000Y-116250000D01*
D16*
%TO.N,/MISO*%
X93770000Y-75230000D02*
X93770000Y-74770000D01*
X90000000Y-76750000D02*
X91790000Y-76750000D01*
X72250000Y-94500000D02*
X90000000Y-76750000D01*
X63975000Y-96525000D02*
X66000000Y-94500000D01*
X63290000Y-96525000D02*
X63975000Y-96525000D01*
X91790000Y-76750000D02*
X93770000Y-74770000D01*
X66000000Y-94500000D02*
X72250000Y-94500000D01*
%TO.N,/CS_1*%
X90167322Y-78000000D02*
X91750000Y-78000000D01*
X73901000Y-94266322D02*
X90167322Y-78000000D01*
X73901000Y-95480374D02*
X73901000Y-94266322D01*
X71999000Y-101501000D02*
X71999000Y-97382374D01*
X71999000Y-97382374D02*
X72292480Y-97088894D01*
X72292480Y-97088894D02*
X73901000Y-95480374D01*
X69750000Y-103750000D02*
X71999000Y-101501000D01*
%TO.N,Net-(JP1-C)*%
X62000000Y-97140000D02*
X63925000Y-99065000D01*
X67466000Y-92784000D02*
X63216000Y-92784000D01*
X62000000Y-94000000D02*
X62000000Y-97140000D01*
X63216000Y-92784000D02*
X62000000Y-94000000D01*
X71000000Y-89250000D02*
X67466000Y-92784000D01*
%TO.N,/SCLK*%
X78272541Y-91522541D02*
X78250000Y-91500000D01*
X89917181Y-79667181D02*
X91412819Y-79667181D01*
X91412819Y-79667181D02*
X96310000Y-74770000D01*
X96310000Y-75440000D02*
X96310000Y-74770000D01*
X78250000Y-91500000D02*
X78250000Y-91334362D01*
X78250000Y-91334362D02*
X89917181Y-79667181D01*
%TO.N,/DRDY_1*%
X77832960Y-86000000D02*
X84250000Y-79582960D01*
X84250000Y-79582960D02*
X84250000Y-76670000D01*
X70500000Y-86000000D02*
X77832960Y-86000000D01*
X84250000Y-76670000D02*
X86150000Y-74770000D01*
%TO.N,/LC3_S+*%
X100325000Y-116250000D02*
X100325000Y-116175000D01*
X116219000Y-100281000D02*
X119874000Y-100281000D01*
X100325000Y-116175000D02*
X116219000Y-100281000D01*
X119874000Y-100281000D02*
X121075000Y-99080000D01*
%TO.N,/LC4_S+*%
X113475000Y-116250000D02*
X113547125Y-116250000D01*
X113547125Y-116250000D02*
X117523562Y-112273562D01*
X120251000Y-104984000D02*
X121075000Y-104160000D01*
X117523562Y-112273562D02*
X120251000Y-109546125D01*
X120251000Y-109546125D02*
X120251000Y-104984000D01*
%TO.N,/LC4_S-*%
X110975000Y-116250000D02*
X112805698Y-114419302D01*
X112805698Y-114419302D02*
X114669302Y-114419302D01*
X119750000Y-109338604D02*
X119750000Y-102945000D01*
X114669302Y-114419302D02*
X119750000Y-109338604D01*
X119750000Y-102945000D02*
X121075000Y-101620000D01*
%TO.N,/DRDY_2*%
X78041480Y-86500000D02*
X84949000Y-79592480D01*
X84949000Y-79592480D02*
X84949000Y-77199000D01*
X74150000Y-86500000D02*
X78041480Y-86500000D01*
X74000000Y-86650000D02*
X74150000Y-86500000D01*
%TO.N,Net-(JP2-C)*%
X63290000Y-101605000D02*
X64295000Y-101605000D01*
%TO.N,Net-(JP3-C)*%
X64295000Y-104145000D02*
X63290000Y-104145000D01*
%TO.N,/PDWN_2*%
X73250000Y-94208520D02*
X90207520Y-77251000D01*
X73250000Y-94750000D02*
X73250000Y-94208520D01*
X95000000Y-73460000D02*
X93770000Y-72230000D01*
X92987471Y-77251000D02*
X95000000Y-75238471D01*
X90207520Y-77251000D02*
X92987471Y-77251000D01*
X95000000Y-75238471D02*
X95000000Y-73460000D01*
%TO.N,/CS_2*%
X74402000Y-94473842D02*
X74402000Y-95687894D01*
X91000000Y-78758949D02*
X90116893Y-78758949D01*
X90116893Y-78758949D02*
X74402000Y-94473842D01*
X72500000Y-97589894D02*
X72500000Y-103750000D01*
X74402000Y-95687894D02*
X72500000Y-97589894D01*
%TO.N,/PDWN_1*%
X71915000Y-93335000D02*
X87400000Y-77850000D01*
X87400000Y-73520000D02*
X88690000Y-72230000D01*
X87400000Y-77850000D02*
X87400000Y-73520000D01*
X71250000Y-93335000D02*
X71915000Y-93335000D01*
%TD*%
%TA.AperFunction,Conductor*%
%TO.N,GND*%
G36*
X120291437Y-70320185D02*
G01*
X120337192Y-70372989D01*
X120347136Y-70442147D01*
X120318111Y-70505703D01*
X120275998Y-70536064D01*
X120276427Y-70536954D01*
X119949420Y-70694432D01*
X119645045Y-70885684D01*
X119363997Y-71109811D01*
X119109811Y-71363997D01*
X118885684Y-71645045D01*
X118694432Y-71949420D01*
X118538465Y-72273288D01*
X118419741Y-72612580D01*
X118419737Y-72612592D01*
X118339748Y-72963048D01*
X118339746Y-72963064D01*
X118299500Y-73320259D01*
X118299500Y-73679740D01*
X118339746Y-74036935D01*
X118339748Y-74036951D01*
X118419737Y-74387407D01*
X118419741Y-74387419D01*
X118538465Y-74726711D01*
X118694432Y-75050579D01*
X118694434Y-75050582D01*
X118885685Y-75354956D01*
X119109812Y-75636003D01*
X119363997Y-75890188D01*
X119645044Y-76114315D01*
X119949418Y-76305566D01*
X120273292Y-76461536D01*
X120528119Y-76550703D01*
X120612580Y-76580258D01*
X120612592Y-76580262D01*
X120963052Y-76660252D01*
X121320260Y-76700499D01*
X121320261Y-76700500D01*
X121320264Y-76700500D01*
X121679739Y-76700500D01*
X121679739Y-76700499D01*
X122036948Y-76660252D01*
X122387408Y-76580262D01*
X122726708Y-76461536D01*
X123050582Y-76305566D01*
X123354956Y-76114315D01*
X123636003Y-75890188D01*
X123890188Y-75636003D01*
X124114315Y-75354956D01*
X124305566Y-75050582D01*
X124461536Y-74726708D01*
X124463046Y-74723573D01*
X124464190Y-74724123D01*
X124504760Y-74673759D01*
X124571050Y-74651682D01*
X124638753Y-74668948D01*
X124686373Y-74720076D01*
X124699500Y-74775602D01*
X124699500Y-121224397D01*
X124679815Y-121291436D01*
X124627011Y-121337191D01*
X124557853Y-121347135D01*
X124494297Y-121318110D01*
X124463931Y-121276000D01*
X124463046Y-121276427D01*
X124305567Y-120949420D01*
X124305566Y-120949418D01*
X124114315Y-120645044D01*
X123890188Y-120363997D01*
X123636003Y-120109812D01*
X123354956Y-119885685D01*
X123050582Y-119694434D01*
X123050579Y-119694432D01*
X122726711Y-119538465D01*
X122387419Y-119419741D01*
X122387407Y-119419737D01*
X122036951Y-119339748D01*
X122036935Y-119339746D01*
X121679740Y-119299500D01*
X121679736Y-119299500D01*
X121320264Y-119299500D01*
X121320259Y-119299500D01*
X120963064Y-119339746D01*
X120963048Y-119339748D01*
X120612592Y-119419737D01*
X120612580Y-119419741D01*
X120273288Y-119538465D01*
X119949420Y-119694432D01*
X119645045Y-119885684D01*
X119363997Y-120109811D01*
X119109811Y-120363997D01*
X118885684Y-120645045D01*
X118694432Y-120949420D01*
X118538465Y-121273288D01*
X118419741Y-121612580D01*
X118419737Y-121612592D01*
X118339748Y-121963048D01*
X118339746Y-121963064D01*
X118299500Y-122320259D01*
X118299500Y-122679740D01*
X118339746Y-123036935D01*
X118339748Y-123036951D01*
X118419737Y-123387407D01*
X118419741Y-123387419D01*
X118538465Y-123726711D01*
X118694432Y-124050579D01*
X118694434Y-124050582D01*
X118885685Y-124354956D01*
X119109812Y-124636003D01*
X119363997Y-124890188D01*
X119645044Y-125114315D01*
X119949418Y-125305566D01*
X119949420Y-125305567D01*
X120276427Y-125463046D01*
X120275876Y-125464190D01*
X120326241Y-125504760D01*
X120348318Y-125571050D01*
X120331052Y-125638753D01*
X120279924Y-125686373D01*
X120224398Y-125699500D01*
X64775602Y-125699500D01*
X64708563Y-125679815D01*
X64662808Y-125627011D01*
X64652864Y-125557853D01*
X64681889Y-125494297D01*
X64724001Y-125463935D01*
X64723573Y-125463046D01*
X64985292Y-125337008D01*
X65050582Y-125305566D01*
X65354956Y-125114315D01*
X65636003Y-124890188D01*
X65890188Y-124636003D01*
X66114315Y-124354956D01*
X66305566Y-124050582D01*
X66461536Y-123726708D01*
X66580262Y-123387408D01*
X66660252Y-123036948D01*
X66700500Y-122679736D01*
X66700500Y-122320264D01*
X66660252Y-121963052D01*
X66580262Y-121612592D01*
X66461536Y-121273292D01*
X66305566Y-120949418D01*
X66114315Y-120645044D01*
X65890188Y-120363997D01*
X65636003Y-120109812D01*
X65354956Y-119885685D01*
X65050582Y-119694434D01*
X65050579Y-119694432D01*
X64726711Y-119538465D01*
X64387419Y-119419741D01*
X64387407Y-119419737D01*
X64036951Y-119339748D01*
X64036935Y-119339746D01*
X63679740Y-119299500D01*
X63679736Y-119299500D01*
X63320264Y-119299500D01*
X63320259Y-119299500D01*
X62963064Y-119339746D01*
X62963048Y-119339748D01*
X62612592Y-119419737D01*
X62612580Y-119419741D01*
X62273288Y-119538465D01*
X61949420Y-119694432D01*
X61645045Y-119885684D01*
X61363997Y-120109811D01*
X61109811Y-120363997D01*
X60885684Y-120645045D01*
X60694432Y-120949420D01*
X60536954Y-121276427D01*
X60535814Y-121275878D01*
X60495219Y-121326254D01*
X60428925Y-121348318D01*
X60361226Y-121331038D01*
X60313616Y-121279901D01*
X60300500Y-121224397D01*
X60300500Y-113790519D01*
X60320185Y-113723480D01*
X60372989Y-113677725D01*
X60442147Y-113667781D01*
X60505703Y-113696806D01*
X60512181Y-113702838D01*
X66253457Y-119444114D01*
X66299412Y-119474819D01*
X66368189Y-119520775D01*
X66458332Y-119558113D01*
X66495671Y-119573580D01*
X66522591Y-119578934D01*
X66612937Y-119596905D01*
X66631006Y-119600500D01*
X66631007Y-119600500D01*
X73943996Y-119600500D01*
X74052432Y-119578930D01*
X74079328Y-119573580D01*
X74143069Y-119547177D01*
X74206807Y-119520777D01*
X74206808Y-119520776D01*
X74206811Y-119520775D01*
X74321543Y-119444114D01*
X76052873Y-117712782D01*
X76114194Y-117679299D01*
X76178870Y-117682534D01*
X76208757Y-117692246D01*
X76418713Y-117725500D01*
X76418714Y-117725500D01*
X76631286Y-117725500D01*
X76631287Y-117725500D01*
X76841243Y-117692246D01*
X76871129Y-117682534D01*
X76940969Y-117680539D01*
X76997128Y-117712785D01*
X78728453Y-119444111D01*
X78728454Y-119444112D01*
X78843192Y-119520777D01*
X78970662Y-119573576D01*
X78970672Y-119573580D01*
X78970676Y-119573580D01*
X78970677Y-119573581D01*
X79106003Y-119600500D01*
X79106006Y-119600500D01*
X87093996Y-119600500D01*
X87202432Y-119578930D01*
X87229328Y-119573580D01*
X87293069Y-119547177D01*
X87356807Y-119520777D01*
X87356808Y-119520776D01*
X87356811Y-119520775D01*
X87471543Y-119444114D01*
X89202873Y-117712782D01*
X89264194Y-117679299D01*
X89328870Y-117682534D01*
X89358757Y-117692246D01*
X89568713Y-117725500D01*
X89568714Y-117725500D01*
X89781286Y-117725500D01*
X89781287Y-117725500D01*
X89991243Y-117692246D01*
X90021129Y-117682534D01*
X90090969Y-117680539D01*
X90147128Y-117712785D01*
X91878453Y-119444111D01*
X91878454Y-119444112D01*
X91993192Y-119520777D01*
X92120662Y-119573576D01*
X92120672Y-119573580D01*
X92120676Y-119573580D01*
X92120677Y-119573581D01*
X92256003Y-119600500D01*
X92256006Y-119600500D01*
X100243996Y-119600500D01*
X100352432Y-119578930D01*
X100379328Y-119573580D01*
X100443069Y-119547177D01*
X100506807Y-119520777D01*
X100506808Y-119520776D01*
X100506811Y-119520775D01*
X100621543Y-119444114D01*
X102352873Y-117712782D01*
X102414194Y-117679299D01*
X102478870Y-117682534D01*
X102508757Y-117692246D01*
X102718713Y-117725500D01*
X102718714Y-117725500D01*
X102931286Y-117725500D01*
X102931287Y-117725500D01*
X103141243Y-117692246D01*
X103171129Y-117682534D01*
X103240969Y-117680539D01*
X103297128Y-117712785D01*
X105028453Y-119444111D01*
X105028454Y-119444112D01*
X105143192Y-119520777D01*
X105270662Y-119573576D01*
X105270672Y-119573580D01*
X105270676Y-119573580D01*
X105270677Y-119573581D01*
X105406003Y-119600500D01*
X105406006Y-119600500D01*
X113393996Y-119600500D01*
X113502432Y-119578930D01*
X113529328Y-119573580D01*
X113593069Y-119547177D01*
X113656807Y-119520777D01*
X113656808Y-119520776D01*
X113656811Y-119520775D01*
X113771543Y-119444114D01*
X115502873Y-117712782D01*
X115564194Y-117679299D01*
X115628870Y-117682534D01*
X115658757Y-117692246D01*
X115868713Y-117725500D01*
X115868714Y-117725500D01*
X116081286Y-117725500D01*
X116081287Y-117725500D01*
X116291243Y-117692246D01*
X116493412Y-117626557D01*
X116682816Y-117530051D01*
X116704789Y-117514086D01*
X116854786Y-117405109D01*
X116854788Y-117405106D01*
X116854792Y-117405104D01*
X117005104Y-117254792D01*
X117005106Y-117254788D01*
X117005109Y-117254786D01*
X117130048Y-117082820D01*
X117130047Y-117082820D01*
X117130051Y-117082816D01*
X117226557Y-116893412D01*
X117292246Y-116691243D01*
X117325500Y-116481287D01*
X117325500Y-116018713D01*
X117292246Y-115808757D01*
X117226557Y-115606588D01*
X117130051Y-115417184D01*
X117130049Y-115417181D01*
X117130048Y-115417179D01*
X117005109Y-115245213D01*
X116854786Y-115094890D01*
X116682820Y-114969951D01*
X116493414Y-114873444D01*
X116493413Y-114873443D01*
X116493412Y-114873443D01*
X116291243Y-114807754D01*
X116291241Y-114807753D01*
X116201902Y-114793603D01*
X116138768Y-114763673D01*
X116101837Y-114704361D01*
X116102835Y-114634499D01*
X116133617Y-114583453D01*
X118028839Y-112688231D01*
X118028838Y-112688231D01*
X120756276Y-109960795D01*
X120827465Y-109854252D01*
X120876501Y-109735869D01*
X120901500Y-109610194D01*
X120901500Y-105634500D01*
X120921185Y-105567461D01*
X120973989Y-105521706D01*
X121025500Y-105510500D01*
X121181286Y-105510500D01*
X121181287Y-105510500D01*
X121391243Y-105477246D01*
X121593412Y-105411557D01*
X121782816Y-105315051D01*
X121804789Y-105299086D01*
X121954786Y-105190109D01*
X121954788Y-105190106D01*
X121954792Y-105190104D01*
X122105104Y-105039792D01*
X122105106Y-105039788D01*
X122105109Y-105039786D01*
X122230048Y-104867820D01*
X122230047Y-104867820D01*
X122230051Y-104867816D01*
X122326557Y-104678412D01*
X122392246Y-104476243D01*
X122425500Y-104266287D01*
X122425500Y-104053713D01*
X122392246Y-103843757D01*
X122326557Y-103641588D01*
X122230051Y-103452184D01*
X122230049Y-103452181D01*
X122230048Y-103452179D01*
X122105109Y-103280213D01*
X121954786Y-103129890D01*
X121782820Y-103004951D01*
X121782115Y-103004591D01*
X121774054Y-103000485D01*
X121723259Y-102952512D01*
X121706463Y-102884692D01*
X121728999Y-102818556D01*
X121774054Y-102779515D01*
X121782816Y-102775051D01*
X121819167Y-102748641D01*
X121954786Y-102650109D01*
X121954788Y-102650106D01*
X121954792Y-102650104D01*
X122105104Y-102499792D01*
X122105106Y-102499788D01*
X122105109Y-102499786D01*
X122230048Y-102327820D01*
X122230047Y-102327820D01*
X122230051Y-102327816D01*
X122326557Y-102138412D01*
X122392246Y-101936243D01*
X122425500Y-101726287D01*
X122425500Y-101513713D01*
X122392246Y-101303757D01*
X122326557Y-101101588D01*
X122230051Y-100912184D01*
X122230049Y-100912181D01*
X122230048Y-100912179D01*
X122105109Y-100740213D01*
X121954786Y-100589890D01*
X121782820Y-100464951D01*
X121782115Y-100464591D01*
X121774054Y-100460485D01*
X121723259Y-100412512D01*
X121706463Y-100344692D01*
X121728999Y-100278556D01*
X121774054Y-100239515D01*
X121782816Y-100235051D01*
X121804789Y-100219086D01*
X121954786Y-100110109D01*
X121954788Y-100110106D01*
X121954792Y-100110104D01*
X122105104Y-99959792D01*
X122105106Y-99959788D01*
X122105109Y-99959786D01*
X122230048Y-99787820D01*
X122230047Y-99787820D01*
X122230051Y-99787816D01*
X122326557Y-99598412D01*
X122392246Y-99396243D01*
X122425500Y-99186287D01*
X122425500Y-98973713D01*
X122392246Y-98763757D01*
X122326557Y-98561588D01*
X122230051Y-98372184D01*
X122230049Y-98372181D01*
X122230048Y-98372179D01*
X122105109Y-98200213D01*
X121954786Y-98049890D01*
X121782820Y-97924951D01*
X121782115Y-97924591D01*
X121774054Y-97920485D01*
X121723259Y-97872512D01*
X121706463Y-97804692D01*
X121728999Y-97738556D01*
X121774054Y-97699515D01*
X121782816Y-97695051D01*
X121804789Y-97679086D01*
X121954786Y-97570109D01*
X121954788Y-97570106D01*
X121954792Y-97570104D01*
X122105104Y-97419792D01*
X122105106Y-97419788D01*
X122105109Y-97419786D01*
X122230048Y-97247820D01*
X122230047Y-97247820D01*
X122230051Y-97247816D01*
X122326557Y-97058412D01*
X122392246Y-96856243D01*
X122425500Y-96646287D01*
X122425500Y-96433713D01*
X122392246Y-96223757D01*
X122326557Y-96021588D01*
X122230051Y-95832184D01*
X122230049Y-95832181D01*
X122230048Y-95832179D01*
X122105109Y-95660213D01*
X121954786Y-95509890D01*
X121782820Y-95384951D01*
X121782115Y-95384591D01*
X121774054Y-95380485D01*
X121723259Y-95332512D01*
X121706463Y-95264692D01*
X121728999Y-95198556D01*
X121774054Y-95159515D01*
X121782816Y-95155051D01*
X121871830Y-95090379D01*
X121954786Y-95030109D01*
X121954788Y-95030106D01*
X121954792Y-95030104D01*
X122105104Y-94879792D01*
X122105106Y-94879788D01*
X122105109Y-94879786D01*
X122230048Y-94707820D01*
X122230047Y-94707820D01*
X122230051Y-94707816D01*
X122326557Y-94518412D01*
X122392246Y-94316243D01*
X122425500Y-94106287D01*
X122425500Y-93893713D01*
X122392246Y-93683757D01*
X122326557Y-93481588D01*
X122230051Y-93292184D01*
X122230049Y-93292181D01*
X122230048Y-93292179D01*
X122105109Y-93120213D01*
X121954786Y-92969890D01*
X121782820Y-92844951D01*
X121782115Y-92844591D01*
X121774054Y-92840485D01*
X121723259Y-92792512D01*
X121706463Y-92724692D01*
X121728999Y-92658556D01*
X121774054Y-92619515D01*
X121782816Y-92615051D01*
X121818584Y-92589064D01*
X121954786Y-92490109D01*
X121954788Y-92490106D01*
X121954792Y-92490104D01*
X122105104Y-92339792D01*
X122105106Y-92339788D01*
X122105109Y-92339786D01*
X122225896Y-92173535D01*
X122230051Y-92167816D01*
X122326557Y-91978412D01*
X122392246Y-91776243D01*
X122425500Y-91566287D01*
X122425500Y-91353713D01*
X122392246Y-91143757D01*
X122326557Y-90941588D01*
X122230051Y-90752184D01*
X122230049Y-90752181D01*
X122230048Y-90752179D01*
X122105109Y-90580213D01*
X121954786Y-90429890D01*
X121782820Y-90304951D01*
X121782115Y-90304591D01*
X121774054Y-90300485D01*
X121723259Y-90252512D01*
X121706463Y-90184692D01*
X121728999Y-90118556D01*
X121774054Y-90079515D01*
X121782816Y-90075051D01*
X121858951Y-90019736D01*
X121954786Y-89950109D01*
X121954788Y-89950106D01*
X121954792Y-89950104D01*
X122105104Y-89799792D01*
X122105106Y-89799788D01*
X122105109Y-89799786D01*
X122230048Y-89627820D01*
X122230047Y-89627820D01*
X122230051Y-89627816D01*
X122326557Y-89438412D01*
X122392246Y-89236243D01*
X122425500Y-89026287D01*
X122425500Y-88813713D01*
X122392246Y-88603757D01*
X122326557Y-88401588D01*
X122230051Y-88212184D01*
X122230049Y-88212181D01*
X122230048Y-88212179D01*
X122105109Y-88040213D01*
X121954786Y-87889890D01*
X121782820Y-87764951D01*
X121782115Y-87764591D01*
X121774054Y-87760485D01*
X121723259Y-87712512D01*
X121706463Y-87644692D01*
X121728999Y-87578556D01*
X121774054Y-87539515D01*
X121782816Y-87535051D01*
X121889784Y-87457335D01*
X121954786Y-87410109D01*
X121954788Y-87410106D01*
X121954792Y-87410104D01*
X122105104Y-87259792D01*
X122105106Y-87259788D01*
X122105109Y-87259786D01*
X122230048Y-87087820D01*
X122230047Y-87087820D01*
X122230051Y-87087816D01*
X122326557Y-86898412D01*
X122392246Y-86696243D01*
X122425500Y-86486287D01*
X122425500Y-86273713D01*
X122392246Y-86063757D01*
X122326557Y-85861588D01*
X122230051Y-85672184D01*
X122230049Y-85672181D01*
X122230048Y-85672179D01*
X122105109Y-85500213D01*
X121954786Y-85349890D01*
X121782820Y-85224951D01*
X121593414Y-85128444D01*
X121593413Y-85128443D01*
X121593412Y-85128443D01*
X121391243Y-85062754D01*
X121391241Y-85062753D01*
X121391240Y-85062753D01*
X121229957Y-85037208D01*
X121181287Y-85029500D01*
X120968713Y-85029500D01*
X120920042Y-85037208D01*
X120758760Y-85062753D01*
X120556585Y-85128444D01*
X120367179Y-85224951D01*
X120195213Y-85349890D01*
X120044890Y-85500213D01*
X119919949Y-85672182D01*
X119915202Y-85681499D01*
X119867227Y-85732293D01*
X119799405Y-85749087D01*
X119733271Y-85726548D01*
X119694234Y-85681495D01*
X119689622Y-85672444D01*
X119564727Y-85500540D01*
X119564723Y-85500535D01*
X119414464Y-85350276D01*
X119414459Y-85350272D01*
X119242557Y-85225379D01*
X119053215Y-85128903D01*
X118851124Y-85063241D01*
X118785000Y-85052768D01*
X118785000Y-85946988D01*
X118727993Y-85914075D01*
X118600826Y-85880000D01*
X118469174Y-85880000D01*
X118342007Y-85914075D01*
X118285000Y-85946988D01*
X118285000Y-85052768D01*
X118284999Y-85052768D01*
X118218875Y-85063241D01*
X118016784Y-85128903D01*
X117827442Y-85225379D01*
X117655540Y-85350272D01*
X117655535Y-85350276D01*
X117505276Y-85500535D01*
X117505272Y-85500540D01*
X117380379Y-85672442D01*
X117283904Y-85861782D01*
X117218242Y-86063870D01*
X117218242Y-86063873D01*
X117207769Y-86130000D01*
X118101988Y-86130000D01*
X118069075Y-86187007D01*
X118035000Y-86314174D01*
X118035000Y-86445826D01*
X118069075Y-86572993D01*
X118101988Y-86630000D01*
X117207769Y-86630000D01*
X117218242Y-86696126D01*
X117218242Y-86696129D01*
X117283904Y-86898217D01*
X117380376Y-87087553D01*
X117470511Y-87211614D01*
X117493990Y-87277421D01*
X117478164Y-87345475D01*
X117457873Y-87372180D01*
X115767873Y-89062181D01*
X115706550Y-89095666D01*
X115680192Y-89098500D01*
X99824119Y-89098500D01*
X99698451Y-89123497D01*
X99698445Y-89123499D01*
X99580064Y-89172534D01*
X99473516Y-89243726D01*
X99473515Y-89243727D01*
X74904063Y-113813181D01*
X74842740Y-113846666D01*
X74816382Y-113849500D01*
X72935929Y-113849500D01*
X72814876Y-113873580D01*
X72813934Y-113873767D01*
X72810257Y-113874498D01*
X72810255Y-113874499D01*
X72691874Y-113923534D01*
X72585326Y-113994726D01*
X71826401Y-114753651D01*
X71765078Y-114787136D01*
X71719322Y-114788443D01*
X71631292Y-114774500D01*
X71631287Y-114774500D01*
X71418713Y-114774500D01*
X71370042Y-114782208D01*
X71208760Y-114807753D01*
X71006585Y-114873444D01*
X70817179Y-114969951D01*
X70645215Y-115094889D01*
X70506035Y-115234069D01*
X70444712Y-115267553D01*
X70375020Y-115262569D01*
X70319087Y-115220697D01*
X70312815Y-115211484D01*
X70217315Y-115056654D01*
X70093345Y-114932684D01*
X69944124Y-114840643D01*
X69944119Y-114840641D01*
X69777697Y-114785494D01*
X69777690Y-114785493D01*
X69674986Y-114775000D01*
X69275000Y-114775000D01*
X69275000Y-115845854D01*
X69208343Y-115807370D01*
X69087535Y-115775000D01*
X68962465Y-115775000D01*
X68841657Y-115807370D01*
X68775000Y-115845854D01*
X68775000Y-114775000D01*
X68375028Y-114775000D01*
X68375012Y-114775001D01*
X68272302Y-114785494D01*
X68105880Y-114840641D01*
X68105875Y-114840643D01*
X67956654Y-114932684D01*
X67832684Y-115056654D01*
X67740643Y-115205875D01*
X67740641Y-115205880D01*
X67685494Y-115372302D01*
X67685493Y-115372309D01*
X67675000Y-115475013D01*
X67675000Y-116000000D01*
X68620854Y-116000000D01*
X68582370Y-116066657D01*
X68550000Y-116187465D01*
X68550000Y-116312535D01*
X68582370Y-116433343D01*
X68620854Y-116500000D01*
X67675001Y-116500000D01*
X67675001Y-117024986D01*
X67685494Y-117127697D01*
X67740641Y-117294119D01*
X67740643Y-117294124D01*
X67832684Y-117443345D01*
X67956654Y-117567315D01*
X68105875Y-117659356D01*
X68105880Y-117659358D01*
X68272302Y-117714505D01*
X68272309Y-117714506D01*
X68375019Y-117724999D01*
X68774999Y-117724999D01*
X68775000Y-117724998D01*
X68775000Y-116654145D01*
X68841657Y-116692630D01*
X68962465Y-116725000D01*
X69087535Y-116725000D01*
X69208343Y-116692630D01*
X69275000Y-116654145D01*
X69275000Y-117724999D01*
X69674972Y-117724999D01*
X69674986Y-117724998D01*
X69777697Y-117714505D01*
X69944119Y-117659358D01*
X69944124Y-117659356D01*
X70093345Y-117567315D01*
X70217317Y-117443343D01*
X70312815Y-117288516D01*
X70364763Y-117241791D01*
X70433725Y-117230568D01*
X70497808Y-117258412D01*
X70506035Y-117265931D01*
X70645213Y-117405109D01*
X70817179Y-117530048D01*
X70817181Y-117530049D01*
X70817184Y-117530051D01*
X71006588Y-117626557D01*
X71208757Y-117692246D01*
X71418713Y-117725500D01*
X71418714Y-117725500D01*
X71631286Y-117725500D01*
X71631287Y-117725500D01*
X71841243Y-117692246D01*
X72043412Y-117626557D01*
X72232816Y-117530051D01*
X72254789Y-117514086D01*
X72404786Y-117405109D01*
X72404788Y-117405106D01*
X72404792Y-117405104D01*
X72555104Y-117254792D01*
X72674683Y-117090204D01*
X72730011Y-117047540D01*
X72799624Y-117041561D01*
X72861420Y-117074166D01*
X72875313Y-117090199D01*
X72902557Y-117127697D01*
X72994896Y-117254792D01*
X73145213Y-117405109D01*
X73317179Y-117530048D01*
X73317181Y-117530049D01*
X73317184Y-117530051D01*
X73506588Y-117626557D01*
X73708757Y-117692246D01*
X73799316Y-117706589D01*
X73862450Y-117736518D01*
X73899382Y-117795829D01*
X73898384Y-117865692D01*
X73867599Y-117916743D01*
X73621162Y-118163181D01*
X73559839Y-118196666D01*
X73533481Y-118199500D01*
X67041519Y-118199500D01*
X66974480Y-118179815D01*
X66953838Y-118163181D01*
X61736819Y-112946162D01*
X61703334Y-112884839D01*
X61700500Y-112858481D01*
X61700500Y-98059808D01*
X61720185Y-97992769D01*
X61772989Y-97947014D01*
X61842147Y-97937070D01*
X61905703Y-97966095D01*
X61912181Y-97972127D01*
X62574342Y-98634288D01*
X62607827Y-98695611D01*
X62607319Y-98743755D01*
X62608516Y-98743945D01*
X62605378Y-98763757D01*
X62574500Y-98958713D01*
X62574500Y-99171287D01*
X62607754Y-99381243D01*
X62672334Y-99580000D01*
X62673444Y-99583414D01*
X62769951Y-99772820D01*
X62894890Y-99944786D01*
X63045213Y-100095109D01*
X63217182Y-100220050D01*
X63225946Y-100224516D01*
X63276742Y-100272491D01*
X63293536Y-100340312D01*
X63270998Y-100406447D01*
X63225946Y-100445484D01*
X63217182Y-100449949D01*
X63045213Y-100574890D01*
X62894890Y-100725213D01*
X62769951Y-100897179D01*
X62673444Y-101086585D01*
X62673443Y-101086587D01*
X62673443Y-101086588D01*
X62668570Y-101101585D01*
X62607753Y-101288760D01*
X62603915Y-101312993D01*
X62574500Y-101498713D01*
X62574500Y-101711287D01*
X62607754Y-101921243D01*
X62672334Y-102120000D01*
X62673444Y-102123414D01*
X62769951Y-102312820D01*
X62894890Y-102484786D01*
X63045213Y-102635109D01*
X63217182Y-102760050D01*
X63225946Y-102764516D01*
X63276742Y-102812491D01*
X63293536Y-102880312D01*
X63270998Y-102946447D01*
X63225946Y-102985484D01*
X63217182Y-102989949D01*
X63045213Y-103114890D01*
X62894890Y-103265213D01*
X62769951Y-103437179D01*
X62673444Y-103626585D01*
X62607753Y-103828760D01*
X62574500Y-104038713D01*
X62574500Y-104251286D01*
X62607461Y-104459397D01*
X62607754Y-104461243D01*
X62672334Y-104660000D01*
X62673444Y-104663414D01*
X62769951Y-104852820D01*
X62894890Y-105024786D01*
X63045213Y-105175109D01*
X63217179Y-105300048D01*
X63217181Y-105300049D01*
X63217184Y-105300051D01*
X63406588Y-105396557D01*
X63608757Y-105462246D01*
X63818713Y-105495500D01*
X63818714Y-105495500D01*
X64031286Y-105495500D01*
X64031287Y-105495500D01*
X64241243Y-105462246D01*
X64443412Y-105396557D01*
X64632816Y-105300051D01*
X64654789Y-105284086D01*
X64804786Y-105175109D01*
X64804788Y-105175106D01*
X64804792Y-105175104D01*
X64955104Y-105024792D01*
X64955106Y-105024788D01*
X64955109Y-105024786D01*
X65080048Y-104852820D01*
X65080047Y-104852820D01*
X65080051Y-104852816D01*
X65176557Y-104663412D01*
X65242246Y-104461243D01*
X65275500Y-104251287D01*
X65275500Y-104038713D01*
X65242246Y-103828757D01*
X65176557Y-103626588D01*
X65080051Y-103437184D01*
X65080049Y-103437181D01*
X65080048Y-103437179D01*
X64955109Y-103265213D01*
X64804786Y-103114890D01*
X64632820Y-102989951D01*
X64632115Y-102989591D01*
X64624054Y-102985485D01*
X64573259Y-102937512D01*
X64556463Y-102869692D01*
X64578999Y-102803556D01*
X64624054Y-102764515D01*
X64632816Y-102760051D01*
X64654789Y-102744086D01*
X64804786Y-102635109D01*
X64804788Y-102635106D01*
X64804792Y-102635104D01*
X64955104Y-102484792D01*
X64955106Y-102484788D01*
X64955109Y-102484786D01*
X65080048Y-102312820D01*
X65080047Y-102312820D01*
X65080051Y-102312816D01*
X65176557Y-102123412D01*
X65242246Y-101921243D01*
X65275500Y-101711287D01*
X65275500Y-101498713D01*
X65242246Y-101288757D01*
X65176557Y-101086588D01*
X65080051Y-100897184D01*
X65080049Y-100897181D01*
X65080048Y-100897179D01*
X64955109Y-100725213D01*
X64804786Y-100574890D01*
X64632820Y-100449951D01*
X64632115Y-100449591D01*
X64624054Y-100445485D01*
X64573259Y-100397512D01*
X64556463Y-100329692D01*
X64578999Y-100263556D01*
X64624054Y-100224515D01*
X64632816Y-100220051D01*
X64654789Y-100204086D01*
X64804786Y-100095109D01*
X64804788Y-100095106D01*
X64804792Y-100095104D01*
X64955104Y-99944792D01*
X64955106Y-99944788D01*
X64955109Y-99944786D01*
X65080048Y-99772820D01*
X65080047Y-99772820D01*
X65080051Y-99772816D01*
X65176557Y-99583412D01*
X65242246Y-99381243D01*
X65275500Y-99171287D01*
X65275500Y-98958713D01*
X65242246Y-98748757D01*
X65176557Y-98546588D01*
X65080051Y-98357184D01*
X65080049Y-98357181D01*
X65080048Y-98357179D01*
X64955109Y-98185213D01*
X64804786Y-98034890D01*
X64632820Y-97909951D01*
X64632115Y-97909591D01*
X64624054Y-97905485D01*
X64573259Y-97857512D01*
X64556463Y-97789692D01*
X64578999Y-97723556D01*
X64624054Y-97684515D01*
X64632816Y-97680051D01*
X64654789Y-97664086D01*
X64804786Y-97555109D01*
X64804788Y-97555106D01*
X64804792Y-97555104D01*
X64955104Y-97404792D01*
X64955106Y-97404788D01*
X64955109Y-97404786D01*
X65080048Y-97232820D01*
X65080047Y-97232820D01*
X65080051Y-97232816D01*
X65176557Y-97043412D01*
X65242246Y-96841243D01*
X65275500Y-96631287D01*
X65275500Y-96418713D01*
X65247883Y-96244347D01*
X65256838Y-96175055D01*
X65282672Y-96137272D01*
X66233127Y-95186819D01*
X66294450Y-95153334D01*
X66320808Y-95150500D01*
X72314071Y-95150500D01*
X72445341Y-95124388D01*
X72514933Y-95130615D01*
X72570110Y-95173478D01*
X72572635Y-95177114D01*
X72628210Y-95260289D01*
X72739707Y-95371786D01*
X72739711Y-95371789D01*
X72823846Y-95428007D01*
X72868651Y-95481619D01*
X72877358Y-95550944D01*
X72847203Y-95613972D01*
X72842636Y-95618790D01*
X71877810Y-96583618D01*
X71493727Y-96967699D01*
X71493726Y-96967700D01*
X71422534Y-97074248D01*
X71373499Y-97192629D01*
X71373497Y-97192635D01*
X71348500Y-97318302D01*
X71348500Y-101180191D01*
X71328815Y-101247230D01*
X71312181Y-101267872D01*
X69647068Y-102932984D01*
X69585745Y-102966469D01*
X69583579Y-102966920D01*
X69516508Y-102980261D01*
X69516498Y-102980264D01*
X69370827Y-103040602D01*
X69370814Y-103040609D01*
X69239711Y-103128210D01*
X69239707Y-103128213D01*
X69128213Y-103239707D01*
X69128210Y-103239711D01*
X69040609Y-103370814D01*
X69040602Y-103370827D01*
X68980264Y-103516498D01*
X68980261Y-103516510D01*
X68949500Y-103671153D01*
X68949500Y-103828846D01*
X68980261Y-103983489D01*
X68980264Y-103983501D01*
X69040602Y-104129172D01*
X69040609Y-104129185D01*
X69128210Y-104260288D01*
X69128213Y-104260292D01*
X69239707Y-104371786D01*
X69239711Y-104371789D01*
X69370814Y-104459390D01*
X69370827Y-104459397D01*
X69516498Y-104519735D01*
X69516503Y-104519737D01*
X69671153Y-104550499D01*
X69671156Y-104550500D01*
X69671158Y-104550500D01*
X69828844Y-104550500D01*
X69828845Y-104550499D01*
X69983497Y-104519737D01*
X70096166Y-104473067D01*
X70129172Y-104459397D01*
X70129172Y-104459396D01*
X70129179Y-104459394D01*
X70260289Y-104371789D01*
X70371789Y-104260289D01*
X70459394Y-104129179D01*
X70519737Y-103983497D01*
X70533079Y-103916416D01*
X70565463Y-103854509D01*
X70566958Y-103852986D01*
X71637820Y-102782124D01*
X71699142Y-102748641D01*
X71768834Y-102753625D01*
X71824767Y-102795497D01*
X71849184Y-102860961D01*
X71849500Y-102869807D01*
X71849500Y-103245064D01*
X71829815Y-103312103D01*
X71828603Y-103313954D01*
X71790608Y-103370817D01*
X71790602Y-103370828D01*
X71730264Y-103516498D01*
X71730261Y-103516510D01*
X71699500Y-103671153D01*
X71699500Y-103828846D01*
X71730261Y-103983489D01*
X71730264Y-103983501D01*
X71790602Y-104129172D01*
X71790609Y-104129185D01*
X71878210Y-104260288D01*
X71878213Y-104260292D01*
X71989707Y-104371786D01*
X71989711Y-104371789D01*
X72120814Y-104459390D01*
X72120827Y-104459397D01*
X72266498Y-104519735D01*
X72266503Y-104519737D01*
X72421153Y-104550499D01*
X72421156Y-104550500D01*
X72421158Y-104550500D01*
X72578844Y-104550500D01*
X72578845Y-104550499D01*
X72733497Y-104519737D01*
X72846166Y-104473067D01*
X72879172Y-104459397D01*
X72879172Y-104459396D01*
X72879179Y-104459394D01*
X73010289Y-104371789D01*
X73121789Y-104260289D01*
X73209394Y-104129179D01*
X73269737Y-103983497D01*
X73300500Y-103828842D01*
X73300500Y-103671158D01*
X73300500Y-103671155D01*
X73300499Y-103671153D01*
X73269737Y-103516503D01*
X73209394Y-103370821D01*
X73171396Y-103313953D01*
X73150520Y-103247276D01*
X73150500Y-103245064D01*
X73150500Y-97910701D01*
X73170185Y-97843662D01*
X73186819Y-97823020D01*
X74907273Y-96102566D01*
X74907276Y-96102563D01*
X74978465Y-95996021D01*
X75027501Y-95877638D01*
X75028125Y-95874500D01*
X75052500Y-95751963D01*
X75052500Y-94794650D01*
X75072185Y-94727611D01*
X75088819Y-94706969D01*
X76338327Y-93457461D01*
X77623879Y-92171908D01*
X77685200Y-92138425D01*
X77754892Y-92143409D01*
X77780449Y-92156489D01*
X77893355Y-92231931D01*
X77893368Y-92231938D01*
X78006319Y-92278723D01*
X78039044Y-92292278D01*
X78193694Y-92323040D01*
X78193697Y-92323041D01*
X78193699Y-92323041D01*
X78351385Y-92323041D01*
X78351386Y-92323040D01*
X78506038Y-92292278D01*
X78651720Y-92231935D01*
X78782830Y-92144330D01*
X78894330Y-92032830D01*
X78981935Y-91901720D01*
X79042278Y-91756038D01*
X79073041Y-91601383D01*
X79073041Y-91482628D01*
X79092726Y-91415589D01*
X79109360Y-91394947D01*
X84424924Y-86079383D01*
X84642526Y-85861782D01*
X90150308Y-80354000D01*
X90211631Y-80320515D01*
X90237989Y-80317681D01*
X91476890Y-80317681D01*
X91561434Y-80300863D01*
X91602563Y-80292682D01*
X91720946Y-80243646D01*
X91720949Y-80243644D01*
X91721954Y-80242973D01*
X91758384Y-80218630D01*
X91827488Y-80172458D01*
X95878424Y-76121520D01*
X95939745Y-76088037D01*
X95985501Y-76086730D01*
X95988755Y-76087245D01*
X95988757Y-76087246D01*
X96198713Y-76120500D01*
X96198714Y-76120500D01*
X96411286Y-76120500D01*
X96411287Y-76120500D01*
X96621243Y-76087246D01*
X96823412Y-76021557D01*
X97012816Y-75925051D01*
X97099138Y-75862335D01*
X97184786Y-75800109D01*
X97184788Y-75800106D01*
X97184792Y-75800104D01*
X97335104Y-75649792D01*
X97335106Y-75649788D01*
X97335109Y-75649786D01*
X97460048Y-75477820D01*
X97460051Y-75477816D01*
X97464793Y-75468508D01*
X97512763Y-75417711D01*
X97580583Y-75400911D01*
X97646719Y-75423445D01*
X97685763Y-75468500D01*
X97690377Y-75477555D01*
X97815272Y-75649459D01*
X97815276Y-75649464D01*
X97965535Y-75799723D01*
X97965540Y-75799727D01*
X98137442Y-75924620D01*
X98326782Y-76021095D01*
X98528871Y-76086757D01*
X98595000Y-76097231D01*
X98595000Y-75203012D01*
X98652007Y-75235925D01*
X98779174Y-75270000D01*
X98910826Y-75270000D01*
X99037993Y-75235925D01*
X99095000Y-75203012D01*
X99095000Y-76097230D01*
X99161126Y-76086757D01*
X99161129Y-76086757D01*
X99363217Y-76021095D01*
X99552557Y-75924620D01*
X99724459Y-75799727D01*
X99724464Y-75799723D01*
X99874723Y-75649464D01*
X99874727Y-75649459D01*
X99999620Y-75477558D01*
X100004232Y-75468507D01*
X100052205Y-75417709D01*
X100120025Y-75400912D01*
X100186161Y-75423447D01*
X100225204Y-75468504D01*
X100229949Y-75477817D01*
X100354890Y-75649786D01*
X100505213Y-75800109D01*
X100677179Y-75925048D01*
X100677181Y-75925049D01*
X100677184Y-75925051D01*
X100866588Y-76021557D01*
X101068757Y-76087246D01*
X101278713Y-76120500D01*
X101278714Y-76120500D01*
X101491286Y-76120500D01*
X101491287Y-76120500D01*
X101701243Y-76087246D01*
X101903412Y-76021557D01*
X102092816Y-75925051D01*
X102179138Y-75862335D01*
X102264786Y-75800109D01*
X102264788Y-75800106D01*
X102264792Y-75800104D01*
X102415104Y-75649792D01*
X102415106Y-75649788D01*
X102415109Y-75649786D01*
X102540048Y-75477820D01*
X102540047Y-75477820D01*
X102540051Y-75477816D01*
X102544514Y-75469054D01*
X102592488Y-75418259D01*
X102660308Y-75401463D01*
X102726444Y-75423999D01*
X102765486Y-75469056D01*
X102769951Y-75477820D01*
X102894890Y-75649786D01*
X103045213Y-75800109D01*
X103217179Y-75925048D01*
X103217181Y-75925049D01*
X103217184Y-75925051D01*
X103406588Y-76021557D01*
X103608757Y-76087246D01*
X103818713Y-76120500D01*
X103818714Y-76120500D01*
X104031286Y-76120500D01*
X104031287Y-76120500D01*
X104241243Y-76087246D01*
X104443412Y-76021557D01*
X104632816Y-75925051D01*
X104719138Y-75862335D01*
X104804786Y-75800109D01*
X104804788Y-75800106D01*
X104804792Y-75800104D01*
X104955104Y-75649792D01*
X104955106Y-75649788D01*
X104955109Y-75649786D01*
X105080048Y-75477820D01*
X105080047Y-75477820D01*
X105080051Y-75477816D01*
X105084514Y-75469054D01*
X105132488Y-75418259D01*
X105200308Y-75401463D01*
X105266444Y-75423999D01*
X105305486Y-75469056D01*
X105309951Y-75477820D01*
X105434890Y-75649786D01*
X105585213Y-75800109D01*
X105757179Y-75925048D01*
X105757181Y-75925049D01*
X105757184Y-75925051D01*
X105946588Y-76021557D01*
X106148757Y-76087246D01*
X106358713Y-76120500D01*
X106358714Y-76120500D01*
X106571286Y-76120500D01*
X106571287Y-76120500D01*
X106781243Y-76087246D01*
X106983412Y-76021557D01*
X107172816Y-75925051D01*
X107259138Y-75862335D01*
X107344786Y-75800109D01*
X107344788Y-75800106D01*
X107344792Y-75800104D01*
X107495104Y-75649792D01*
X107495106Y-75649788D01*
X107495109Y-75649786D01*
X107620048Y-75477820D01*
X107620047Y-75477820D01*
X107620051Y-75477816D01*
X107624514Y-75469054D01*
X107672488Y-75418259D01*
X107740308Y-75401463D01*
X107806444Y-75423999D01*
X107845486Y-75469056D01*
X107849951Y-75477820D01*
X107974890Y-75649786D01*
X108125213Y-75800109D01*
X108297179Y-75925048D01*
X108297181Y-75925049D01*
X108297184Y-75925051D01*
X108486588Y-76021557D01*
X108688757Y-76087246D01*
X108898713Y-76120500D01*
X108898714Y-76120500D01*
X109111286Y-76120500D01*
X109111287Y-76120500D01*
X109321243Y-76087246D01*
X109523412Y-76021557D01*
X109712816Y-75925051D01*
X109799138Y-75862335D01*
X109884786Y-75800109D01*
X109884788Y-75800106D01*
X109884792Y-75800104D01*
X110035104Y-75649792D01*
X110035106Y-75649788D01*
X110035109Y-75649786D01*
X110160048Y-75477820D01*
X110160047Y-75477820D01*
X110160051Y-75477816D01*
X110164514Y-75469054D01*
X110212488Y-75418259D01*
X110280308Y-75401463D01*
X110346444Y-75423999D01*
X110385486Y-75469056D01*
X110389951Y-75477820D01*
X110514890Y-75649786D01*
X110665213Y-75800109D01*
X110837179Y-75925048D01*
X110837181Y-75925049D01*
X110837184Y-75925051D01*
X111026588Y-76021557D01*
X111228757Y-76087246D01*
X111438713Y-76120500D01*
X111438714Y-76120500D01*
X111651286Y-76120500D01*
X111651287Y-76120500D01*
X111861243Y-76087246D01*
X112063412Y-76021557D01*
X112252816Y-75925051D01*
X112339138Y-75862335D01*
X112424786Y-75800109D01*
X112424788Y-75800106D01*
X112424792Y-75800104D01*
X112575104Y-75649792D01*
X112575106Y-75649788D01*
X112575109Y-75649786D01*
X112700048Y-75477820D01*
X112700047Y-75477820D01*
X112700051Y-75477816D01*
X112704514Y-75469054D01*
X112752488Y-75418259D01*
X112820308Y-75401463D01*
X112886444Y-75423999D01*
X112925486Y-75469056D01*
X112929951Y-75477820D01*
X113054890Y-75649786D01*
X113205213Y-75800109D01*
X113377179Y-75925048D01*
X113377181Y-75925049D01*
X113377184Y-75925051D01*
X113566588Y-76021557D01*
X113768757Y-76087246D01*
X113978713Y-76120500D01*
X113978714Y-76120500D01*
X114191286Y-76120500D01*
X114191287Y-76120500D01*
X114401243Y-76087246D01*
X114603412Y-76021557D01*
X114792816Y-75925051D01*
X114879138Y-75862335D01*
X114964786Y-75800109D01*
X114964788Y-75800106D01*
X114964792Y-75800104D01*
X115115104Y-75649792D01*
X115115106Y-75649788D01*
X115115109Y-75649786D01*
X115240048Y-75477820D01*
X115240051Y-75477816D01*
X115244793Y-75468508D01*
X115292763Y-75417711D01*
X115360583Y-75400911D01*
X115426719Y-75423445D01*
X115465763Y-75468500D01*
X115470377Y-75477555D01*
X115595272Y-75649459D01*
X115595276Y-75649464D01*
X115745535Y-75799723D01*
X115745540Y-75799727D01*
X115917442Y-75924620D01*
X116106782Y-76021095D01*
X116308871Y-76086757D01*
X116375000Y-76097231D01*
X116375000Y-75203012D01*
X116432007Y-75235925D01*
X116559174Y-75270000D01*
X116690826Y-75270000D01*
X116817993Y-75235925D01*
X116875000Y-75203012D01*
X116875000Y-76097230D01*
X116941126Y-76086757D01*
X116941129Y-76086757D01*
X117143217Y-76021095D01*
X117332557Y-75924620D01*
X117504459Y-75799727D01*
X117504464Y-75799723D01*
X117654723Y-75649464D01*
X117654727Y-75649459D01*
X117779620Y-75477557D01*
X117876095Y-75288217D01*
X117941757Y-75086129D01*
X117941757Y-75086126D01*
X117952231Y-75020000D01*
X117058012Y-75020000D01*
X117090925Y-74962993D01*
X117125000Y-74835826D01*
X117125000Y-74704174D01*
X117090925Y-74577007D01*
X117058012Y-74520000D01*
X117952231Y-74520000D01*
X117941757Y-74453873D01*
X117941757Y-74453870D01*
X117876095Y-74251782D01*
X117779620Y-74062442D01*
X117654727Y-73890540D01*
X117654723Y-73890535D01*
X117504464Y-73740276D01*
X117504459Y-73740272D01*
X117332555Y-73615377D01*
X117323500Y-73610763D01*
X117272706Y-73562788D01*
X117255912Y-73494966D01*
X117278451Y-73428832D01*
X117323508Y-73389793D01*
X117332816Y-73385051D01*
X117434205Y-73311388D01*
X117504786Y-73260109D01*
X117504788Y-73260106D01*
X117504792Y-73260104D01*
X117655104Y-73109792D01*
X117655106Y-73109788D01*
X117655109Y-73109786D01*
X117764086Y-72959789D01*
X117780051Y-72937816D01*
X117876557Y-72748412D01*
X117942246Y-72546243D01*
X117975500Y-72336287D01*
X117975500Y-72123713D01*
X117942246Y-71913757D01*
X117876557Y-71711588D01*
X117780051Y-71522184D01*
X117780049Y-71522181D01*
X117780048Y-71522179D01*
X117655109Y-71350213D01*
X117504786Y-71199890D01*
X117332820Y-71074951D01*
X117143414Y-70978444D01*
X117143413Y-70978443D01*
X117143412Y-70978443D01*
X116941243Y-70912754D01*
X116941241Y-70912753D01*
X116941240Y-70912753D01*
X116770331Y-70885684D01*
X116731287Y-70879500D01*
X116518713Y-70879500D01*
X116479669Y-70885684D01*
X116308760Y-70912753D01*
X116106585Y-70978444D01*
X115917179Y-71074951D01*
X115745213Y-71199890D01*
X115594890Y-71350213D01*
X115469949Y-71522182D01*
X115465484Y-71530946D01*
X115417509Y-71581742D01*
X115349688Y-71598536D01*
X115283553Y-71575998D01*
X115244516Y-71530946D01*
X115240050Y-71522182D01*
X115115109Y-71350213D01*
X114964786Y-71199890D01*
X114792820Y-71074951D01*
X114603414Y-70978444D01*
X114603413Y-70978443D01*
X114603412Y-70978443D01*
X114401243Y-70912754D01*
X114401241Y-70912753D01*
X114401240Y-70912753D01*
X114230331Y-70885684D01*
X114191287Y-70879500D01*
X113978713Y-70879500D01*
X113939669Y-70885684D01*
X113768760Y-70912753D01*
X113566585Y-70978444D01*
X113377179Y-71074951D01*
X113205213Y-71199890D01*
X113054890Y-71350213D01*
X112929949Y-71522182D01*
X112925484Y-71530946D01*
X112877509Y-71581742D01*
X112809688Y-71598536D01*
X112743553Y-71575998D01*
X112704516Y-71530946D01*
X112700050Y-71522182D01*
X112575109Y-71350213D01*
X112424786Y-71199890D01*
X112252820Y-71074951D01*
X112063414Y-70978444D01*
X112063413Y-70978443D01*
X112063412Y-70978443D01*
X111861243Y-70912754D01*
X111861241Y-70912753D01*
X111861240Y-70912753D01*
X111690331Y-70885684D01*
X111651287Y-70879500D01*
X111438713Y-70879500D01*
X111399669Y-70885684D01*
X111228760Y-70912753D01*
X111026585Y-70978444D01*
X110837179Y-71074951D01*
X110665213Y-71199890D01*
X110514890Y-71350213D01*
X110389949Y-71522182D01*
X110385202Y-71531499D01*
X110337227Y-71582293D01*
X110269405Y-71599087D01*
X110203271Y-71576548D01*
X110164234Y-71531495D01*
X110159622Y-71522444D01*
X110034727Y-71350540D01*
X110034723Y-71350535D01*
X109884464Y-71200276D01*
X109884459Y-71200272D01*
X109712557Y-71075379D01*
X109523215Y-70978903D01*
X109321124Y-70913241D01*
X109255000Y-70902768D01*
X109255000Y-71796988D01*
X109197993Y-71764075D01*
X109070826Y-71730000D01*
X108939174Y-71730000D01*
X108812007Y-71764075D01*
X108755000Y-71796988D01*
X108755000Y-70902768D01*
X108754999Y-70902768D01*
X108688875Y-70913241D01*
X108486784Y-70978903D01*
X108297442Y-71075379D01*
X108125540Y-71200272D01*
X108125535Y-71200276D01*
X107975276Y-71350535D01*
X107975272Y-71350540D01*
X107850378Y-71522443D01*
X107845762Y-71531502D01*
X107797784Y-71582295D01*
X107729963Y-71599087D01*
X107663829Y-71576546D01*
X107624794Y-71531493D01*
X107620051Y-71522184D01*
X107620049Y-71522181D01*
X107620048Y-71522179D01*
X107495109Y-71350213D01*
X107344786Y-71199890D01*
X107172820Y-71074951D01*
X106983414Y-70978444D01*
X106983413Y-70978443D01*
X106983412Y-70978443D01*
X106781243Y-70912754D01*
X106781241Y-70912753D01*
X106781240Y-70912753D01*
X106610331Y-70885684D01*
X106571287Y-70879500D01*
X106358713Y-70879500D01*
X106319669Y-70885684D01*
X106148760Y-70912753D01*
X105946585Y-70978444D01*
X105757179Y-71074951D01*
X105585213Y-71199890D01*
X105434890Y-71350213D01*
X105309949Y-71522182D01*
X105305202Y-71531499D01*
X105257227Y-71582293D01*
X105189405Y-71599087D01*
X105123271Y-71576548D01*
X105084234Y-71531495D01*
X105079622Y-71522444D01*
X104954727Y-71350540D01*
X104954723Y-71350535D01*
X104804464Y-71200276D01*
X104804459Y-71200272D01*
X104632557Y-71075379D01*
X104443215Y-70978903D01*
X104241124Y-70913241D01*
X104175000Y-70902768D01*
X104175000Y-71796988D01*
X104117993Y-71764075D01*
X103990826Y-71730000D01*
X103859174Y-71730000D01*
X103732007Y-71764075D01*
X103675000Y-71796988D01*
X103675000Y-70902768D01*
X103674999Y-70902768D01*
X103608875Y-70913241D01*
X103406784Y-70978903D01*
X103217442Y-71075379D01*
X103045540Y-71200272D01*
X103045535Y-71200276D01*
X102895276Y-71350535D01*
X102895272Y-71350540D01*
X102770378Y-71522443D01*
X102765762Y-71531502D01*
X102717784Y-71582295D01*
X102649963Y-71599087D01*
X102583829Y-71576546D01*
X102544794Y-71531493D01*
X102540051Y-71522184D01*
X102540049Y-71522181D01*
X102540048Y-71522179D01*
X102415109Y-71350213D01*
X102264786Y-71199890D01*
X102092820Y-71074951D01*
X101903414Y-70978444D01*
X101903413Y-70978443D01*
X101903412Y-70978443D01*
X101701243Y-70912754D01*
X101701241Y-70912753D01*
X101701240Y-70912753D01*
X101530331Y-70885684D01*
X101491287Y-70879500D01*
X101278713Y-70879500D01*
X101239669Y-70885684D01*
X101068760Y-70912753D01*
X100866585Y-70978444D01*
X100677179Y-71074951D01*
X100505213Y-71199890D01*
X100354890Y-71350213D01*
X100229949Y-71522182D01*
X100225484Y-71530946D01*
X100177509Y-71581742D01*
X100109688Y-71598536D01*
X100043553Y-71575998D01*
X100004516Y-71530946D01*
X100000050Y-71522182D01*
X99875109Y-71350213D01*
X99724786Y-71199890D01*
X99552820Y-71074951D01*
X99363414Y-70978444D01*
X99363413Y-70978443D01*
X99363412Y-70978443D01*
X99161243Y-70912754D01*
X99161241Y-70912753D01*
X99161240Y-70912753D01*
X98990331Y-70885684D01*
X98951287Y-70879500D01*
X98738713Y-70879500D01*
X98699669Y-70885684D01*
X98528760Y-70912753D01*
X98326585Y-70978444D01*
X98137179Y-71074951D01*
X97965213Y-71199890D01*
X97814890Y-71350213D01*
X97689949Y-71522182D01*
X97685484Y-71530946D01*
X97637509Y-71581742D01*
X97569688Y-71598536D01*
X97503553Y-71575998D01*
X97464516Y-71530946D01*
X97460050Y-71522182D01*
X97335109Y-71350213D01*
X97184786Y-71199890D01*
X97012820Y-71074951D01*
X96823414Y-70978444D01*
X96823413Y-70978443D01*
X96823412Y-70978443D01*
X96621243Y-70912754D01*
X96621241Y-70912753D01*
X96621240Y-70912753D01*
X96450331Y-70885684D01*
X96411287Y-70879500D01*
X96198713Y-70879500D01*
X96159669Y-70885684D01*
X95988760Y-70912753D01*
X95786585Y-70978444D01*
X95597179Y-71074951D01*
X95425213Y-71199890D01*
X95274890Y-71350213D01*
X95149949Y-71522182D01*
X95145484Y-71530946D01*
X95097509Y-71581742D01*
X95029688Y-71598536D01*
X94963553Y-71575998D01*
X94924516Y-71530946D01*
X94920050Y-71522182D01*
X94795109Y-71350213D01*
X94644786Y-71199890D01*
X94472820Y-71074951D01*
X94283414Y-70978444D01*
X94283413Y-70978443D01*
X94283412Y-70978443D01*
X94081243Y-70912754D01*
X94081241Y-70912753D01*
X94081240Y-70912753D01*
X93910331Y-70885684D01*
X93871287Y-70879500D01*
X93658713Y-70879500D01*
X93619669Y-70885684D01*
X93448760Y-70912753D01*
X93246585Y-70978444D01*
X93057179Y-71074951D01*
X92885213Y-71199890D01*
X92734890Y-71350213D01*
X92609949Y-71522182D01*
X92605202Y-71531499D01*
X92557227Y-71582293D01*
X92489405Y-71599087D01*
X92423271Y-71576548D01*
X92384234Y-71531495D01*
X92379622Y-71522444D01*
X92254727Y-71350540D01*
X92254723Y-71350535D01*
X92104464Y-71200276D01*
X92104459Y-71200272D01*
X91932557Y-71075379D01*
X91743215Y-70978903D01*
X91541124Y-70913241D01*
X91475000Y-70902768D01*
X91475000Y-71796988D01*
X91417993Y-71764075D01*
X91290826Y-71730000D01*
X91159174Y-71730000D01*
X91032007Y-71764075D01*
X90975000Y-71796988D01*
X90975000Y-70902768D01*
X90974999Y-70902768D01*
X90908875Y-70913241D01*
X90706784Y-70978903D01*
X90517442Y-71075379D01*
X90345540Y-71200272D01*
X90345535Y-71200276D01*
X90195276Y-71350535D01*
X90195272Y-71350540D01*
X90070378Y-71522443D01*
X90065762Y-71531502D01*
X90017784Y-71582295D01*
X89949963Y-71599087D01*
X89883829Y-71576546D01*
X89844794Y-71531493D01*
X89840051Y-71522184D01*
X89840049Y-71522181D01*
X89840048Y-71522179D01*
X89715109Y-71350213D01*
X89564786Y-71199890D01*
X89392820Y-71074951D01*
X89203414Y-70978444D01*
X89203413Y-70978443D01*
X89203412Y-70978443D01*
X89001243Y-70912754D01*
X89001241Y-70912753D01*
X89001240Y-70912753D01*
X88830331Y-70885684D01*
X88791287Y-70879500D01*
X88578713Y-70879500D01*
X88539669Y-70885684D01*
X88368760Y-70912753D01*
X88166585Y-70978444D01*
X87977179Y-71074951D01*
X87805213Y-71199890D01*
X87654890Y-71350213D01*
X87529949Y-71522182D01*
X87525484Y-71530946D01*
X87477509Y-71581742D01*
X87409688Y-71598536D01*
X87343553Y-71575998D01*
X87304516Y-71530946D01*
X87300050Y-71522182D01*
X87175109Y-71350213D01*
X87024786Y-71199890D01*
X86852820Y-71074951D01*
X86663414Y-70978444D01*
X86663413Y-70978443D01*
X86663412Y-70978443D01*
X86461243Y-70912754D01*
X86461241Y-70912753D01*
X86461240Y-70912753D01*
X86290331Y-70885684D01*
X86251287Y-70879500D01*
X86038713Y-70879500D01*
X85999669Y-70885684D01*
X85828760Y-70912753D01*
X85626585Y-70978444D01*
X85437179Y-71074951D01*
X85265213Y-71199890D01*
X85114890Y-71350213D01*
X84989949Y-71522182D01*
X84985202Y-71531499D01*
X84937227Y-71582293D01*
X84869405Y-71599087D01*
X84803271Y-71576548D01*
X84764234Y-71531495D01*
X84759622Y-71522444D01*
X84634727Y-71350540D01*
X84634723Y-71350535D01*
X84484464Y-71200276D01*
X84484459Y-71200272D01*
X84312557Y-71075379D01*
X84123215Y-70978903D01*
X83921124Y-70913241D01*
X83855000Y-70902768D01*
X83855000Y-71796988D01*
X83797993Y-71764075D01*
X83670826Y-71730000D01*
X83539174Y-71730000D01*
X83412007Y-71764075D01*
X83355000Y-71796988D01*
X83355000Y-70902768D01*
X83354999Y-70902768D01*
X83288875Y-70913241D01*
X83086784Y-70978903D01*
X82897442Y-71075379D01*
X82725540Y-71200272D01*
X82725535Y-71200276D01*
X82575276Y-71350535D01*
X82575272Y-71350540D01*
X82450378Y-71522443D01*
X82445762Y-71531502D01*
X82397784Y-71582295D01*
X82329963Y-71599087D01*
X82263829Y-71576546D01*
X82224794Y-71531493D01*
X82220051Y-71522184D01*
X82220049Y-71522181D01*
X82220048Y-71522179D01*
X82095109Y-71350213D01*
X81944786Y-71199890D01*
X81772820Y-71074951D01*
X81583414Y-70978444D01*
X81583413Y-70978443D01*
X81583412Y-70978443D01*
X81381243Y-70912754D01*
X81381241Y-70912753D01*
X81381240Y-70912753D01*
X81210331Y-70885684D01*
X81171287Y-70879500D01*
X80958713Y-70879500D01*
X80919669Y-70885684D01*
X80748760Y-70912753D01*
X80546585Y-70978444D01*
X80357179Y-71074951D01*
X80185213Y-71199890D01*
X80034890Y-71350213D01*
X79909949Y-71522182D01*
X79905484Y-71530946D01*
X79857509Y-71581742D01*
X79789688Y-71598536D01*
X79723553Y-71575998D01*
X79684516Y-71530946D01*
X79680050Y-71522182D01*
X79555109Y-71350213D01*
X79404786Y-71199890D01*
X79232820Y-71074951D01*
X79043414Y-70978444D01*
X79043413Y-70978443D01*
X79043412Y-70978443D01*
X78841243Y-70912754D01*
X78841241Y-70912753D01*
X78841240Y-70912753D01*
X78670331Y-70885684D01*
X78631287Y-70879500D01*
X78418713Y-70879500D01*
X78379669Y-70885684D01*
X78208760Y-70912753D01*
X78006585Y-70978444D01*
X77817179Y-71074951D01*
X77645213Y-71199890D01*
X77494890Y-71350213D01*
X77369949Y-71522182D01*
X77365484Y-71530946D01*
X77317509Y-71581742D01*
X77249688Y-71598536D01*
X77183553Y-71575998D01*
X77144516Y-71530946D01*
X77140050Y-71522182D01*
X77015109Y-71350213D01*
X76864786Y-71199890D01*
X76692820Y-71074951D01*
X76503414Y-70978444D01*
X76503413Y-70978443D01*
X76503412Y-70978443D01*
X76301243Y-70912754D01*
X76301241Y-70912753D01*
X76301240Y-70912753D01*
X76130331Y-70885684D01*
X76091287Y-70879500D01*
X75878713Y-70879500D01*
X75839669Y-70885684D01*
X75668760Y-70912753D01*
X75466585Y-70978444D01*
X75277179Y-71074951D01*
X75105213Y-71199890D01*
X74954890Y-71350213D01*
X74829949Y-71522182D01*
X74825202Y-71531499D01*
X74777227Y-71582293D01*
X74709405Y-71599087D01*
X74643271Y-71576548D01*
X74604234Y-71531495D01*
X74599622Y-71522444D01*
X74474727Y-71350540D01*
X74474723Y-71350535D01*
X74324464Y-71200276D01*
X74324459Y-71200272D01*
X74152557Y-71075379D01*
X73963215Y-70978903D01*
X73761124Y-70913241D01*
X73695000Y-70902768D01*
X73695000Y-71796988D01*
X73637993Y-71764075D01*
X73510826Y-71730000D01*
X73379174Y-71730000D01*
X73252007Y-71764075D01*
X73195000Y-71796988D01*
X73195000Y-70902768D01*
X73194999Y-70902768D01*
X73128875Y-70913241D01*
X72926784Y-70978903D01*
X72737442Y-71075379D01*
X72565540Y-71200272D01*
X72565535Y-71200276D01*
X72415276Y-71350535D01*
X72415272Y-71350540D01*
X72290378Y-71522443D01*
X72285762Y-71531502D01*
X72237784Y-71582295D01*
X72169963Y-71599087D01*
X72103829Y-71576546D01*
X72064794Y-71531493D01*
X72060051Y-71522184D01*
X72060049Y-71522181D01*
X72060048Y-71522179D01*
X71935109Y-71350213D01*
X71784786Y-71199890D01*
X71612820Y-71074951D01*
X71423414Y-70978444D01*
X71423413Y-70978443D01*
X71423412Y-70978443D01*
X71221243Y-70912754D01*
X71221241Y-70912753D01*
X71221240Y-70912753D01*
X71050331Y-70885684D01*
X71011287Y-70879500D01*
X70798713Y-70879500D01*
X70759669Y-70885684D01*
X70588760Y-70912753D01*
X70386585Y-70978444D01*
X70197179Y-71074951D01*
X70025213Y-71199890D01*
X69874892Y-71350211D01*
X69806573Y-71444247D01*
X69781770Y-71478385D01*
X69777439Y-71481725D01*
X69775166Y-71486703D01*
X69750066Y-71502833D01*
X69726442Y-71521051D01*
X69719768Y-71522304D01*
X69716388Y-71524477D01*
X69681453Y-71529500D01*
X69588547Y-71529500D01*
X69521508Y-71509815D01*
X69488230Y-71478385D01*
X69446682Y-71421200D01*
X69395107Y-71350211D01*
X69244786Y-71199890D01*
X69072820Y-71074951D01*
X68883414Y-70978444D01*
X68883413Y-70978443D01*
X68883412Y-70978443D01*
X68681243Y-70912754D01*
X68681241Y-70912753D01*
X68681240Y-70912753D01*
X68510331Y-70885684D01*
X68471287Y-70879500D01*
X68258713Y-70879500D01*
X68219669Y-70885684D01*
X68048760Y-70912753D01*
X67846585Y-70978444D01*
X67657179Y-71074951D01*
X67485213Y-71199890D01*
X67334890Y-71350213D01*
X67209951Y-71522179D01*
X67113444Y-71711585D01*
X67047753Y-71913760D01*
X67014500Y-72123713D01*
X67014500Y-72336286D01*
X67039968Y-72497086D01*
X67031013Y-72566380D01*
X67005176Y-72604165D01*
X66816304Y-72793037D01*
X66754981Y-72826522D01*
X66685289Y-72821538D01*
X66629356Y-72779666D01*
X66607732Y-72732948D01*
X66580262Y-72612592D01*
X66580258Y-72612580D01*
X66534909Y-72482980D01*
X66461536Y-72273292D01*
X66305566Y-71949418D01*
X66114315Y-71645044D01*
X65890188Y-71363997D01*
X65636003Y-71109812D01*
X65612620Y-71091165D01*
X65471271Y-70978443D01*
X65354956Y-70885685D01*
X65050582Y-70694434D01*
X65050579Y-70694432D01*
X64723573Y-70536954D01*
X64724123Y-70535809D01*
X64673759Y-70495240D01*
X64651682Y-70428950D01*
X64668948Y-70361247D01*
X64720076Y-70313627D01*
X64775602Y-70300500D01*
X120224398Y-70300500D01*
X120291437Y-70320185D01*
G37*
%TD.AperFunction*%
%TA.AperFunction,Conductor*%
G36*
X117153633Y-90908424D02*
G01*
X117181358Y-90913222D01*
X117186714Y-90918137D01*
X117193686Y-90920185D01*
X117212103Y-90941439D01*
X117232834Y-90960466D01*
X117234682Y-90967496D01*
X117239441Y-90972989D01*
X117243444Y-91000833D01*
X117250596Y-91028040D01*
X117248826Y-91038264D01*
X117249385Y-91042147D01*
X117244578Y-91062818D01*
X117218242Y-91143870D01*
X117218242Y-91143873D01*
X117207769Y-91210000D01*
X118101988Y-91210000D01*
X118069075Y-91267007D01*
X118035000Y-91394174D01*
X118035000Y-91525826D01*
X118069075Y-91652993D01*
X118101988Y-91710000D01*
X117207769Y-91710000D01*
X117218242Y-91776126D01*
X117218242Y-91776129D01*
X117283904Y-91978217D01*
X117380377Y-92167554D01*
X117436846Y-92245276D01*
X117460326Y-92311082D01*
X117444501Y-92379136D01*
X117424209Y-92405843D01*
X115767873Y-94062181D01*
X115706550Y-94095666D01*
X115680192Y-94098500D01*
X107974119Y-94098500D01*
X107848451Y-94123497D01*
X107848445Y-94123499D01*
X107730064Y-94172534D01*
X107623516Y-94243726D01*
X107623515Y-94243727D01*
X88054063Y-113813181D01*
X87992740Y-113846666D01*
X87966382Y-113849500D01*
X86360929Y-113849500D01*
X86235261Y-113874497D01*
X86235255Y-113874499D01*
X86139832Y-113914025D01*
X86139831Y-113914025D01*
X86116876Y-113923532D01*
X86010326Y-113994726D01*
X85200497Y-114804555D01*
X85139174Y-114838040D01*
X85074499Y-114834805D01*
X84991244Y-114807754D01*
X84991240Y-114807753D01*
X84829957Y-114782208D01*
X84781287Y-114774500D01*
X84568713Y-114774500D01*
X84520042Y-114782208D01*
X84358760Y-114807753D01*
X84156585Y-114873444D01*
X83967179Y-114969951D01*
X83795215Y-115094889D01*
X83656035Y-115234069D01*
X83594712Y-115267553D01*
X83525020Y-115262569D01*
X83469087Y-115220697D01*
X83462815Y-115211484D01*
X83367315Y-115056654D01*
X83243345Y-114932684D01*
X83094124Y-114840643D01*
X83094119Y-114840641D01*
X82927697Y-114785494D01*
X82927690Y-114785493D01*
X82824986Y-114775000D01*
X82425000Y-114775000D01*
X82425000Y-115845854D01*
X82358343Y-115807370D01*
X82237535Y-115775000D01*
X82112465Y-115775000D01*
X81991657Y-115807370D01*
X81925000Y-115845854D01*
X81925000Y-114775000D01*
X81525028Y-114775000D01*
X81525012Y-114775001D01*
X81422302Y-114785494D01*
X81255880Y-114840641D01*
X81255875Y-114840643D01*
X81106654Y-114932684D01*
X80982684Y-115056654D01*
X80890643Y-115205875D01*
X80890641Y-115205880D01*
X80835494Y-115372302D01*
X80835493Y-115372309D01*
X80825000Y-115475013D01*
X80825000Y-116000000D01*
X81770854Y-116000000D01*
X81732370Y-116066657D01*
X81700000Y-116187465D01*
X81700000Y-116312535D01*
X81732370Y-116433343D01*
X81770854Y-116500000D01*
X80825001Y-116500000D01*
X80825001Y-117024986D01*
X80835494Y-117127697D01*
X80890641Y-117294119D01*
X80890643Y-117294124D01*
X80982684Y-117443345D01*
X81106654Y-117567315D01*
X81255875Y-117659356D01*
X81255880Y-117659358D01*
X81422302Y-117714505D01*
X81422309Y-117714506D01*
X81525019Y-117724999D01*
X81924999Y-117724999D01*
X81925000Y-117724998D01*
X81925000Y-116654145D01*
X81991657Y-116692630D01*
X82112465Y-116725000D01*
X82237535Y-116725000D01*
X82358343Y-116692630D01*
X82425000Y-116654145D01*
X82425000Y-117724999D01*
X82824972Y-117724999D01*
X82824986Y-117724998D01*
X82927697Y-117714505D01*
X83094119Y-117659358D01*
X83094124Y-117659356D01*
X83243345Y-117567315D01*
X83367317Y-117443343D01*
X83462815Y-117288516D01*
X83514763Y-117241791D01*
X83583725Y-117230568D01*
X83647808Y-117258412D01*
X83656035Y-117265931D01*
X83795213Y-117405109D01*
X83967179Y-117530048D01*
X83967181Y-117530049D01*
X83967184Y-117530051D01*
X84156588Y-117626557D01*
X84358757Y-117692246D01*
X84568713Y-117725500D01*
X84568714Y-117725500D01*
X84781286Y-117725500D01*
X84781287Y-117725500D01*
X84991243Y-117692246D01*
X85193412Y-117626557D01*
X85382816Y-117530051D01*
X85404789Y-117514086D01*
X85554786Y-117405109D01*
X85554788Y-117405106D01*
X85554792Y-117405104D01*
X85705104Y-117254792D01*
X85824683Y-117090204D01*
X85880011Y-117047540D01*
X85949624Y-117041561D01*
X86011420Y-117074166D01*
X86025313Y-117090199D01*
X86052557Y-117127697D01*
X86144896Y-117254792D01*
X86295213Y-117405109D01*
X86467179Y-117530048D01*
X86467181Y-117530049D01*
X86467184Y-117530051D01*
X86656588Y-117626557D01*
X86858757Y-117692246D01*
X86949316Y-117706589D01*
X87012450Y-117736518D01*
X87049382Y-117795829D01*
X87048384Y-117865692D01*
X87017599Y-117916743D01*
X86771162Y-118163181D01*
X86709839Y-118196666D01*
X86683481Y-118199500D01*
X79516519Y-118199500D01*
X79449480Y-118179815D01*
X79428838Y-118163181D01*
X77902598Y-116636941D01*
X77901981Y-116635812D01*
X77900863Y-116635172D01*
X77885275Y-116605217D01*
X77869113Y-116575618D01*
X77869011Y-116573961D01*
X77868610Y-116573191D01*
X77868457Y-116564954D01*
X77866796Y-116537944D01*
X77867166Y-116533899D01*
X77875500Y-116481287D01*
X77875500Y-116018713D01*
X77842246Y-115808757D01*
X77776557Y-115606588D01*
X77776554Y-115606582D01*
X77736597Y-115528160D01*
X77736596Y-115528159D01*
X77709516Y-115475013D01*
X77680051Y-115417184D01*
X77647443Y-115372302D01*
X77555109Y-115245213D01*
X77404786Y-115094890D01*
X77232820Y-114969951D01*
X77043414Y-114873444D01*
X77043413Y-114873443D01*
X77043412Y-114873443D01*
X76841243Y-114807754D01*
X76841241Y-114807753D01*
X76841239Y-114807753D01*
X76750682Y-114793410D01*
X76687547Y-114763481D01*
X76650616Y-114704169D01*
X76651614Y-114634306D01*
X76682397Y-114583258D01*
X100328837Y-90936819D01*
X100390160Y-90903334D01*
X100416518Y-90900500D01*
X117126647Y-90900500D01*
X117153633Y-90908424D01*
G37*
%TD.AperFunction*%
%TA.AperFunction,Conductor*%
G36*
X117219680Y-95920185D02*
G01*
X117265435Y-95972989D01*
X117275379Y-96042147D01*
X117270572Y-96062818D01*
X117218242Y-96223870D01*
X117218242Y-96223873D01*
X117207769Y-96290000D01*
X118101988Y-96290000D01*
X118069075Y-96347007D01*
X118035000Y-96474174D01*
X118035000Y-96605826D01*
X118069075Y-96732993D01*
X118101988Y-96790000D01*
X117207769Y-96790000D01*
X117218242Y-96856126D01*
X117218242Y-96856129D01*
X117283904Y-97058217D01*
X117380377Y-97247554D01*
X117420636Y-97302965D01*
X117444116Y-97368771D01*
X117428291Y-97436825D01*
X117407999Y-97463532D01*
X115303331Y-99568202D01*
X101058353Y-113813181D01*
X100997030Y-113846666D01*
X100970672Y-113849500D01*
X99435928Y-113849500D01*
X99314875Y-113873580D01*
X99313933Y-113873767D01*
X99310256Y-113874498D01*
X99310254Y-113874499D01*
X99191869Y-113923535D01*
X99085330Y-113994722D01*
X99085323Y-113994728D01*
X98293889Y-114786162D01*
X98232566Y-114819647D01*
X98167890Y-114816412D01*
X98153786Y-114811829D01*
X98141241Y-114807753D01*
X97970797Y-114780757D01*
X97931287Y-114774500D01*
X97718713Y-114774500D01*
X97670042Y-114782208D01*
X97508760Y-114807753D01*
X97306585Y-114873444D01*
X97117179Y-114969951D01*
X96945215Y-115094889D01*
X96806035Y-115234069D01*
X96744712Y-115267553D01*
X96675020Y-115262569D01*
X96619087Y-115220697D01*
X96612815Y-115211484D01*
X96517315Y-115056654D01*
X96393345Y-114932684D01*
X96244124Y-114840643D01*
X96244119Y-114840641D01*
X96077697Y-114785494D01*
X96077690Y-114785493D01*
X95974986Y-114775000D01*
X95575000Y-114775000D01*
X95575000Y-115845854D01*
X95508343Y-115807370D01*
X95387535Y-115775000D01*
X95262465Y-115775000D01*
X95141657Y-115807370D01*
X95075000Y-115845854D01*
X95075000Y-114775000D01*
X94675028Y-114775000D01*
X94675012Y-114775001D01*
X94572302Y-114785494D01*
X94405880Y-114840641D01*
X94405875Y-114840643D01*
X94256654Y-114932684D01*
X94132684Y-115056654D01*
X94040643Y-115205875D01*
X94040641Y-115205880D01*
X93985494Y-115372302D01*
X93985493Y-115372309D01*
X93975000Y-115475013D01*
X93975000Y-116000000D01*
X94920854Y-116000000D01*
X94882370Y-116066657D01*
X94850000Y-116187465D01*
X94850000Y-116312535D01*
X94882370Y-116433343D01*
X94920854Y-116500000D01*
X93975001Y-116500000D01*
X93975001Y-117024986D01*
X93985494Y-117127697D01*
X94040641Y-117294119D01*
X94040643Y-117294124D01*
X94132684Y-117443345D01*
X94256654Y-117567315D01*
X94405875Y-117659356D01*
X94405880Y-117659358D01*
X94572302Y-117714505D01*
X94572309Y-117714506D01*
X94675019Y-117724999D01*
X95074999Y-117724999D01*
X95075000Y-117724998D01*
X95075000Y-116654145D01*
X95141657Y-116692630D01*
X95262465Y-116725000D01*
X95387535Y-116725000D01*
X95508343Y-116692630D01*
X95575000Y-116654145D01*
X95575000Y-117724999D01*
X95974972Y-117724999D01*
X95974986Y-117724998D01*
X96077697Y-117714505D01*
X96244119Y-117659358D01*
X96244124Y-117659356D01*
X96393345Y-117567315D01*
X96517317Y-117443343D01*
X96612815Y-117288516D01*
X96664763Y-117241791D01*
X96733725Y-117230568D01*
X96797808Y-117258412D01*
X96806035Y-117265931D01*
X96945213Y-117405109D01*
X97117179Y-117530048D01*
X97117181Y-117530049D01*
X97117184Y-117530051D01*
X97306588Y-117626557D01*
X97508757Y-117692246D01*
X97718713Y-117725500D01*
X97718714Y-117725500D01*
X97931286Y-117725500D01*
X97931287Y-117725500D01*
X98141243Y-117692246D01*
X98343412Y-117626557D01*
X98532816Y-117530051D01*
X98554789Y-117514086D01*
X98704786Y-117405109D01*
X98704788Y-117405106D01*
X98704792Y-117405104D01*
X98855104Y-117254792D01*
X98974683Y-117090204D01*
X99030011Y-117047540D01*
X99099624Y-117041561D01*
X99161420Y-117074166D01*
X99175313Y-117090199D01*
X99202557Y-117127697D01*
X99294896Y-117254792D01*
X99445213Y-117405109D01*
X99617179Y-117530048D01*
X99617181Y-117530049D01*
X99617184Y-117530051D01*
X99806588Y-117626557D01*
X100008757Y-117692246D01*
X100099316Y-117706589D01*
X100162450Y-117736518D01*
X100199382Y-117795829D01*
X100198384Y-117865692D01*
X100167599Y-117916743D01*
X99921162Y-118163181D01*
X99859839Y-118196666D01*
X99833481Y-118199500D01*
X92666519Y-118199500D01*
X92599480Y-118179815D01*
X92578838Y-118163181D01*
X91052598Y-116636941D01*
X91051981Y-116635812D01*
X91050863Y-116635172D01*
X91035275Y-116605217D01*
X91019113Y-116575618D01*
X91019011Y-116573961D01*
X91018610Y-116573191D01*
X91018457Y-116564954D01*
X91016796Y-116537944D01*
X91017166Y-116533899D01*
X91025500Y-116481287D01*
X91025500Y-116018713D01*
X90992246Y-115808757D01*
X90926557Y-115606588D01*
X90926554Y-115606582D01*
X90886597Y-115528160D01*
X90886596Y-115528159D01*
X90859516Y-115475013D01*
X90830051Y-115417184D01*
X90797443Y-115372302D01*
X90705109Y-115245213D01*
X90554786Y-115094890D01*
X90382820Y-114969951D01*
X90193414Y-114873444D01*
X90193413Y-114873443D01*
X90193412Y-114873443D01*
X89991243Y-114807754D01*
X89991241Y-114807753D01*
X89991240Y-114807753D01*
X89904385Y-114793997D01*
X89841250Y-114764068D01*
X89804319Y-114704756D01*
X89805317Y-114634894D01*
X89836100Y-114583845D01*
X108483127Y-95936819D01*
X108544450Y-95903334D01*
X108570808Y-95900500D01*
X117152641Y-95900500D01*
X117219680Y-95920185D01*
G37*
%TD.AperFunction*%
%TA.AperFunction,Conductor*%
G36*
X117235898Y-100951185D02*
G01*
X117281653Y-101003989D01*
X117291597Y-101073147D01*
X117285044Y-101097026D01*
X117285411Y-101097146D01*
X117218242Y-101303870D01*
X117218242Y-101303873D01*
X117207769Y-101370000D01*
X118101988Y-101370000D01*
X118069075Y-101427007D01*
X118035000Y-101554174D01*
X118035000Y-101685826D01*
X118069075Y-101812993D01*
X118101988Y-101870000D01*
X117207769Y-101870000D01*
X117218242Y-101936126D01*
X117218242Y-101936129D01*
X117283904Y-102138217D01*
X117380379Y-102327557D01*
X117505272Y-102499459D01*
X117505276Y-102499464D01*
X117655535Y-102649723D01*
X117655540Y-102649727D01*
X117827444Y-102774622D01*
X117837048Y-102779516D01*
X117887844Y-102827491D01*
X117904638Y-102895312D01*
X117882100Y-102961447D01*
X117837048Y-103000484D01*
X117827444Y-103005377D01*
X117655540Y-103130272D01*
X117655535Y-103130276D01*
X117505276Y-103280535D01*
X117505272Y-103280540D01*
X117380379Y-103452442D01*
X117283904Y-103641782D01*
X117218242Y-103843870D01*
X117218242Y-103843873D01*
X117207769Y-103910000D01*
X118101988Y-103910000D01*
X118069075Y-103967007D01*
X118035000Y-104094174D01*
X118035000Y-104225826D01*
X118069075Y-104352993D01*
X118101988Y-104410000D01*
X117207769Y-104410000D01*
X117218242Y-104476126D01*
X117218242Y-104476129D01*
X117283904Y-104678217D01*
X117380379Y-104867557D01*
X117505272Y-105039459D01*
X117505276Y-105039464D01*
X117655535Y-105189723D01*
X117655540Y-105189727D01*
X117827442Y-105314620D01*
X118016782Y-105411095D01*
X118218871Y-105476757D01*
X118285000Y-105487231D01*
X118285000Y-104593012D01*
X118342007Y-104625925D01*
X118469174Y-104660000D01*
X118600826Y-104660000D01*
X118727993Y-104625925D01*
X118785000Y-104593012D01*
X118785000Y-105487230D01*
X118851126Y-105476757D01*
X118851129Y-105476757D01*
X118937182Y-105448797D01*
X119007023Y-105446802D01*
X119066856Y-105482882D01*
X119097684Y-105545583D01*
X119099500Y-105566728D01*
X119099500Y-109017796D01*
X119079815Y-109084835D01*
X119063181Y-109105477D01*
X114436175Y-113732483D01*
X114374852Y-113765968D01*
X114348494Y-113768802D01*
X112741627Y-113768802D01*
X112615959Y-113793799D01*
X112615953Y-113793801D01*
X112497572Y-113842836D01*
X112391024Y-113914028D01*
X111500497Y-114804555D01*
X111439174Y-114838040D01*
X111374499Y-114834805D01*
X111291244Y-114807754D01*
X111291240Y-114807753D01*
X111129957Y-114782208D01*
X111081287Y-114774500D01*
X110868713Y-114774500D01*
X110820042Y-114782208D01*
X110658760Y-114807753D01*
X110456585Y-114873444D01*
X110267179Y-114969951D01*
X110095215Y-115094889D01*
X109956035Y-115234069D01*
X109894712Y-115267553D01*
X109825020Y-115262569D01*
X109769087Y-115220697D01*
X109762815Y-115211484D01*
X109667315Y-115056654D01*
X109543345Y-114932684D01*
X109394124Y-114840643D01*
X109394119Y-114840641D01*
X109227697Y-114785494D01*
X109227690Y-114785493D01*
X109124986Y-114775000D01*
X108725000Y-114775000D01*
X108725000Y-115845854D01*
X108658343Y-115807370D01*
X108537535Y-115775000D01*
X108412465Y-115775000D01*
X108291657Y-115807370D01*
X108225000Y-115845854D01*
X108225000Y-114775000D01*
X107825028Y-114775000D01*
X107825012Y-114775001D01*
X107722302Y-114785494D01*
X107555880Y-114840641D01*
X107555875Y-114840643D01*
X107406654Y-114932684D01*
X107282684Y-115056654D01*
X107190643Y-115205875D01*
X107190641Y-115205880D01*
X107135494Y-115372302D01*
X107135493Y-115372309D01*
X107125000Y-115475013D01*
X107125000Y-116000000D01*
X108070854Y-116000000D01*
X108032370Y-116066657D01*
X108000000Y-116187465D01*
X108000000Y-116312535D01*
X108032370Y-116433343D01*
X108070854Y-116500000D01*
X107125001Y-116500000D01*
X107125001Y-117024986D01*
X107135494Y-117127697D01*
X107190641Y-117294119D01*
X107190643Y-117294124D01*
X107282684Y-117443345D01*
X107406654Y-117567315D01*
X107555875Y-117659356D01*
X107555880Y-117659358D01*
X107722302Y-117714505D01*
X107722309Y-117714506D01*
X107825019Y-117724999D01*
X108224999Y-117724999D01*
X108225000Y-117724998D01*
X108225000Y-116654145D01*
X108291657Y-116692630D01*
X108412465Y-116725000D01*
X108537535Y-116725000D01*
X108658343Y-116692630D01*
X108725000Y-116654145D01*
X108725000Y-117724999D01*
X109124972Y-117724999D01*
X109124986Y-117724998D01*
X109227697Y-117714505D01*
X109394119Y-117659358D01*
X109394124Y-117659356D01*
X109543345Y-117567315D01*
X109667317Y-117443343D01*
X109762815Y-117288516D01*
X109814763Y-117241791D01*
X109883725Y-117230568D01*
X109947808Y-117258412D01*
X109956035Y-117265931D01*
X110095213Y-117405109D01*
X110267179Y-117530048D01*
X110267181Y-117530049D01*
X110267184Y-117530051D01*
X110456588Y-117626557D01*
X110658757Y-117692246D01*
X110868713Y-117725500D01*
X110868714Y-117725500D01*
X111081286Y-117725500D01*
X111081287Y-117725500D01*
X111291243Y-117692246D01*
X111493412Y-117626557D01*
X111682816Y-117530051D01*
X111704789Y-117514086D01*
X111854786Y-117405109D01*
X111854788Y-117405106D01*
X111854792Y-117405104D01*
X112005104Y-117254792D01*
X112124683Y-117090204D01*
X112180011Y-117047540D01*
X112249624Y-117041561D01*
X112311420Y-117074166D01*
X112325313Y-117090199D01*
X112352557Y-117127697D01*
X112444896Y-117254792D01*
X112595213Y-117405109D01*
X112767179Y-117530048D01*
X112767181Y-117530049D01*
X112767184Y-117530051D01*
X112956588Y-117626557D01*
X113158757Y-117692246D01*
X113249316Y-117706589D01*
X113312450Y-117736518D01*
X113349382Y-117795829D01*
X113348384Y-117865692D01*
X113317599Y-117916743D01*
X113071162Y-118163181D01*
X113009839Y-118196666D01*
X112983481Y-118199500D01*
X105816519Y-118199500D01*
X105749480Y-118179815D01*
X105728838Y-118163181D01*
X104202598Y-116636941D01*
X104201981Y-116635812D01*
X104200863Y-116635172D01*
X104185275Y-116605217D01*
X104169113Y-116575618D01*
X104169011Y-116573961D01*
X104168610Y-116573191D01*
X104168457Y-116564954D01*
X104166796Y-116537944D01*
X104167166Y-116533899D01*
X104175500Y-116481287D01*
X104175500Y-116018713D01*
X104142246Y-115808757D01*
X104076557Y-115606588D01*
X104076554Y-115606582D01*
X104036597Y-115528160D01*
X104036596Y-115528159D01*
X104009516Y-115475013D01*
X103980051Y-115417184D01*
X103947443Y-115372302D01*
X103855109Y-115245213D01*
X103704786Y-115094890D01*
X103532820Y-114969951D01*
X103343414Y-114873444D01*
X103343413Y-114873443D01*
X103343412Y-114873443D01*
X103141243Y-114807754D01*
X103141241Y-114807753D01*
X103141240Y-114807753D01*
X102974544Y-114781351D01*
X102931287Y-114774500D01*
X102931286Y-114774500D01*
X102926475Y-114773738D01*
X102926776Y-114771832D01*
X102869137Y-114749849D01*
X102827678Y-114693609D01*
X102823206Y-114623883D01*
X102856492Y-114563452D01*
X116452127Y-100967819D01*
X116513450Y-100934334D01*
X116539808Y-100931500D01*
X117168859Y-100931500D01*
X117235898Y-100951185D01*
G37*
%TD.AperFunction*%
%TA.AperFunction,Conductor*%
G36*
X118785000Y-103726988D02*
G01*
X118727993Y-103694075D01*
X118600826Y-103660000D01*
X118469174Y-103660000D01*
X118342007Y-103694075D01*
X118285000Y-103726988D01*
X118285000Y-102053012D01*
X118342007Y-102085925D01*
X118469174Y-102120000D01*
X118600826Y-102120000D01*
X118727993Y-102085925D01*
X118785000Y-102053012D01*
X118785000Y-103726988D01*
G37*
%TD.AperFunction*%
%TA.AperFunction,Conductor*%
G36*
X118728039Y-100951185D02*
G01*
X118773794Y-101003989D01*
X118785000Y-101055500D01*
X118785000Y-101186988D01*
X118727993Y-101154075D01*
X118600826Y-101120000D01*
X118469174Y-101120000D01*
X118342007Y-101154075D01*
X118285000Y-101186988D01*
X118285000Y-101055500D01*
X118304685Y-100988461D01*
X118357489Y-100942706D01*
X118409000Y-100931500D01*
X118661000Y-100931500D01*
X118728039Y-100951185D01*
G37*
%TD.AperFunction*%
%TA.AperFunction,Conductor*%
G36*
X118342007Y-99545925D02*
G01*
X118469174Y-99580000D01*
X118600826Y-99580000D01*
X118727993Y-99545925D01*
X118782697Y-99514341D01*
X118765315Y-99573539D01*
X118712511Y-99619294D01*
X118661000Y-99630500D01*
X118409000Y-99630500D01*
X118341961Y-99610815D01*
X118296206Y-99558011D01*
X118286620Y-99513947D01*
X118342007Y-99545925D01*
G37*
%TD.AperFunction*%
%TA.AperFunction,Conductor*%
G36*
X118728039Y-98420185D02*
G01*
X118773794Y-98472989D01*
X118785000Y-98524500D01*
X118785000Y-98646988D01*
X118727993Y-98614075D01*
X118600826Y-98580000D01*
X118469174Y-98580000D01*
X118342007Y-98614075D01*
X118285000Y-98646988D01*
X118285000Y-98524500D01*
X118304685Y-98457461D01*
X118357489Y-98411706D01*
X118409000Y-98400500D01*
X118661000Y-98400500D01*
X118728039Y-98420185D01*
G37*
%TD.AperFunction*%
%TA.AperFunction,Conductor*%
G36*
X118785000Y-96975500D02*
G01*
X118765315Y-97042539D01*
X118712511Y-97088294D01*
X118661000Y-97099500D01*
X118409000Y-97099500D01*
X118341961Y-97079815D01*
X118296206Y-97027011D01*
X118285000Y-96975500D01*
X118285000Y-96973012D01*
X118342007Y-97005925D01*
X118469174Y-97040000D01*
X118600826Y-97040000D01*
X118727993Y-97005925D01*
X118785000Y-96973012D01*
X118785000Y-96975500D01*
G37*
%TD.AperFunction*%
%TA.AperFunction,Conductor*%
G36*
X118728039Y-95920185D02*
G01*
X118773794Y-95972989D01*
X118785000Y-96024500D01*
X118785000Y-96106988D01*
X118727993Y-96074075D01*
X118600826Y-96040000D01*
X118469174Y-96040000D01*
X118342007Y-96074075D01*
X118285000Y-96106988D01*
X118285000Y-96024500D01*
X118304685Y-95957461D01*
X118357489Y-95911706D01*
X118409000Y-95900500D01*
X118661000Y-95900500D01*
X118728039Y-95920185D01*
G37*
%TD.AperFunction*%
%TA.AperFunction,Conductor*%
G36*
X118785000Y-94475500D02*
G01*
X118765315Y-94542539D01*
X118712511Y-94588294D01*
X118661000Y-94599500D01*
X118409000Y-94599500D01*
X118341961Y-94579815D01*
X118296206Y-94527011D01*
X118285000Y-94475500D01*
X118285000Y-94433012D01*
X118342007Y-94465925D01*
X118469174Y-94500000D01*
X118600826Y-94500000D01*
X118727993Y-94465925D01*
X118785000Y-94433012D01*
X118785000Y-94475500D01*
G37*
%TD.AperFunction*%
%TA.AperFunction,Conductor*%
G36*
X118728039Y-93420185D02*
G01*
X118773794Y-93472989D01*
X118785000Y-93524500D01*
X118785000Y-93566988D01*
X118727993Y-93534075D01*
X118600826Y-93500000D01*
X118469174Y-93500000D01*
X118342007Y-93534075D01*
X118285000Y-93566988D01*
X118285000Y-93524500D01*
X118304685Y-93457461D01*
X118357489Y-93411706D01*
X118409000Y-93400500D01*
X118661000Y-93400500D01*
X118728039Y-93420185D01*
G37*
%TD.AperFunction*%
%TA.AperFunction,Conductor*%
G36*
X78775000Y-76097230D02*
G01*
X78841126Y-76086757D01*
X78841129Y-76086757D01*
X79043217Y-76021095D01*
X79232557Y-75924620D01*
X79404459Y-75799727D01*
X79404464Y-75799723D01*
X79554723Y-75649464D01*
X79554727Y-75649459D01*
X79679620Y-75477558D01*
X79684232Y-75468507D01*
X79732205Y-75417709D01*
X79800025Y-75400912D01*
X79866161Y-75423447D01*
X79905204Y-75468504D01*
X79909949Y-75477817D01*
X80034890Y-75649786D01*
X80185213Y-75800109D01*
X80357179Y-75925048D01*
X80357181Y-75925049D01*
X80357184Y-75925051D01*
X80546588Y-76021557D01*
X80748757Y-76087246D01*
X80958713Y-76120500D01*
X80958714Y-76120500D01*
X81171286Y-76120500D01*
X81171287Y-76120500D01*
X81381243Y-76087246D01*
X81583412Y-76021557D01*
X81772816Y-75925051D01*
X81859138Y-75862335D01*
X81944786Y-75800109D01*
X81944788Y-75800106D01*
X81944792Y-75800104D01*
X82095104Y-75649792D01*
X82095106Y-75649788D01*
X82095109Y-75649786D01*
X82220048Y-75477820D01*
X82220047Y-75477820D01*
X82220051Y-75477816D01*
X82224514Y-75469054D01*
X82272488Y-75418259D01*
X82340308Y-75401463D01*
X82406444Y-75423999D01*
X82445486Y-75469056D01*
X82449951Y-75477820D01*
X82574890Y-75649786D01*
X82725213Y-75800109D01*
X82897179Y-75925048D01*
X82897181Y-75925049D01*
X82897184Y-75925051D01*
X83086588Y-76021557D01*
X83288757Y-76087246D01*
X83498713Y-76120500D01*
X83498714Y-76120500D01*
X83602827Y-76120500D01*
X83669866Y-76140185D01*
X83715621Y-76192989D01*
X83725565Y-76262147D01*
X83705929Y-76313391D01*
X83673538Y-76361866D01*
X83673533Y-76361875D01*
X83624499Y-76480255D01*
X83624497Y-76480261D01*
X83599500Y-76605928D01*
X83599500Y-79262152D01*
X83579815Y-79329191D01*
X83563181Y-79349833D01*
X77599833Y-85313181D01*
X77538510Y-85346666D01*
X77512152Y-85349500D01*
X71004935Y-85349500D01*
X70937896Y-85329815D01*
X70936090Y-85328633D01*
X70879179Y-85290606D01*
X70879172Y-85290602D01*
X70733501Y-85230264D01*
X70733489Y-85230261D01*
X70578845Y-85199500D01*
X70578842Y-85199500D01*
X70421158Y-85199500D01*
X70421155Y-85199500D01*
X70266510Y-85230261D01*
X70266498Y-85230264D01*
X70120827Y-85290602D01*
X70120814Y-85290609D01*
X69989711Y-85378210D01*
X69989707Y-85378213D01*
X69878213Y-85489707D01*
X69878210Y-85489711D01*
X69790609Y-85620814D01*
X69790602Y-85620827D01*
X69730264Y-85766498D01*
X69730261Y-85766510D01*
X69699500Y-85921153D01*
X69699500Y-86078846D01*
X69730261Y-86233489D01*
X69730264Y-86233501D01*
X69790602Y-86379172D01*
X69790609Y-86379185D01*
X69878210Y-86510288D01*
X69878213Y-86510292D01*
X69989707Y-86621786D01*
X69989711Y-86621789D01*
X70120814Y-86709390D01*
X70120827Y-86709397D01*
X70266498Y-86769735D01*
X70266503Y-86769737D01*
X70421153Y-86800499D01*
X70421156Y-86800500D01*
X70421158Y-86800500D01*
X70578844Y-86800500D01*
X70578845Y-86800499D01*
X70733497Y-86769737D01*
X70879179Y-86709394D01*
X70936044Y-86671397D01*
X71002721Y-86650520D01*
X71004935Y-86650500D01*
X73082152Y-86650500D01*
X73149191Y-86670185D01*
X73194946Y-86722989D01*
X73203769Y-86750308D01*
X73230261Y-86883491D01*
X73230264Y-86883501D01*
X73290602Y-87029172D01*
X73290609Y-87029185D01*
X73378210Y-87160288D01*
X73378213Y-87160292D01*
X73489707Y-87271786D01*
X73489711Y-87271789D01*
X73620814Y-87359390D01*
X73620827Y-87359397D01*
X73766498Y-87419735D01*
X73766503Y-87419737D01*
X73921153Y-87450499D01*
X73921156Y-87450500D01*
X73921158Y-87450500D01*
X74078844Y-87450500D01*
X74078845Y-87450499D01*
X74233497Y-87419737D01*
X74379179Y-87359394D01*
X74510289Y-87271789D01*
X74595260Y-87186817D01*
X74656581Y-87153334D01*
X74682940Y-87150500D01*
X76880192Y-87150500D01*
X76947231Y-87170185D01*
X76992986Y-87222989D01*
X77002930Y-87292147D01*
X76973905Y-87355703D01*
X76967873Y-87362181D01*
X71740988Y-92589064D01*
X71679665Y-92622549D01*
X71609973Y-92617565D01*
X71605855Y-92615944D01*
X71483501Y-92565264D01*
X71483489Y-92565261D01*
X71328845Y-92534500D01*
X71328842Y-92534500D01*
X71171158Y-92534500D01*
X71171155Y-92534500D01*
X71016510Y-92565261D01*
X71016498Y-92565264D01*
X70870827Y-92625602D01*
X70870814Y-92625609D01*
X70739711Y-92713210D01*
X70739707Y-92713213D01*
X70628213Y-92824707D01*
X70628210Y-92824711D01*
X70540609Y-92955814D01*
X70540602Y-92955827D01*
X70480264Y-93101498D01*
X70480261Y-93101508D01*
X70453769Y-93234692D01*
X70421384Y-93296603D01*
X70360668Y-93331177D01*
X70332152Y-93334500D01*
X68134809Y-93334500D01*
X68067770Y-93314815D01*
X68022015Y-93262011D01*
X68012071Y-93192853D01*
X68041096Y-93129297D01*
X68047128Y-93122819D01*
X70589737Y-90580208D01*
X71102931Y-90067013D01*
X71164252Y-90033530D01*
X71166317Y-90033099D01*
X71233497Y-90019737D01*
X71379179Y-89959394D01*
X71510289Y-89871789D01*
X71621789Y-89760289D01*
X71709394Y-89629179D01*
X71769737Y-89483497D01*
X71800500Y-89328842D01*
X71800500Y-89171158D01*
X71800500Y-89171155D01*
X71800499Y-89171153D01*
X71791020Y-89123499D01*
X71769737Y-89016503D01*
X71745583Y-88958189D01*
X71709397Y-88870827D01*
X71709390Y-88870814D01*
X71621789Y-88739711D01*
X71621786Y-88739707D01*
X71510292Y-88628213D01*
X71510288Y-88628210D01*
X71379185Y-88540609D01*
X71379172Y-88540602D01*
X71233501Y-88480264D01*
X71233489Y-88480261D01*
X71078845Y-88449500D01*
X71078842Y-88449500D01*
X70921158Y-88449500D01*
X70921155Y-88449500D01*
X70766510Y-88480261D01*
X70766498Y-88480264D01*
X70620827Y-88540602D01*
X70620814Y-88540609D01*
X70489711Y-88628210D01*
X70489707Y-88628213D01*
X70378213Y-88739707D01*
X70378210Y-88739711D01*
X70290609Y-88870814D01*
X70290602Y-88870827D01*
X70230264Y-89016498D01*
X70230261Y-89016508D01*
X70216920Y-89083579D01*
X70184535Y-89145490D01*
X70182984Y-89147068D01*
X67232873Y-92097181D01*
X67171550Y-92130666D01*
X67145192Y-92133500D01*
X65291683Y-92133500D01*
X65224644Y-92113815D01*
X65178889Y-92061011D01*
X65168945Y-91991853D01*
X65175441Y-91968172D01*
X65175051Y-91968046D01*
X65176557Y-91963412D01*
X65242246Y-91761243D01*
X65275500Y-91551287D01*
X65275500Y-91338713D01*
X65242246Y-91128757D01*
X65176557Y-90926588D01*
X65080051Y-90737184D01*
X65080049Y-90737181D01*
X65080048Y-90737179D01*
X64955109Y-90565213D01*
X64804786Y-90414890D01*
X64632817Y-90289949D01*
X64623504Y-90285204D01*
X64572707Y-90237230D01*
X64555912Y-90169409D01*
X64578449Y-90103274D01*
X64623507Y-90064232D01*
X64632558Y-90059620D01*
X64804459Y-89934727D01*
X64804464Y-89934723D01*
X64954723Y-89784464D01*
X64954727Y-89784459D01*
X65079620Y-89612557D01*
X65176095Y-89423217D01*
X65241757Y-89221129D01*
X65241757Y-89221126D01*
X65252231Y-89155000D01*
X64358012Y-89155000D01*
X64390925Y-89097993D01*
X64425000Y-88970826D01*
X64425000Y-88839174D01*
X64390925Y-88712007D01*
X64358012Y-88655000D01*
X65252231Y-88655000D01*
X65241757Y-88588873D01*
X65241757Y-88588870D01*
X65176095Y-88386782D01*
X65079620Y-88197442D01*
X64954727Y-88025540D01*
X64954723Y-88025535D01*
X64841053Y-87911865D01*
X64807568Y-87850542D01*
X64812552Y-87780850D01*
X64854424Y-87724917D01*
X64885400Y-87708002D01*
X65017331Y-87658796D01*
X65132546Y-87572546D01*
X65218796Y-87457331D01*
X65269091Y-87322483D01*
X65275500Y-87262873D01*
X65275499Y-86056517D01*
X65295184Y-85989479D01*
X65311813Y-85968842D01*
X67344114Y-83936543D01*
X67420775Y-83821811D01*
X67473580Y-83694328D01*
X67500500Y-83558994D01*
X67500500Y-83421006D01*
X67500500Y-76244499D01*
X67520185Y-76177460D01*
X67572989Y-76131705D01*
X67624500Y-76120499D01*
X69262871Y-76120499D01*
X69262872Y-76120499D01*
X69322483Y-76114091D01*
X69457331Y-76063796D01*
X69572546Y-75977546D01*
X69658796Y-75862331D01*
X69707810Y-75730916D01*
X69749681Y-75674984D01*
X69815145Y-75650566D01*
X69883418Y-75665417D01*
X69911673Y-75686569D01*
X70025213Y-75800109D01*
X70197179Y-75925048D01*
X70197181Y-75925049D01*
X70197184Y-75925051D01*
X70386588Y-76021557D01*
X70588757Y-76087246D01*
X70798713Y-76120500D01*
X70798714Y-76120500D01*
X71011286Y-76120500D01*
X71011287Y-76120500D01*
X71221243Y-76087246D01*
X71423412Y-76021557D01*
X71612816Y-75925051D01*
X71699138Y-75862335D01*
X71784786Y-75800109D01*
X71784788Y-75800106D01*
X71784792Y-75800104D01*
X71935104Y-75649792D01*
X71935106Y-75649788D01*
X71935109Y-75649786D01*
X72060048Y-75477820D01*
X72060047Y-75477820D01*
X72060051Y-75477816D01*
X72064514Y-75469054D01*
X72112488Y-75418259D01*
X72180308Y-75401463D01*
X72246444Y-75423999D01*
X72285486Y-75469056D01*
X72289951Y-75477820D01*
X72414890Y-75649786D01*
X72565213Y-75800109D01*
X72737179Y-75925048D01*
X72737181Y-75925049D01*
X72737184Y-75925051D01*
X72926588Y-76021557D01*
X73128757Y-76087246D01*
X73338713Y-76120500D01*
X73338714Y-76120500D01*
X73551286Y-76120500D01*
X73551287Y-76120500D01*
X73761243Y-76087246D01*
X73963412Y-76021557D01*
X74152816Y-75925051D01*
X74239138Y-75862335D01*
X74324786Y-75800109D01*
X74324788Y-75800106D01*
X74324792Y-75800104D01*
X74475104Y-75649792D01*
X74475106Y-75649788D01*
X74475109Y-75649786D01*
X74600048Y-75477820D01*
X74600047Y-75477820D01*
X74600051Y-75477816D01*
X74604514Y-75469054D01*
X74652488Y-75418259D01*
X74720308Y-75401463D01*
X74786444Y-75423999D01*
X74825486Y-75469056D01*
X74829951Y-75477820D01*
X74954890Y-75649786D01*
X75105213Y-75800109D01*
X75277179Y-75925048D01*
X75277181Y-75925049D01*
X75277184Y-75925051D01*
X75466588Y-76021557D01*
X75668757Y-76087246D01*
X75878713Y-76120500D01*
X75878714Y-76120500D01*
X76091286Y-76120500D01*
X76091287Y-76120500D01*
X76301243Y-76087246D01*
X76503412Y-76021557D01*
X76692816Y-75925051D01*
X76779138Y-75862335D01*
X76864786Y-75800109D01*
X76864788Y-75800106D01*
X76864792Y-75800104D01*
X77015104Y-75649792D01*
X77015106Y-75649788D01*
X77015109Y-75649786D01*
X77140048Y-75477820D01*
X77140051Y-75477816D01*
X77144793Y-75468508D01*
X77192763Y-75417711D01*
X77260583Y-75400911D01*
X77326719Y-75423445D01*
X77365763Y-75468500D01*
X77370377Y-75477555D01*
X77495272Y-75649459D01*
X77495276Y-75649464D01*
X77645535Y-75799723D01*
X77645540Y-75799727D01*
X77817442Y-75924620D01*
X78006782Y-76021095D01*
X78208871Y-76086757D01*
X78275000Y-76097231D01*
X78275000Y-75203012D01*
X78332007Y-75235925D01*
X78459174Y-75270000D01*
X78590826Y-75270000D01*
X78717993Y-75235925D01*
X78775000Y-75203012D01*
X78775000Y-76097230D01*
G37*
%TD.AperFunction*%
%TA.AperFunction,Conductor*%
G36*
X63459075Y-88712007D02*
G01*
X63425000Y-88839174D01*
X63425000Y-88970826D01*
X63459075Y-89097993D01*
X63491988Y-89155000D01*
X62597769Y-89155000D01*
X62608242Y-89221126D01*
X62608242Y-89221129D01*
X62673904Y-89423217D01*
X62770379Y-89612557D01*
X62895272Y-89784459D01*
X62895276Y-89784464D01*
X63045535Y-89934723D01*
X63045540Y-89934727D01*
X63217444Y-90059622D01*
X63226495Y-90064234D01*
X63277292Y-90112208D01*
X63294087Y-90180029D01*
X63271550Y-90246164D01*
X63226499Y-90285202D01*
X63217182Y-90289949D01*
X63045213Y-90414890D01*
X62894890Y-90565213D01*
X62769951Y-90737179D01*
X62673444Y-90926585D01*
X62607753Y-91128760D01*
X62603915Y-91152993D01*
X62574500Y-91338713D01*
X62574500Y-91551287D01*
X62582435Y-91601385D01*
X62606929Y-91756038D01*
X62607754Y-91761243D01*
X62672334Y-91960000D01*
X62673444Y-91963414D01*
X62769950Y-92152818D01*
X62773891Y-92158243D01*
X62797366Y-92224051D01*
X62781537Y-92292104D01*
X62761249Y-92318803D01*
X61912181Y-93167872D01*
X61850858Y-93201357D01*
X61781167Y-93196373D01*
X61725233Y-93154501D01*
X61700816Y-93089037D01*
X61700500Y-93080191D01*
X61700500Y-89631519D01*
X61720185Y-89564480D01*
X61736819Y-89543838D01*
X62589338Y-88691319D01*
X62650661Y-88657834D01*
X62677019Y-88655000D01*
X63491988Y-88655000D01*
X63459075Y-88712007D01*
G37*
%TD.AperFunction*%
%TA.AperFunction,Conductor*%
G36*
X118785000Y-91975500D02*
G01*
X118765315Y-92042539D01*
X118712511Y-92088294D01*
X118661000Y-92099500D01*
X118409000Y-92099500D01*
X118341961Y-92079815D01*
X118296206Y-92027011D01*
X118285000Y-91975500D01*
X118285000Y-91893012D01*
X118342007Y-91925925D01*
X118469174Y-91960000D01*
X118600826Y-91960000D01*
X118727993Y-91925925D01*
X118785000Y-91893012D01*
X118785000Y-91975500D01*
G37*
%TD.AperFunction*%
%TA.AperFunction,Conductor*%
G36*
X118728039Y-90920185D02*
G01*
X118773794Y-90972989D01*
X118785000Y-91024500D01*
X118785000Y-91026988D01*
X118727993Y-90994075D01*
X118600826Y-90960000D01*
X118469174Y-90960000D01*
X118342007Y-90994075D01*
X118285000Y-91026988D01*
X118285000Y-91024500D01*
X118304685Y-90957461D01*
X118357489Y-90911706D01*
X118409000Y-90900500D01*
X118661000Y-90900500D01*
X118728039Y-90920185D01*
G37*
%TD.AperFunction*%
%TA.AperFunction,Conductor*%
G36*
X118785000Y-89475500D02*
G01*
X118765315Y-89542539D01*
X118712511Y-89588294D01*
X118661000Y-89599500D01*
X118409000Y-89599500D01*
X118341961Y-89579815D01*
X118296206Y-89527011D01*
X118285000Y-89475500D01*
X118285000Y-89353012D01*
X118342007Y-89385925D01*
X118469174Y-89420000D01*
X118600826Y-89420000D01*
X118727993Y-89385925D01*
X118785000Y-89353012D01*
X118785000Y-89475500D01*
G37*
%TD.AperFunction*%
%TA.AperFunction,Conductor*%
G36*
X60505703Y-74681889D02*
G01*
X60536064Y-74724001D01*
X60536954Y-74723573D01*
X60694432Y-75050579D01*
X60694434Y-75050582D01*
X60885685Y-75354956D01*
X61109812Y-75636003D01*
X61363997Y-75890188D01*
X61645044Y-76114315D01*
X61949418Y-76305566D01*
X62273292Y-76461536D01*
X62528119Y-76550703D01*
X62612580Y-76580258D01*
X62612592Y-76580262D01*
X62963052Y-76660252D01*
X63320260Y-76700499D01*
X63320261Y-76700500D01*
X63320264Y-76700500D01*
X63679739Y-76700500D01*
X63679739Y-76700499D01*
X64036948Y-76660252D01*
X64387408Y-76580262D01*
X64726708Y-76461536D01*
X65050582Y-76305566D01*
X65354956Y-76114315D01*
X65636003Y-75890188D01*
X65887819Y-75638372D01*
X65949142Y-75604887D01*
X66018834Y-75609871D01*
X66074767Y-75651743D01*
X66099184Y-75717207D01*
X66099500Y-75726053D01*
X66099500Y-83148480D01*
X66079815Y-83215519D01*
X66063181Y-83236161D01*
X64321160Y-84978181D01*
X64259837Y-85011666D01*
X64233479Y-85014500D01*
X63027129Y-85014500D01*
X63027123Y-85014501D01*
X62967516Y-85020908D01*
X62832671Y-85071202D01*
X62832664Y-85071206D01*
X62717455Y-85157452D01*
X62717452Y-85157455D01*
X62631206Y-85272664D01*
X62631202Y-85272671D01*
X62580908Y-85407517D01*
X62574501Y-85467116D01*
X62574500Y-85467135D01*
X62574500Y-86673480D01*
X62554815Y-86740519D01*
X62538181Y-86761161D01*
X60512181Y-88787161D01*
X60450858Y-88820646D01*
X60381166Y-88815662D01*
X60325233Y-88773790D01*
X60300816Y-88708326D01*
X60300500Y-88699480D01*
X60300500Y-74775602D01*
X60320185Y-74708563D01*
X60372989Y-74662808D01*
X60442147Y-74652864D01*
X60505703Y-74681889D01*
G37*
%TD.AperFunction*%
%TA.AperFunction,Conductor*%
G36*
X118728039Y-88389185D02*
G01*
X118773794Y-88441989D01*
X118783379Y-88486052D01*
X118727993Y-88454075D01*
X118600826Y-88420000D01*
X118469174Y-88420000D01*
X118342007Y-88454075D01*
X118287302Y-88485658D01*
X118304685Y-88426461D01*
X118357489Y-88380706D01*
X118409000Y-88369500D01*
X118661000Y-88369500D01*
X118728039Y-88389185D01*
G37*
%TD.AperFunction*%
%TA.AperFunction,Conductor*%
G36*
X118785000Y-86944500D02*
G01*
X118765315Y-87011539D01*
X118712511Y-87057294D01*
X118661000Y-87068500D01*
X118409000Y-87068500D01*
X118341961Y-87048815D01*
X118296206Y-86996011D01*
X118285000Y-86944500D01*
X118285000Y-86813012D01*
X118342007Y-86845925D01*
X118469174Y-86880000D01*
X118600826Y-86880000D01*
X118727993Y-86845925D01*
X118785000Y-86813012D01*
X118785000Y-86944500D01*
G37*
%TD.AperFunction*%
%TD*%
M02*
