M48
; DRILL file {KiCad 9.0.0} date 2025-04-05T00:09:13-0400
; FORMAT={-:-/ absolute / inch / decimal}
; #@! TF.CreationDate,2025-04-05T00:09:13-04:00
; #@! TF.GenerationSoftware,Kicad,Pcbnew,9.0.0
; #@! TF.FileFunction,Plated,1,2,PTH
FMAT,2
INCH
; #@! TA.AperFunction,Plated,PTH,ViaDrill
T1C0.0118
; #@! TA.AperFunction,Plated,PTH,ComponentDrill
T2C0.0374
; #@! TA.AperFunction,Plated,PTH,ComponentDrill
T3C0.0394
; #@! TA.AperFunction,Plated,PTH,ComponentDrill
T4C0.1063
%
G90
G05
T1
X2.5Y-4.6063
X2.5591Y-3.1988
X2.5591Y-4.3012
X2.6378Y-3.8386
X2.7264Y-3.1988
X2.7461Y-4.0846
X2.7756Y-3.3858
X2.7953Y-3.5138
X2.8051Y-3.6746
X2.8543Y-4.0846
X2.874Y-3.3169
X2.8839Y-3.7303
X2.9134Y-3.4114
X2.9232Y-4.3012
X2.9724Y-3.9764
X3.0315Y-3.1988
X3.0807Y-3.7303
X3.0816Y-3.6032
X3.2283Y-4.0157
X3.2382Y-4.813
X3.3444Y-3.0393
X3.3563Y-3.4547
X3.4449Y-4.3012
X3.4921Y-3.7795
X3.5827Y-3.1007
X3.6024Y-3.1988
X3.6122Y-3.0709
X3.7402Y-4.0157
X3.7992Y-3.4547
X3.9469Y-4.3012
X4.0453Y-3.7303
X4.0453Y-4.813
X4.0551Y-3.1988
X4.2087Y-4.0827
X4.3209Y-3.4547
X4.439Y-3.6417
X4.439Y-3.8189
X4.4685Y-4.3012
X4.5866Y-3.1988
X4.7835Y-4.5866
T2
X2.7175Y-4.5768
X2.8159Y-4.5768
X2.9144Y-4.5768
X3.0128Y-4.5768
X3.2352Y-4.5768
X3.3337Y-4.5768
X3.4321Y-4.5768
X3.5305Y-4.5768
X3.753Y-4.5768
X3.8514Y-4.5768
X3.9498Y-4.5768
X4.0482Y-4.5768
X4.2707Y-4.5768
X4.3691Y-4.5768
X4.4675Y-4.5768
X4.5659Y-4.5768
T3
X2.5167Y-3.4002
X2.5167Y-3.5002
X2.5167Y-3.6002
X2.5167Y-3.7002
X2.5167Y-3.8002
X2.5167Y-3.9002
X2.5167Y-4.0002
X2.5167Y-4.1002
X2.6915Y-2.8437
X2.6915Y-2.9437
X2.7915Y-2.8437
X2.7915Y-2.9437
X2.8915Y-2.8437
X2.8915Y-2.9437
X2.9915Y-2.8437
X2.9915Y-2.9437
X3.0915Y-2.8437
X3.0915Y-2.9437
X3.1915Y-2.8437
X3.1915Y-2.9437
X3.2915Y-2.8437
X3.2915Y-2.9437
X3.3915Y-2.8437
X3.3915Y-2.9437
X3.4915Y-2.8437
X3.4915Y-2.9437
X3.5915Y-2.8437
X3.5915Y-2.9437
X3.6915Y-2.8437
X3.6915Y-2.9437
X3.7915Y-2.8437
X3.7915Y-2.9437
X3.8915Y-2.8437
X3.8915Y-2.9437
X3.9915Y-2.8437
X3.9915Y-2.9437
X4.0915Y-2.8437
X4.0915Y-2.9437
X4.1915Y-2.8437
X4.1915Y-2.9437
X4.2915Y-2.8437
X4.2915Y-2.9437
X4.3915Y-2.8437
X4.3915Y-2.9437
X4.4915Y-2.8437
X4.4915Y-2.9437
X4.5915Y-2.8437
X4.5915Y-2.9437
X4.6667Y-3.4008
X4.6667Y-3.5008
X4.6667Y-3.6008
X4.6667Y-3.7008
X4.6667Y-3.8008
X4.6667Y-3.9008
X4.6667Y-4.0008
X4.6667Y-4.1008
X4.7667Y-3.4008
X4.7667Y-3.5008
X4.7667Y-3.6008
X4.7667Y-3.7008
X4.7667Y-3.8008
X4.7667Y-3.9008
X4.7667Y-4.0008
X4.7667Y-4.1008
T4
X2.5Y-2.8937
X2.5Y-4.8228
X4.7835Y-2.8937
X4.7835Y-4.8228
M30
